<svg class="icon" style="width:1em;height:1em;vertical-align:middle" viewBox="0 0 1024 1024" xmlns="http://www.w3.org/2000/svg" overflow="hidden"><path d="M533.818 611.71a23.564 23.564 0 0128.364 9.381h37.09v-21.818h-65.454zm87.273 9.381H656a26.618 26.618 0 0121.818-10.909 25.527 25.527 0 019.163 1.964v-12.873h-65.89zm-79.419-196.363a85.309 85.309 0 0027.71-18.328 89.89 89.89 0 0018.981-27.272 82.69 82.69 0 006.982-33.6 79.2 79.2 0 00-6.764-33.164 75.927 75.927 0 00-18.327-25.964 85.964 85.964 0 00-27.272-17.454 92.073 92.073 0 00-34.255-6.327H387.854V431.49h120.873a80.945 80.945 0 0032.945-6.763z"/><path d="M512 141.091a305.454 305.454 0 10305.454 305.455A305.454 305.454 0 00512 141.09zM387.854 664.727h-47.563V220.291h168.436a141.6 141.6 0 0157.818 11.128 133.309 133.309 0 0142.11 29.236 119.127 119.127 0 0125.526 40.8 125.018 125.018 0 018.728 45.382 130.909 130.909 0 01-8.946 47.127 127.418 127.418 0 01-25.963 40.8 123.054 123.054 0 01-42.11 28.582 147.49 147.49 0 01-57.163 10.69H387.854zm322.473-27.272h-5.673a27.273 27.273 0 01-54.545 0H568.29a27.273 27.273 0 01-54.546 0h-5.673a13.31 13.31 0 01-12-19.418l13.964-27.71a13.09 13.09 0 0111.782-7.418h25.745a6.327 6.327 0 01-6.545-6.545 75.709 75.709 0 0150.182-20.727h36a158.4 158.4 0 0150.181 20.727 6.545 6.545 0 01-6.545 6.545h25.527a13.09 13.09 0 0111.782 7.419l13.964 27.709a13.31 13.31 0 01-11.782 19.418z"/><path d="M512 32a414.545 414.545 0 00-109.091 814.691A271.636 271.636 0 01511.999 992a271.636 271.636 0 01109.092-145.309A414.545 414.545 0 00512 32.001zm0 763.636a349.09 349.09 0 11349.09-349.09A349.09 349.09 0 01512 795.636z"/></svg>