<svg class="icon" style="width:1em;height:1em;vertical-align:middle" viewBox="0 0 1024 1024" xmlns="http://www.w3.org/2000/svg" overflow="hidden"><path d="M646.947 322.918c0-128.606-105.883-232.852-236.505-232.852-5.948 0-11.784.446-17.626.873h-208.92v.442H77.005v853.598h119.99V555.027h194.981c9.154 1.051 9.043.749 18.47.749 130.623-.005 236.501-104.242 236.501-232.858zM391.971 435.032H196.995V210.046h194.981c56.995 2.674 109.243 54.792 109.243 111.557s-52.253 110.731-109.248 113.429zM938.907 734.82c-3.792-7.583-14.232-16.228-14.232-16.228l-43.032-115.2c-8.933-21.835-35.232-33.35-46.704-33.35H608.936c-11.482 0-37.762 11.515-46.7 33.35l-43.04 115.2s-10.417 8.645-14.242 16.229c-3.821 7.555-7.983 14.318-7.983 65.385 0 49.83 9.994 67.522 21.936 73.67l9.447 5.338v46.258c0 14.99 3.556 19.45 17.808 19.45h31.958c14.232 0 23.827.057 23.827-14.933v-44.99h239.981v44.99c0 14.99 9.58 14.933 23.813 14.933h31.968c14.241 0 17.798-4.46 17.798-19.45v-46.258l9.447-5.337c11.952-6.144 21.936-23.832 21.955-73.67.005-51.068-4.162-57.831-8.002-65.386zm-362.395-29.754c1.786-6.524 13.742-57.6 19.037-75.303 2.179-6.11 16.334-24.321 32.846-23.285h187.09c16.502-1.041 30.672 17.17 32.813 23.285 5.318 17.703 17.256 68.78 19.065 75.303 2.131 7.737-4.9 7.06-4.9 7.06H581.417c0-.004-7.052.677-4.906-7.06zm4.627 125.054c-18.97 0-34.392-15.46-34.392-34.373 0-18.95 15.423-34.373 34.392-34.373 18.936 0 34.354 15.423 34.354 34.373.01 18.917-15.413 34.373-34.354 34.373zm282.663 0c-18.95 0-34.392-15.46-34.392-34.373 0-18.95 15.441-34.373 34.392-34.373 18.93 0 34.358 15.423 34.358 34.373 0 18.917-15.427 34.373-34.358 34.373z"/></svg>