<svg class="icon" style="width:1em;height:1em;vertical-align:middle" viewBox="0 0 1024 1024" xmlns="http://www.w3.org/2000/svg" overflow="hidden"><path d="M512 96.939c-240.954 0-436.907 195.952-436.907 436.906S271.046 970.752 512 970.752s436.907-195.953 436.907-436.907S752.954 96.94 512 96.94zm0 819.2c-210.807 0-382.293-171.486-382.293-382.294S301.193 151.552 512 151.552s382.293 171.486 382.293 382.293S722.807 916.14 512 916.14z"/><path d="M558.967 318.669H382.02v436.906h54.614v-163.84h122.333c79.736 0 122.007-58.327 126.703-141.23-3.167-76.677-45.329-131.836-126.703-131.836zm-21.08 218.453H436.634v-163.84H540.18c57.89 0 86.836 32.659 86.836 79.626 0 51.555-29.71 84.214-89.13 84.214z"/></svg>