<svg class="icon" style="width:1em;height:1em;vertical-align:middle" viewBox="0 0 1024 1024" xmlns="http://www.w3.org/2000/svg" overflow="hidden"><path d="M511.998 26.948c-217.657 0-394.103 176.446-394.103 394.105 0 50.761 9.6 99.279 27.079 143.842a392.257 392.257 0 0020.32 43.698c42.743 84.92 154.22 273.921 346.704 388.457 192.449-114.512 303.918-303.463 346.679-388.405 30.247-55.782 47.426-119.68 47.426-187.592 0-217.658-176.445-394.105-394.105-394.105zm.003 733.28c-184.912 0-334.811-149.9-334.811-334.81S327.09 90.608 512 90.608s334.81 149.9 334.81 334.81S696.909 760.227 512 760.227z"/><path d="M464.591 500.065c11.323 2.248 25.893 3.002 42.052 3.002 72.799 0 135.082-17.258 177.134-53.285 33.18-27.766 50.16-69.789 50.16-120.061 0-49.529-22.644-91.552-58.23-116.316-36.41-27.767-90.605-41.277-166.636-41.277-75.21 0-128.6 4.504-166.617 10.507v499.03H464.59v-181.6zm0-237.133c8.892-2.255 25.893-3.757 50.14-3.757 62.284 0 97.069 27.767 97.069 74.292 0 51.029-40.444 81.8-105.959 81.8-18.605 0-30.73-.747-41.249-3.003V262.932zm0 0"/></svg>