<svg class="icon" style="width:1em;height:1em;vertical-align:middle" viewBox="0 0 1024 1024" xmlns="http://www.w3.org/2000/svg" overflow="hidden"><path d="M512 32c206.187 0 373.333 167.147 373.333 373.333A372.053 372.053 0 01782.421 662.72L512 988.8 241.6 662.741a372.053 372.053 0 01-102.933-257.408C138.667 199.147 305.813 32 512 32zm0 746.667a373.547 373.547 0 01-103.061-14.4L512 888.533l103.083-124.288A373.547 373.547 0 01512 778.667zM512 96c-170.837 0-309.333 138.496-309.333 309.333S341.163 714.667 512 714.667 821.333 576.17 821.333 405.333 682.837 96 512 96zm74.667 128a138.667 138.667 0 110 277.333h-160V608h-64V224h224zm0 64h-160v149.333h160a74.667 74.667 0 000-149.333z"/></svg>