<svg class="icon" style="width:1em;height:1em;vertical-align:middle" viewBox="0 0 1024 1024" xmlns="http://www.w3.org/2000/svg" overflow="hidden"><path d="M382.059 520.064a225.824 225.824 0 00-66.816-22.059c73.6-16.277 128.906-82.048 128.928-160.501 0-90.667-73.707-164.47-164.384-164.501h-.064a164.48 164.48 0 00-35.595 325.045A225.547 225.547 0 00177.611 520c-30.816 15.733-58.4 38.144-81.995 66.624-47.69 57.6-73.973 133.792-73.995 214.656a26.667 26.667 0 0026.667 26.667 26.667 26.667 0 0026.667-26.667c0-139.424 91.914-252.8 204.8-252.8h.064c53.738 0 104.533 25.696 143.093 72.277 39.744 48 61.621 112.224 61.59 180.704a26.667 26.667 0 0026.666 26.667 26.667 26.667 0 0026.667-26.667c0-80.874-26.187-157.13-73.824-214.72-23.574-28.48-51.147-50.922-81.952-66.677zm-213.44-182.667a111.232 111.232 0 01111.104-111.072 111.115 111.115 0 010 222.23 111.243 111.243 0 01-111.104-111.158zm690.41 93.899v-81.59a123.733 123.733 0 00-123.562-123.573H552.8a26.667 26.667 0 000 53.334h182.667a70.304 70.304 0 0170.229 70.229v81.579H563.371a26.667 26.667 0 000 53.333H857.6a91.573 91.573 0 0191.477 91.477v113.472h-91.733c-12.63-60.949-66.741-106.912-131.392-106.912A134.187 134.187 0 10857.6 742.891h118.112a26.667 26.667 0 0026.667-26.667V576.096c0-79.37-64.171-144.01-143.35-144.8zM725.92 797.675a80.853 80.853 0 1180.843-80.875 80.939 80.939 0 01-80.843 80.875z"/></svg>