<svg class="icon" style="width:1em;height:1em;vertical-align:middle" viewBox="0 0 1024 1024" xmlns="http://www.w3.org/2000/svg" overflow="hidden"><path d="M927.62 676.94l-39.96 12.45c1.11 8.67 2.37 17.04 2.37 26.01 0 8.79-1.32 17.37-2.7 25.8l40.29 12.63c9.48 2.76 17.43 9.12 22.08 17.73a36 36 0 012.37 28.17c-6.54 19.2-27.84 29.52-47.85 23.4l-40.8-12.69a204 204 0 01-31.41 42.21l24.9 32.88c5.88 7.74 8.34 17.61 6.81 27.24a35.58 35.58 0 01-15.3 23.61 38.91 38.91 0 01-52.98-8.04l-25.05-33.09a210 210 0 01-51.42 16.68v40.11c0 20.07-16.95 36.48-37.89 36.48-21.09 0-38.07-16.32-38.07-36.48v-40.11a210.78 210.78 0 01-51.48-16.68l-24.93 33.09a39.12 39.12 0 01-53.04 8.04 35.34 35.34 0 01-8.43-50.85l25.17-33.21a194.97 194.97 0 01-32.46-41.61l-39.93 12.48c-20.04 6.27-41.4-4.26-47.85-23.43a35.82 35.82 0 012.46-28.14 36.495 36.495 0 0121.87-17.82l40.02-12.39c-1.05-8.61-2.4-17.13-2.4-26.01 0-8.94 1.44-17.37 2.73-25.95l-40.38-12.51c-20.04-6.27-30.84-26.85-24.33-45.99 6.45-19.08 27.81-29.49 47.85-23.34l40.77 12.72a204.42 204.42 0 0131.5-42.3l-24.96-32.82a35.49 35.49 0 018.37-50.85 38.91 38.91 0 0153.07 8.07l24.99 33.06a211.32 211.32 0 0151.48-16.71V478.7c0-20.13 16.95-36.48 37.95-36.48s38.01 16.26 38.01 36.48v40.05a211.41 211.41 0 0151.42 16.68l24.99-33.09a39.15 39.15 0 0153.04-8.07c17.01 11.85 20.73 34.59 8.43 50.91l-25.2 33.12c12.48 12.63 23.79 26.34 32.52 41.58l39.93-12.39c20.01-6.15 41.31 4.32 47.85 23.43 6.6 19.2-4.38 39.78-24.42 46.02zm-246.51-89.01c-73.35 0-133.02 57.12-133.02 127.5 0 70.44 59.64 127.47 133.02 127.47 73.47 0 132.93-57.03 132.93-127.47-.03-70.35-59.46-127.5-132.93-127.5z"/><path d="M781.97 684.5h-17.91l-.18.18a18.78 18.78 0 019.75 16.59l.42 66.12H588.32v-66.12a18.9 18.9 0 019.87-16.41h-18.03a9.66 9.66 0 01-9.78-9.54v-9.48c0-5.28 4.38-9.54 9.78-9.54h9.75v19.05h8.28v-40.74c0-10.5 8.7-19.08 19.53-19.08h127.14c10.83 0 19.59 8.58 19.59 19.08l-.36 40.41h8.13V656h9.72c5.46 0 9.81 4.29 9.81 9.54v9.45a9.6 9.6 0 01-9.78 9.51zm-134.91 73.95h68.49v-9.51h-68.49v9.51zm0-19.02h68.49v-9.57h-68.49v9.57zm0-19.11h68.49v-9.51h-68.49v9.51zm-39.12 28.59a9.6 9.6 0 009.78 9.51h9.72a9.69 9.69 0 009.81-9.51 9.6 9.6 0 00-9.81-9.48h-9.72a9.57 9.57 0 00-9.78 9.48zm136.95-104.82a9.66 9.66 0 00-9.78-9.54H627.47a9.66 9.66 0 00-9.72 9.54v47.61h127.14v-47.61zm0 95.34h-9.78a9.6 9.6 0 00-9.78 9.48c0 5.25 4.38 9.51 9.78 9.51h9.78a9.69 9.69 0 009.81-9.51 9.63 9.63 0 00-9.81-9.48zm29.34 37.47a9.66 9.66 0 01-9.75 9.51H598.19a9.72 9.72 0 01-9.87-9.51v-9.51h185.91v9.51zm-136.95 28.83a9.69 9.69 0 01-9.81 9.57h-9.72a9.63 9.63 0 01-9.78-9.57v-19.05h29.34v19.05h-.03zm117.42 0a9.69 9.69 0 01-9.81 9.57h-9.78a9.69 9.69 0 01-9.78-9.57v-19.05h29.37v19.05zM650.48 121.22h67.77c30.84 0 57.06 25.17 57.06 56.07v288.99h37.32V177.29c0-51.57-42.87-93.45-94.38-93.45h-67.77a18.69 18.69 0 100 37.38m-25.05 71.94h-71.82V102.2a66.72 66.72 0 00-66.72-66.78H396.8a66.75 66.75 0 00-66.75 66.78v90.93h-71.73c-23.19 0-43.92 18.69-43.92 41.88s20.7 43.89 43.92 43.89h367.11c23.04 0 43.89-20.7 43.89-43.89s-20.67-41.85-43.89-41.85zm-183.54-31.74a44.31 44.31 0 01-44.22-44.22c0-24.39 19.86-44.25 44.22-44.25s44.22 19.86 44.22 44.25c0 24.36-19.89 44.22-44.22 44.22z"/><path d="M107.39 804.71V181.34c0-31.02 27.21-60.12 58.11-60.12h68.4a18.69 18.69 0 100-37.41h-68.4c-51.57 0-95.49 45.96-95.49 97.5V804.5a93.54 93.54 0 0093.42 93.51h326.1v-37.26h-326.1a56.19 56.19 0 01-56.04-56.04"/><path d="M681.11 401.78a40.5 40.5 0 01-40.47 40.44H254.81a40.44 40.44 0 110-80.88h385.83a40.5 40.5 0 0140.47 40.44z"/></svg>