<svg class="icon" style="width:1em;height:1em;vertical-align:middle" viewBox="0 0 1024 1024" xmlns="http://www.w3.org/2000/svg" overflow="hidden"><path d="M959.382 213.313c0-82.42-66.816-149.237-149.237-149.237h-596.92c-82.42 0-149.236 66.816-149.236 149.237v596.92c0 82.42 66.816 149.236 149.237 149.236h596.919c82.421 0 149.237-66.815 149.237-149.237V213.313zM884.68 784.04c0 56.197-45.556 101.753-101.752 101.753H239.419c-56.196 0-101.752-45.556-101.752-101.753V240.53c0-56.197 45.556-101.753 101.752-101.753h543.51c56.196 0 101.752 45.556 101.752 101.753v543.51zM592.384 401.935c0-76.622-63.087-138.736-140.912-138.736-3.543 0-7.017.267-10.5.523H316.495v.262h-63.689v508.588h71.491V540.229h116.172c5.455.627 5.384.445 11.005.445 77.823 0 140.911-62.108 140.911-138.739zM440.467 468.74H324.295V334.69h116.172c33.957 1.592 65.085 32.638 65.085 66.463s-31.128 65.978-65.085 67.585zm325.868 178.62c-2.269-4.521-8.481-9.67-8.481-9.67l-25.64-68.644c-5.323-13.002-20.988-19.862-27.822-19.862H569.737c-6.842 0-22.497 6.86-27.821 19.862l-25.647 68.645s-6.205 5.148-8.482 9.67c-2.28 4.501-4.756 8.525-4.756 38.956 0 29.688 5.95 40.239 13.07 43.896l5.63 3.176v27.559c0 8.936 2.121 11.59 10.604 11.59h19.041c8.482 0 14.199.035 14.199-8.9v-26.81h142.98v26.81c0 8.935 5.716 8.9 14.198 8.9h19.042c8.482 0 10.603-2.654 10.603-11.59v-27.559l5.629-3.176c7.121-3.656 13.073-14.208 13.073-43.896 0-30.43-2.478-34.454-4.765-38.956zm-226.521-14.4c1.196-4.362 9.188-38.52 12.73-50.353 1.451-4.083 10.929-16.266 21.967-15.568H699.62c11.039-.698 20.517 11.485 21.947 15.568 3.562 11.834 11.537 45.99 12.75 50.354 1.423 5.184-3.272 4.73-3.272 4.73H543.087s-4.705.455-3.273-4.73zm13.36 67.668c-9.128 0-16.546-7.626-16.546-16.963 0-9.356 7.418-16.966 16.546-16.966 9.11 0 16.529 7.61 16.529 16.966 0 9.337-7.418 16.963-16.529 16.963zm110.7 9.39h-53.617v-8.935h53.618v8.936zm0-17.872h-53.617v-8.936h53.618v8.936zm0-17.873h-53.617v-8.935h53.618v8.935zm57.71 26.355c-9.12 0-16.546-7.626-16.546-16.963 0-9.356 7.426-16.966 16.547-16.966 9.11 0 16.535 7.61 16.535 16.966.002 9.337-7.424 16.963-16.535 16.963z"/></svg>