<svg class="icon" style="width:1em;height:1em;vertical-align:middle" viewBox="0 0 1024 1024" xmlns="http://www.w3.org/2000/svg" overflow="hidden"><path d="M512 980.764c-63.26 0-124.7-12.401-182.5-36.864-55.864-23.665-105.927-57.457-149.048-100.465-43.008-43.008-76.8-93.184-100.466-149.05C55.637 636.7 43.236 575.26 43.236 512S55.637 387.3 80.1 329.5c23.665-55.864 57.457-105.927 100.465-149.048 43.008-43.008 93.184-76.8 149.05-100.466C387.3 55.637 448.74 43.236 512 43.236c86.244 0 170.667 23.665 243.94 68.38 13.425 8.192 17.635 25.714 9.443 39.14-8.192 13.425-25.714 17.635-39.14 9.443C661.96 120.832 587.777 100.124 512 100.124 284.9 100.124 100.124 284.9 100.124 512S284.9 923.876 512 923.876 923.876 739.1 923.876 512c0-13.198-.683-26.51-1.935-39.595-1.479-15.587 10.013-29.582 25.6-31.061 15.588-1.48 29.583 10.012 31.062 25.6 1.365 14.905 2.161 30.037 2.161 45.056 0 63.26-12.401 124.7-36.864 182.5-23.665 55.864-57.457 105.927-100.465 149.048-43.008 43.008-93.184 76.8-149.05 100.466C636.7 968.363 575.26 980.764 512 980.764z"/><path d="M721.806 512.569H507.79c-15.701 0-28.444 12.857-28.444 28.444s12.743 28.445 28.444 28.445h214.016c15.702 0 28.445-12.857 28.445-28.445s-12.743-28.444-28.445-28.444z"/><path d="M507.79 285.582c-15.701 0-28.444 12.857-28.444 28.445v226.986c0 15.702 12.857 28.445 28.444 28.445s28.445-12.857 28.445-28.445V314.027c0-15.588-12.743-28.445-28.445-28.445zm406.642-61.554L866.19 67.356c-8.192-26.624-43.122-32.768-59.847-10.58l-115.712 153.03c-16.839 22.187-1.365 54.045 26.51 54.727l163.954 3.641c23.21.57 40.164-21.845 33.337-44.146zM509.724 837.746c-15.7 0-28.444 12.857-28.444 28.444v13.085c0 15.701 12.857 28.444 28.444 28.444s28.445-12.857 28.445-28.444V866.19c0-15.701-12.743-28.444-28.445-28.444zm-1.137-717.938c-15.702 0-28.445 12.857-28.445 28.444v13.085c0 15.701 12.857 28.444 28.445 28.444s28.444-12.857 28.444-28.444v-13.085c0-15.7-12.743-28.444-28.444-28.444zM163.044 515.982h-13.085c-15.701 0-28.444 12.857-28.444 28.445s12.857 28.444 28.444 28.444h13.085c15.7 0 28.444-12.857 28.444-28.444s-12.857-28.445-28.444-28.445zm708.835 0h-14.222c-15.701 0-28.445 12.857-28.445 28.445s12.857 28.444 28.445 28.444h14.222c15.701 0 28.445-12.857 28.445-28.444s-12.857-28.445-28.445-28.445z"/></svg>