<svg class="icon" style="width:1em;height:1em;vertical-align:middle" viewBox="0 0 1024 1024" xmlns="http://www.w3.org/2000/svg" overflow="hidden"><path d="M996.693 451.47L963.015 95.8c-1.707-18.431-16.384-32.995-34.816-34.815L572.53 27.307h-.454c-3.641 0-6.486 1.137-8.647 3.3L30.606 563.426a11.33 11.33 0 000 16.043L444.53 993.394c2.162 2.162 5.006 3.3 8.078 3.3s5.916-1.138 8.078-3.3l532.822-532.822c2.275-2.389 3.413-5.688 3.185-9.102zM452.494 879.16L144.84 571.507l454.77-454.77 281.03 26.623 26.624 281.031-454.77 454.77z"/><path d="M703.147 220.729c-55.183 0-100.125 44.942-100.125 100.124s44.942 100.125 100.125 100.125S803.27 376.036 803.27 320.853 758.33 220.73 703.147 220.73zm0 136.533c-20.139 0-36.41-16.27-36.41-36.409s16.271-36.409 36.41-36.409 36.409 16.27 36.409 36.41-16.27 36.408-36.41 36.408z"/></svg>