<svg class="icon" style="width:1em;height:1em;vertical-align:middle" viewBox="0 0 1024 1024" xmlns="http://www.w3.org/2000/svg" overflow="hidden"><path d="M911.53 198.315H111.31c-47.275 0-85.709 35.532-85.709 79.223v475.273c0 43.69 38.434 79.223 85.709 79.223H911.53c47.24 0 85.708-35.533 85.708-79.223V277.538c0-43.69-38.536-79.223-85.708-79.223zM82.774 752.81V287.676L335.19 520.875h-.273L82.74 753.903v-1.092h.034zm41.268-501.658h774.724L511.454 609.075 124.04 251.153zm251.357 306.961l135.988 125.68 136.635-126.26 240.026 221.764H136.124l239.274-221.184zm313.925-37.24h-1.639L940.1 287.677v464.93L689.323 520.875zm0 0"/></svg>