<svg class="icon" style="width:1em;height:1em;vertical-align:middle" viewBox="0 0 1024 1024" xmlns="http://www.w3.org/2000/svg" overflow="hidden"><path d="M512 32C246.4 32 32 246.4 32 512s214.4 480 480 480 480-214.4 480-480S777.6 32 512 32zm0 65.6c228.8 0 414.4 185.6 414.4 414.4 0 81.6-24 158.4-65.6 222.4-68.8-73.6-160-124.8-264-142.4 65.6-32 112-99.2 112-176 0-108.799-88-196.8-196.8-196.8S315.2 307.202 315.2 416c0 78.401 44.801 145.601 112.001 176-104 19.2-195.2 70.4-264 144-41.6-64-65.6-140.8-65.6-224 0-228.799 185.6-414.4 414.4-414.4z"/></svg>