<svg class="icon" style="width:1em;height:1em;vertical-align:middle" viewBox="0 0 1024 1024" xmlns="http://www.w3.org/2000/svg" overflow="hidden"><path d="M927.147 115.093v486.614c0 29.226-6.934 58.24-20.8 87.04-13.867 28.906-32 56.853-54.4 84.053-22.4 27.093-48 52.8-76.8 77.013-28.8 24.214-58.027 45.867-87.574 64.747-29.653 18.987-58.453 34.773-86.293 47.253-27.947 12.587-52.48 21.12-73.493 25.814l-9.92 1.706-9.174-1.706c-21.546-4.694-46.613-13.334-75.093-25.814-28.48-12.586-58.133-28.266-88.853-47.253-30.72-18.88-60.907-40.533-90.454-64.747-29.546-24.213-56-49.92-79.253-77.013-23.253-27.2-42.027-55.04-56.427-84.053-14.4-28.8-21.653-57.92-21.653-87.04V115.093l34.027-5.226L512.853 34.56l389.334 75.307 24.96 5.226zM512.96 105.067l-4.587-.96-327.786 58.773v306.987H512.96v-364.8zm330.453 364.8H512.96V906.88c21.227-5.12 44.373-13.013 69.333-23.573s49.6-23.04 73.92-37.547c24.32-14.4 47.787-30.507 70.294-48.107s42.453-36.586 59.84-56.853c17.386-20.16 31.146-41.173 41.493-63.04 10.347-21.76 15.573-43.947 15.573-66.453v-141.44z"/></svg>