<svg class="icon" style="width:1em;height:1em;vertical-align:middle" viewBox="0 0 1024 1024" xmlns="http://www.w3.org/2000/svg" overflow="hidden"><path d="M772.655 934.012H276.17a62.11 62.11 0 01-62.06-62.06V766.945h620.605v105.007c0 34.232-27.828 62.06-62.06 62.06M276.17 89.988h496.485c34.232 0 62.06 27.828 62.06 62.06v540.424H214.11V152.048c0-34.232 27.828-62.06 62.06-62.06m496.486-74.473H276.17a136.707 136.707 0 00-136.534 136.533v719.904c0 75.267 61.267 136.533 136.534 136.533h496.485c75.267 0 136.533-61.266 136.533-136.533V152.048c0-75.267-61.266-136.533-136.533-136.533M524.412 797.48a49.648 49.648 0 10.025 99.322 49.648 49.648 0 00-.025-99.322"/></svg>