<svg class="icon" style="width:1em;height:1em;vertical-align:middle" viewBox="0 0 1024 1024" xmlns="http://www.w3.org/2000/svg" overflow="hidden"><path d="M318.5 243.5C302 227 278 227 263 243.5L50 464c-24 28.5-24 67.5 0 91.5L261.5 776c7.5 7.5 19.5 12 28.5 12s19.5-4.5 28.5-12c16.5-16.5 16.5-40.5 0-55.5L114.5 512l204-211.5c16.5-16.5 16.5-40.5 0-57zM971 464L758 243.5c-16.5-16.5-40.5-16.5-55.5 0s-16.5 40.5 0 55.5l204 213-204 211.5C686 740 686 764 702.5 779c7.5 7.5 16.5 12 28.5 12s19.5-4.5 28.5-12L971 558.5c27-27 27-66 0-94.5zM606.5 248c-19.5-7.5-43.5 4.5-52.5 24L390.5 728c-7.5 19.5 4.5 43.5 24 52.5 4.5 0 7.5 4.5 12 4.5 16.5 0 31.5-12 36-28.5l168-460.5c7.5-19.5-4.5-43.5-24-48z"/></svg>