<svg class="icon" style="width:1em;height:1em;vertical-align:middle" viewBox="0 0 1024 1024" xmlns="http://www.w3.org/2000/svg" overflow="hidden"><path d="M882.689 621.31a201.68 201.68 0 1059.294 143.194 201.68 201.68 0 00-59.294-143.193zM684.235 742.32a18.958 18.958 0 013.227-4.034l113.345-105.278a25.412 25.412 0 0135.495 0l15.328 15.328a25.412 25.412 0 010 35.9L738.286 789.512c-2.42 2.42 0 2.016-5.648 3.226l-66.554 28.236a9.277 9.277 0 01-10.488-10.488zM840.74 889.95H639.06a25.412 25.412 0 110-50.42h201.68a25.412 25.412 0 110 50.42zM512 510.387c129.48 0 259.766-183.53 176.27-371.093a184.336 184.336 0 00-161.345-106.89c-149.647-6.051-217.412 84.302-217.412 228.302S408.74 510.386 512 510.386z"/><path d="M486.588 764.1a251.294 251.294 0 0157.277-161.344 25.412 25.412 0 00-18.15-40.336h-14.119c-237.176-.403-429.58 219.429-429.58 302.925S274.42 992 512 992h37.109a25.412 25.412 0 0016.941-43.563 252.908 252.908 0 01-79.462-184.336z"/></svg>