<svg class="icon" style="width:1em;height:1em;vertical-align:middle" viewBox="0 0 1024 1024" xmlns="http://www.w3.org/2000/svg" overflow="hidden"><path d="M904.533 162.133h-179.2V93.867c0-4.694-3.84-8.534-8.533-8.534h-59.733c-4.694 0-8.534 3.84-8.534 8.534v68.266H375.467V93.867c0-4.694-3.84-8.534-8.534-8.534H307.2c-4.693 0-8.533 3.84-8.533 8.534v68.266h-179.2c-18.88 0-34.134 15.254-34.134 34.134v708.266c0 18.88 15.254 34.134 34.134 34.134h785.066c18.88 0 34.134-15.254 34.134-34.134V196.267c0-18.88-15.254-34.134-34.134-34.134zm-42.666 699.734H162.133V238.933h136.534v51.2c0 4.694 3.84 8.534 8.533 8.534h59.733c4.694 0 8.534-3.84 8.534-8.534v-51.2h273.066v51.2c0 4.694 3.84 8.534 8.534 8.534H716.8c4.693 0 8.533-3.84 8.533-8.534v-51.2h136.534v622.934z"/><path d="M699.733 413.867h-58.88c-5.44 0-10.666 2.666-13.866 7.04L466.027 642.56l-69.014-94.933a17.177 17.177 0 00-13.866-7.04h-58.88c-6.934 0-10.987 7.893-6.934 13.546l134.827 185.6c6.827 9.387 20.907 9.387 27.733 0L706.667 427.52c4.053-5.76 0-13.653-6.934-13.653z"/></svg>