<svg class="icon" style="width:1em;height:1em;vertical-align:middle" viewBox="0 0 1024 1024" xmlns="http://www.w3.org/2000/svg" overflow="hidden"><path d="M820.16 633.664c25.547 0 49.899 4.97 72.363 13.707V390.773l17.205 11.307c5.547 4.299 12.341 6.368 18.88 6.368 8.875 0 17.792-3.85 23.701-11.264 10.315-12.821 8.256-31.477-4.8-41.621L566.176 58.656c-32.81-25.61-84.32-25.579-117.12 0L67.744 355.552c-13.035 10.144-15.264 28.821-4.96 41.621 10.283 12.843 28.79 15.03 41.813 4.896l18.923-11.306v484.8c0 50.89 47.392 83.594 95.275 83.594h445.802c-27.733-34.325-44.405-77.962-44.405-125.525-.01-110.432 89.525-199.968 199.968-199.968zM543.445 892.299H342.837V641.536c0-34.485 38.262-83.584 100.299-83.584 62.037 0 100.31 49.12 100.31 83.584v250.763z"/><path d="M945.696 834.005c0-15.2 10.741-27.893 25.045-30.901a152.621 152.621 0 00-18.101-47.285 31.423 31.423 0 01-17.472 5.269c-17.44 0-31.584-14.144-31.584-31.584a31.41 31.41 0 017.136-19.99c-17.29-12.64-37.312-21.749-59.03-26.282-2.474 14.976-15.477 26.39-31.157 26.39-15.722 0-28.768-11.5-31.178-26.55-21.803 4.437-41.92 13.483-59.296 26.08a31.474 31.474 0 017.424 20.341c0 17.44-14.134 31.584-31.584 31.584a31.427 31.427 0 01-18.038-5.653 152.555 152.555 0 00-18.293 47.51c14.677 2.72 25.792 15.583 25.792 31.05 0 15.413-11.04 28.245-25.643 31.019a152.638 152.638 0 0020.918 51.264 31.53 31.53 0 0115.253-3.926c17.44 0 31.584 14.134 31.584 31.584a31.41 31.41 0 01-4.47 16.203 152.857 152.857 0 0056.609 24.053c3.008-14.304 15.701-25.045 30.901-25.045 15.147 0 27.808 10.656 30.87 24.885 20.618-4.256 39.722-12.65 56.415-24.277a31.403 31.403 0 01-4.245-15.819c0-17.44 14.144-31.584 31.584-31.584a31.44 31.44 0 0114.677 3.606 152.679 152.679 0 0020.747-51.115c-14.208-3.03-24.864-15.68-24.864-30.827zm-125.163 51.851c-28.64 0-51.861-23.221-51.861-51.861 0-28.64 23.221-51.862 51.861-51.862 28.64 0 51.862 23.222 51.862 51.862-.011 28.65-23.222 51.861-51.862 51.861z"/></svg>