<svg class="icon" style="width:1em;height:1em;vertical-align:middle" viewBox="0 0 1024 1024" xmlns="http://www.w3.org/2000/svg" overflow="hidden"><path d="M639.514 218.056a36.923 36.923 0 0165.501-19.81 614.26 614.26 0 0042.314-17.317 403.939 403.939 0 00-198.406-73.42v125.297a608.068 608.068 0 0090.591-14.77zm142.855 257.02h134.123a404.677 404.677 0 00-108.683-241.401 679.366 679.366 0 01-69.729 31.052 588.628 588.628 0 0144.29 210.35zm-73.883 0a514.579 514.579 0 00-41.077-187.882 683.128 683.128 0 01-118.486 19.698v168.185h159.563zm-97.163 430.857c164.751-41.41 289.532-183.472 305.169-357.01H779.638a588.775 588.775 0 01-168.314 357.01zm94.043-357.01H548.923v314.769a515.114 515.114 0 00156.443-314.769zM475.076 308.61c-58.707-1.753-116.307-10.948-171.82-27.212a36.923 36.923 0 1120.787-70.874 608.197 608.197 0 00151.034 24.203V107.507c-194.843 17.54-350.03 172.728-367.569 367.57h367.569V308.61zm0 607.883V548.923H107.509c17.538 194.843 172.725 350.031 367.569 367.569zM512 992C246.892 992 32 777.108 32 512S246.892 32 512 32s480 214.892 480 480-214.892 480-480 480z"/></svg>