<svg class="icon" style="width:1em;height:1em;vertical-align:middle" viewBox="0 0 1024 1024" xmlns="http://www.w3.org/2000/svg" overflow="hidden"><path d="M938.16 877.381h-42.987V344.107a40.167 40.167 0 00-20.083-35.234l-218.276-127.02a40.343 40.343 0 00-60.604 35.235v660.293h-45.805V111.914a40.167 40.167 0 00-17.617-33.65 39.638 39.638 0 00-38.405-3.347l-341.246 146.4a40.52 40.52 0 00-24.487 37.172V877.38H85.84a14.27 14.27 0 00-14.27 14.27v46.509a14.27 14.27 0 0014.27 14.27h852.32a14.27 14.27 0 0014.27-14.27V891.65a14.27 14.27 0 00-14.27-14.27zM707.552 326.14a14.27 14.27 0 0114.27-14.27h45.277a14.27 14.27 0 0114.27 14.27v44.923a14.27 14.27 0 01-14.27 14.27h-45.277a14.27 14.27 0 01-14.27-14.27zm0 114.159a14.27 14.27 0 0114.27-14.27h45.277a14.27 14.27 0 0114.27 14.27v45.452a14.27 14.27 0 01-14.27 14.27h-45.277a14.27 14.27 0 01-14.27-14.27zm0 114.336a14.27 14.27 0 0114.27-14.27h45.277a14.27 14.27 0 0114.27 14.27v45.452a14.27 14.27 0 01-14.27 14.27h-45.277a14.27 14.27 0 01-14.27-14.27zm0 114.16a14.27 14.27 0 0114.27-14.271h45.277a14.27 14.27 0 0114.27 14.27v45.276a14.27 14.27 0 01-14.27 14.27h-45.277a14.27 14.27 0 01-14.27-14.27zm0 114.159a14.27 14.27 0 0114.27-14.27h45.277a14.27 14.27 0 0114.27 14.27v46.156a14.27 14.27 0 01-14.27 14.27h-45.277a14.27 14.27 0 01-14.27-14.27zm-336.49-570.445a14.446 14.446 0 0114.27-14.446h45.453a14.446 14.446 0 0114.27 14.446v45.275a14.27 14.27 0 01-14.27 14.27H384.98a14.27 14.27 0 01-14.27-14.27zm0 114.159a14.27 14.27 0 0114.27-14.27h45.453a14.27 14.27 0 0114.27 14.27v44.395a14.27 14.27 0 01-14.27 14.27H384.98a14.27 14.27 0 01-13.918-14.27zm0 114.16a14.27 14.27 0 0114.27-14.27h45.453a14.27 14.27 0 0114.27 14.27v45.451a14.446 14.446 0 01-14.27 14.271H384.98a14.446 14.446 0 01-14.27-14.27zm0 114.336a14.27 14.27 0 0114.27-14.271h45.453a14.27 14.27 0 0114.27 14.27v44.924a14.27 14.27 0 01-14.27 14.27H384.98a14.27 14.27 0 01-13.918-14.27zm0 114.159a14.27 14.27 0 0114.27-14.27h45.453a14.27 14.27 0 0114.27 14.27v45.275a14.27 14.27 0 01-14.27 14.271H384.98a14.27 14.27 0 01-14.27-14.27zm0 114.16a14.446 14.446 0 0114.27-14.271h45.453a14.446 14.446 0 0114.27 14.27v45.628a14.446 14.446 0 01-14.27 14.27H384.98a14.446 14.446 0 01-13.918-14.27zm-137.59-457.344a14.094 14.094 0 0114.094-14.27h45.453a14.27 14.27 0 0114.27 14.27v44.924a14.27 14.27 0 01-14.27 14.27h-45.277a14.094 14.094 0 01-14.094-14.27zm0 114.16a14.094 14.094 0 0114.094-14.27h45.453a14.27 14.27 0 0114.27 14.27v45.452a14.27 14.27 0 01-14.27 14.27h-45.277a14.27 14.27 0 01-14.094-14.27zm0 114.336a14.094 14.094 0 0114.094-14.27h45.453a14.27 14.27 0 0114.27 14.27v45.452a14.27 14.27 0 01-14.27 14.27h-45.277a14.094 14.094 0 01-14.094-14.27zm0 114.16a14.094 14.094 0 0114.094-14.271h45.453a14.27 14.27 0 0114.27 14.27v45.276a14.27 14.27 0 01-14.27 14.27h-45.277a14.094 14.094 0 01-14.094-14.27zm0 114.159a14.27 14.27 0 0114.094-14.27h45.453a14.27 14.27 0 0114.27 14.27v46.156a14.27 14.27 0 01-14.27 14.27h-45.277a14.27 14.27 0 01-14.094-14.27zm0 0"/></svg>