<svg class="icon" style="width:1em;height:1em;vertical-align:middle" viewBox="0 0 1024 1024" xmlns="http://www.w3.org/2000/svg" overflow="hidden"><path d="M750.4 988.8H273.6c-131.413 0-238.4-106.987-238.4-238.4V273.6c0-131.413 106.987-238.4 238.4-238.4h476.8c131.413 0 238.4 106.987 238.4 238.4v476.8c0 131.413-106.987 238.4-238.4 238.4zM273.6 121.92c-83.627 0-151.68 68.053-151.68 151.68v476.8c0 83.627 68.053 151.68 151.68 151.68h476.8c83.627 0 151.68-68.053 151.68-151.68V273.6c0-83.627-68.053-151.68-151.68-151.68H273.6z"/><path d="M777.813 808.853H246.187c-23.894 0-43.307-19.413-43.307-43.306s19.413-43.307 43.307-43.307h531.52c23.893 0 43.306 19.413 43.306 43.307s-19.306 43.306-43.2 43.306z"/><path d="M578.667 765.44h134.186V391.253c0-33.28-20.586-60.266-46.08-60.266h-63.04a25.539 25.539 0 00-25.6 25.6v124.906M495.467 233.92h-152c-35.627 0-64.427 28.8-64.427 64.427V765.44h280.853V298.347c0-35.52-28.8-64.427-64.426-64.427zM379.947 672c0 8.64-7.04 15.68-15.68 15.68H325.44c-8.64 0-15.68-7.04-15.68-15.68v-38.827c0-8.64 7.04-15.68 15.68-15.68h38.827c8.64 0 15.68 7.04 15.68 15.68V672zm0-114.56c0 8.64-7.04 15.68-15.68 15.68H325.44c-8.64 0-15.68-7.04-15.68-15.68v-38.827c0-8.64 7.04-15.68 15.68-15.68h38.827c8.64 0 15.68 7.04 15.68 15.68v38.827zm0-114.56c0 8.64-7.04 15.68-15.68 15.68H325.44c-8.64 0-15.68-7.04-15.68-15.68v-38.827c0-8.64 7.04-15.68 15.68-15.68h38.827c8.64 0 15.68 7.04 15.68 15.68v38.827zm0-114.56c0 8.64-7.04 15.68-15.68 15.68H325.44c-8.64 0-15.68-7.04-15.68-15.68v-38.827c0-8.64 7.04-15.68 15.68-15.68h38.827c8.64 0 15.68 7.04 15.68 15.68v38.827z"/></svg>