<svg class="icon" style="width:1em;height:1em;vertical-align:middle" viewBox="0 0 1024 1024" xmlns="http://www.w3.org/2000/svg" overflow="hidden"><path d="M420.986 623.977a40.004 40.004 0 0039.935-40.003v-95.912h95.981a40.004 40.004 0 100-80.006h-95.98v-95.981a40.004 40.004 0 00-79.939 0v95.98h-95.98a40.004 40.004 0 000 80.007h95.98v95.912a39.96 39.96 0 0039.936 40.004zm-6.876 322.63v-2.73L243.24 827.09C155.248 760.334 89.035 621.702 81.18 489.693q-1.23-21.752-1.161-43.548V199.462l5.938.615a342.726 342.726 0 00156.26-22.048c48.127-17.88 82.123-46.347 109.701-69.144a273.905 273.905 0 0122.87-18.634 51 51 0 0133.108-9.147 77.926 77.926 0 007.988 0 50.725 50.725 0 0132.63 8.873 260.976 260.976 0 0123.346 18.907c27.58 22.8 61.575 51.26 109.089 68.872a380.343 380.343 0 00165.677 22.39l5.187-.547v206.453h.751a40.003 40.003 0 1079.187 7.986V192.16a74.257 74.257 0 00-7.987-35.084 71.953 71.953 0 00-74.204-37.541l-10.92 1.501a268.787 268.787 0 01-122.813-17.475c-36.18-13.447-63.556-36.313-87.994-56.45-9.694-7.986-18.91-15.972-28.535-22.8A131.421 131.421 0 00415.882.22a132.445 132.445 0 00-83.97 24.023c-9.285 6.689-18.433 14.334-28.195 22.525-23.76 20.477-51.608 43.343-87.788 57.405A267.357 267.357 0 0194.422 121.65l-11.605-1.638a71.953 71.953 0 00-74.819 36.996 75.888 75.888 0 00-7.987 35.22v254.53c0 16.45.48 32.83 1.366 47.984 7.92 130.235 70.79 303.883 194.35 397.122l170.732 116.726 4.164 2.798a40.006 40.006 0 0035.02 11.945 81.928 81.928 0 0011.81 0v-3.96a39.997 39.997 0 00-3.14-73.171l-.205.48zm604.25-236.182a59.067 59.067 0 00-42.959-48.584 76.71 76.71 0 01-28.127-15.086v-4.603a47.049 47.049 0 012.04-30.683 59.322 59.322 0 00-25.562-62.647l-76.71-43.725c-17.133-5.88-48.84-7.416-61.88 12.53a96.142 96.142 0 01-27.105 19.435 89.752 89.752 0 01-27.104-19.44 67.25 67.25 0 00-68.528-12.273l-81.824 43.725a70.32 70.32 0 00-25.57 61.113V613a45 45 0 011.534 29.15 188.462 188.462 0 01-29.406 19.69 68.783 68.783 0 00-42.702 48.07 153.42 153.42 0 00-5.88 51.14 153.42 153.42 0 005.625 51.14 59.578 59.578 0 0042.96 48.84 76.708 76.708 0 0127.101 15.09v2.302l2.302 2.301a47.049 47.049 0 01-2.04 30.684 59.834 59.834 0 0025.57 62.648l74.665 42.445a32.986 32.986 0 0025.57 7.16 67.762 67.762 0 0043.214-18.41 90.775 90.775 0 0125.57-19.434 87.704 87.704 0 0127.36 19.433 56.765 56.765 0 0043.207 18.407 48.584 48.584 0 0025.57-6.392l76.71-43.47a71.085 71.085 0 0025.57-61.113v-2.812a45 45 0 01-.255-29.917 188.438 188.438 0 0129.406-19.686 70.062 70.062 0 0043.214-51.14s0-5.626 1.278-8.95a252.639 252.639 0 002.812-39.12 240.597 240.597 0 00-5.625-50.628zM889.233 914.987l-64.44 39.634a122.481 122.481 0 00-68.017-34.009 119.41 119.41 0 00-63.925 27.36l-6.137 4.092-67.505-38.611a125.548 125.548 0 00-7.416-76.71 114.299 114.299 0 00-51.14-38.355l-8.694-4.347-4.859-5.114a160.833 160.833 0 00-3.84-25.57 59.046 59.046 0 01-1.534-8.183 129.637 129.637 0 014.356-32.474c14.063-6.137 55.231-25.57 64.948-51.14a118.9 118.9 0 007.159-74.92l66.227-32.986a123.76 123.76 0 0066.227 30.94 118.647 118.647 0 0063.67-27.36l2.302-1.79 3.84-2.557 62.641 38.614a119.668 119.668 0 007.16 75.177 114.554 114.554 0 0051.14 38.1l8.95 4.603 5.114 5.37a29.51 29.51 0 001.79 11.25 141.401 141.401 0 013.324 23.27 145.22 145.22 0 01-3.324 23.268v8.439a102.28 102.28 0 00-61.11 47.298 119.158 119.158 0 00-6.904 75.177zm1.535 0zm-139.36-264.395a110.463 110.463 0 10110.207 110.463 110.463 110.463 0 00-110.206-110.463zm0 157a46.538 46.538 0 1146.283-46.537 46.538 46.538 0 01-46.282 46.538zM578.996 229.975h17v3h-17z"/></svg>