<svg class="icon" style="width:1em;height:1em;vertical-align:middle" viewBox="0 0 1024 1024" xmlns="http://www.w3.org/2000/svg" overflow="hidden"><path d="M197.833 99.5c-6.674 0-12.083 5.037-12.083 11.25v802.5c0 6.213 5.41 11.25 12.083 11.25h628.333c6.673 0 12.083-5.037 12.083-11.25v-802.5c0-6.213-5.41-11.25-12.083-11.25H197.834zm3.94-67.5h620.454c46.129 0 83.523 35.257 83.523 78.75v802.5c0 43.492-37.394 78.75-83.522 78.75H201.772c-46.127 0-83.522-35.258-83.522-78.75v-802.5c0-43.492 37.394-78.75 83.522-78.75zm90.852 176.25v607.5h438.75v-607.5h-438.75zm-23.055-67.5h484.86c24.547 0 44.445 18.283 44.445 40.838v660.825c0 22.554-19.898 40.837-44.445 40.837H269.57c-24.547 0-44.445-18.283-44.445-40.837V181.587c0-22.554 19.898-40.837 44.445-40.837zM658.25 444.5c18.64 0 33.75 15.11 33.75 33.75v67.5c0 18.64-15.11 33.75-33.75 33.75s-33.75-15.11-33.75-33.75v-67.5c0-18.64 15.11-33.75 33.75-33.75z"/></svg>