<svg class="icon" style="width:1em;height:1em;vertical-align:middle" viewBox="0 0 1024 1024" xmlns="http://www.w3.org/2000/svg" overflow="hidden"><path d="M960.766 896.883h-45.33V335.271a42.43 42.43 0 00-21.063-36.657L664.276 164.48a42.425 42.425 0 00-42.508-.135 42.434 42.434 0 00-21.293 36.791v695.75h-48.258V90.818a42.432 42.432 0 00-59.161-38.992L133.474 206.12a42.43 42.43 0 00-25.7 38.993v651.771H62.607c-8.303 0-15.035 6.732-15.035 15.034v48.901c0 8.303 6.732 15.034 15.035 15.034h898.16c8.302 0 15.033-6.731 15.033-15.034v-48.901c0-8.303-6.731-15.035-15.034-15.035zm-243.08-580.477c0-8.303 6.731-15.035 15.035-15.035h47.761c8.303 0 15.035 6.732 15.035 15.035v47.762c0 8.303-6.732 15.035-15.035 15.035h-47.76c-8.304 0-15.034-6.732-15.034-15.035v-47.762zm0 120.262c0-8.303 6.731-15.034 15.035-15.034h47.761c8.303 0 15.035 6.731 15.035 15.034v47.763c0 8.304-6.732 15.035-15.035 15.035h-47.76c-8.304 0-15.034-6.731-15.034-15.035v-47.763zm0 120.261c0-8.302 6.731-15.033 15.035-15.033h47.761c8.303 0 15.035 6.731 15.035 15.033v47.765c0 8.302-6.732 15.033-15.035 15.033h-47.76c-8.304 0-15.034-6.731-15.034-15.033v-47.765zm0 120.263c0-8.303 6.731-15.034 15.035-15.034h47.761c8.303 0 15.035 6.731 15.035 15.034v47.764c0 8.302-6.732 15.033-15.035 15.033h-47.76c-8.304 0-15.034-6.731-15.034-15.033v-47.764zm0 120.262c0-8.302 6.731-15.034 15.035-15.034h47.761c8.303 0 15.035 6.732 15.035 15.034v47.764c0 8.302-6.732 15.034-15.035 15.034h-47.76c-8.304 0-15.034-6.732-15.034-15.034v-47.764zM362.88 196.144c0-8.303 6.732-15.035 15.035-15.035h47.762c8.303 0 15.035 6.732 15.035 15.035v47.762c0 8.303-6.732 15.034-15.035 15.034h-47.762c-8.303 0-15.035-6.731-15.035-15.034v-47.762zm0 120.262c0-8.303 6.732-15.035 15.035-15.035h47.762c8.303 0 15.035 6.732 15.035 15.035v47.762c0 8.303-6.732 15.035-15.035 15.035h-47.762c-8.303 0-15.035-6.732-15.035-15.035v-47.762zm0 120.262c0-8.303 6.732-15.034 15.035-15.034h47.762c8.303 0 15.035 6.731 15.035 15.034v47.763c0 8.304-6.732 15.035-15.035 15.035h-47.762c-8.303 0-15.035-6.731-15.035-15.035v-47.763zm0 120.261c0-8.302 6.732-15.033 15.035-15.033h47.762c8.303 0 15.035 6.731 15.035 15.033v47.765c0 8.302-6.732 15.033-15.035 15.033h-47.762c-8.303 0-15.035-6.731-15.035-15.033v-47.765zm0 120.263c0-8.303 6.732-15.034 15.035-15.034h47.762c8.303 0 15.035 6.731 15.035 15.034v47.764c0 8.302-6.732 15.033-15.035 15.033h-47.762c-8.303 0-15.035-6.731-15.035-15.033v-47.764zm0 120.262c0-8.302 6.732-15.034 15.035-15.034h47.762c8.303 0 15.035 6.732 15.035 15.034v47.764c0 8.302-6.732 15.034-15.035 15.034h-47.762c-8.303 0-15.035-6.732-15.035-15.034v-47.764zM218.092 316.406c0-8.303 6.731-15.035 15.034-15.035h47.762c8.304 0 15.035 6.732 15.035 15.035v47.762c0 8.303-6.731 15.035-15.035 15.035h-47.762c-8.303 0-15.034-6.732-15.034-15.035v-47.762zm0 120.262c0-8.303 6.731-15.034 15.034-15.034h47.762c8.304 0 15.035 6.731 15.035 15.034v47.763c0 8.304-6.731 15.035-15.035 15.035h-47.762c-8.303 0-15.034-6.731-15.034-15.035v-47.763zm0 120.261c0-8.302 6.731-15.033 15.034-15.033h47.762c8.304 0 15.035 6.731 15.035 15.033v47.765c0 8.302-6.731 15.033-15.035 15.033h-47.762c-8.303 0-15.034-6.731-15.034-15.033v-47.765zm0 120.263c0-8.303 6.731-15.034 15.034-15.034h47.762c8.304 0 15.035 6.731 15.035 15.034v47.764c0 8.302-6.731 15.033-15.035 15.033h-47.762c-8.303 0-15.034-6.731-15.034-15.033v-47.764zm0 120.262c0-8.302 6.731-15.034 15.034-15.034h47.762c8.304 0 15.035 6.732 15.035 15.034v47.764c0 8.302-6.731 15.034-15.035 15.034h-47.762c-8.303 0-15.034-6.732-15.034-15.034v-47.764z"/></svg>