<svg class="icon" style="width:1em;height:1em;vertical-align:middle" viewBox="0 0 1024 1024" xmlns="http://www.w3.org/2000/svg" overflow="hidden"><path d="M332 152c0-66.24-53.76-120-120-120S92 85.76 92 152s53.76 120 120 120 120-53.76 120-120zm210 60c49.68 0 90-40.32 90-90s-40.32-90-90-90-90 40.32-90 90 40.32 90 90 90zM842 92c-49.68 0-90 40.32-90 90s40.32 90 90 90 90-40.32 90-90-40.32-90-90-90zM535.52 273.14c-72.24-1.14-154.44 10.02-220.26 68.34-65.88 58.32-57.66 204 35.46 243.18 93.18 39.12 113.7 106.8 88.74 191.04C414.5 859.94 457.1 932 563.6 932 747.2 932 812 759.98 812 567.26c0-209.58-82.38-291.18-276.48-294.12z"/></svg>