<svg class="icon" style="width:1em;height:1em;vertical-align:middle" viewBox="0 0 1024 1024" xmlns="http://www.w3.org/2000/svg" overflow="hidden"><path d="M842.826 278.881h-78.443v-32.16c0-79.175-64.418-143.594-143.594-143.594H406.655c-79.176 0-143.594 64.419-143.594 143.594v32.16h-82.192c-50.122 0-90.744 40.63-90.744 90.744v454.126c0 50.122 40.622 90.744 90.736 90.744h661.965c50.114 0 90.744-40.622 90.744-90.744V369.625c0-50.122-40.63-90.744-90.744-90.744zm-527.03-32.16c0-50.097 40.761-90.86 90.859-90.86h214.143c50.097 0 90.86 40.763 90.86 90.86v32.16H315.794v-32.16zm565.04 577.03c0 20.962-17.048 38.01-38.01 38.01H180.86c-20.954 0-38.002-17.048-38.002-38.01V369.625c0-20.961 17.048-38.01 38.01-38.01h661.957c20.962 0 38.01 17.049 38.01 38.01v454.126z"/><path d="M598.97 616.455H428.49c-14.551 0-26.359-11.8-26.359-26.359s11.8-26.359 26.36-26.359h170.48c14.55 0 26.358 11.8 26.358 26.36s-11.807 26.358-26.358 26.358z"/><path d="M513.722 701.695c-14.551 0-26.359-11.799-26.359-26.359v-170.48c0-14.551 11.8-26.359 26.36-26.359s26.358 11.8 26.358 26.36v170.48c0 14.56-11.8 26.358-26.359 26.358z"/></svg>