<svg class="icon" style="width:1em;height:1em;vertical-align:middle" viewBox="0 0 1024 1024" xmlns="http://www.w3.org/2000/svg" overflow="hidden"><path d="M640 853.333v85.334H384v-85.334h256zm-56.889-142.222v85.333H440.89v-85.333H583.11zM924.444 85.333a56.889 56.889 0 0156.89 56.89v654.221H640v-85.333h256V170.667H128V711.11h256v85.333H42.667V142.222a56.889 56.889 0 0156.889-56.889h824.888zm-85.333 369.778v85.333H497.778v-85.333H839.11zm-483.555 0v85.333H184.889v-85.333h170.667zm71.11 0a42.667 42.667 0 110 85.333 42.667 42.667 0 010-85.333zm99.556-142.222v85.333H184.89V312.89h341.333zm312.89 0v85.333H668.443V312.89h170.667zm-241.779 0a42.667 42.667 0 110 85.333 42.667 42.667 0 010-85.333z"/></svg>