<svg class="icon" style="width:1em;height:1em;vertical-align:middle" viewBox="0 0 1024 1024" xmlns="http://www.w3.org/2000/svg" overflow="hidden"><path d="M718.75 621.227c-58.514 0-105.325 46.811-105.325 105.325 0 13.654 1.95 25.357 7.802 37.06 0 1.95 1.95 3.9 3.9 3.9v5.852c3.902 5.851 5.852 11.703 11.703 17.554 1.951 1.95 3.901 3.901 5.852 3.901 0 1.95 0 5.851 1.95 7.802 19.505 19.505 44.861 29.257 74.118 29.257 58.515 0 105.326-46.811 105.326-105.326 0-58.514-46.811-105.325-105.326-105.325zm0 189.196c-23.405 0-42.91-7.802-60.464-25.356-1.95-1.95-3.901-1.95-5.852-1.95 0-1.951 0-3.902-1.95-5.852-3.901-3.901-5.852-9.753-9.753-13.654 0-1.95-1.95-1.95-1.95-3.9v-3.901c-3.901-9.753-5.851-19.505-5.851-31.208 0-46.812 39.009-85.821 85.82-85.821s85.821 39.01 85.821 85.82-39.01 85.822-85.82 85.822z"/><path d="M755.81 734.354c5.851 0 9.752-3.9 9.752-9.752s-3.901-9.752-9.752-9.752h-15.604l19.504-35.109c1.951-3.901 1.951-9.752-3.9-13.653-3.901-1.95-9.753-1.95-13.654 3.9L718.75 712.9l-23.405-42.91c-1.95-3.901-7.802-5.852-13.654-3.901-3.9 1.95-5.851 7.802-3.9 13.653l19.504 35.109h-15.604c-5.851 0-9.752 3.9-9.752 9.752s3.901 9.752 9.752 9.752h27.307v5.852h-27.307c-5.851 0-9.752 3.9-9.752 9.752s3.901 9.752 9.752 9.752h27.307v17.555c0 5.851 3.901 9.752 9.752 9.752s9.753-3.9 9.753-9.752V759.71h27.307c5.851 0 9.752-3.9 9.752-9.752s-3.901-9.752-9.752-9.752h-27.307v-5.852h27.307zm-9.753-335.482c-3.9-113.127-70.217-179.443-173.592-179.443H334.507V804.57h89.722V591.97h148.236c101.425 0 167.74-72.168 173.592-193.098zM545.158 502.248h-120.93V309.15H549.06c64.366 0 103.375 33.159 103.375 93.623-1.95 64.366-39.01 99.475-107.276 99.475z"/><path d="M512 28.282C244.785 28.282 28.282 244.785 28.282 512S244.785 995.718 512 995.718 995.718 779.215 995.718 512 779.215 28.282 512 28.282zm0 908.922C277.943 937.204 86.796 746.057 86.796 512S277.943 86.796 512 86.796 937.204 277.943 937.204 512 746.057 937.204 512 937.204z"/></svg>