<svg class="icon" style="width:1em;height:1em;vertical-align:middle" viewBox="0 0 1024 1024" xmlns="http://www.w3.org/2000/svg" overflow="hidden"><path d="M337.625 654.5H129.5c-8.25 0-15 6.75-15 15v45c0 8.25 6.75 15 15 15h163.125v165c0 8.25 6.75 15 15 15h45c8.25 0 15-6.75 15-15v-210c0-16.594-13.406-30-30-30zm15-540h-45c-8.25 0-15 6.75-15 15v165H129.5c-8.25 0-15 6.75-15 15v45c0 8.25 6.75 15 15 15h208.125c16.594 0 30-13.406 30-30v-210c0-8.25-6.75-15-15-15zm541.875 540H686.375c-16.594 0-30 13.406-30 30v210c0 8.25 6.75 15 15 15h45c8.25 0 15-6.75 15-15v-165H894.5c8.25 0 15-6.75 15-15v-45c0-8.25-6.75-15-15-15zm0-360H731.375v-165c0-8.25-6.75-15-15-15h-45c-8.25 0-15 6.75-15 15v210c0 16.594 13.406 30 30 30H894.5c8.25 0 15-6.75 15-15v-45c0-8.25-6.75-15-15-15z"/></svg>