<svg class="icon" style="width:1em;height:1em;vertical-align:middle" viewBox="0 0 1024 1024" xmlns="http://www.w3.org/2000/svg" overflow="hidden"><path d="M352.625 114.5H144.5c-16.594 0-30 13.406-30 30v210c0 8.25 6.75 15 15 15h45c8.25 0 15-6.75 15-15v-165h163.125c8.25 0 15-6.75 15-15v-45c0-8.25-6.75-15-15-15zm541.875 540h-45c-8.25 0-15 6.75-15 15v165H671.375c-8.25 0-15 6.75-15 15v45c0 8.25 6.75 15 15 15H879.5c16.594 0 30-13.406 30-30v-210c0-8.25-6.75-15-15-15zm-541.875 180H189.5v-165c0-8.25-6.75-15-15-15h-45c-8.25 0-15 6.75-15 15v210c0 16.594 13.406 30 30 30h208.125c8.25 0 15-6.75 15-15v-45c0-8.25-6.75-15-15-15zm526.875-720H671.375c-8.25 0-15 6.75-15 15v45c0 8.25 6.75 15 15 15H834.5v165c0 8.25 6.75 15 15 15h45c8.25 0 15-6.75 15-15v-210c0-16.594-13.406-30-30-30z"/></svg>