<svg class="icon" style="width:1em;height:1em;vertical-align:middle" viewBox="0 0 1024 1024" xmlns="http://www.w3.org/2000/svg" overflow="hidden"><path d="M421.122 728.074s-7.806-1.62-23.566-5.008c-15.613-3.388-30.342-8.395-43.892-15.023-13.551-6.628-26.365-15.024-38.148-25.04l31.814-39.031c13.845 12.077 29.163 21.062 45.807 27.1 16.644 6.04 34.76 8.986 54.35 8.986 26.365 0 46.838-4.861 61.273-14.582 14.581-9.721 21.799-23.566 21.799-41.389v-.294c0-12.667-3.24-22.683-9.869-30.195s-15.17-12.961-25.481-16.496c-10.458-3.535-23.861-6.923-40.357-9.868-.442-.148-1.031-.295-1.62-.295s-1.179 0-1.62-.295l-3.683-.736c-24.303-4.124-44.187-8.837-59.505-14.14s-28.28-14.876-39.18-28.721c-10.899-13.993-16.201-33.73-16.201-59.358v-.295c0-22.535 5.008-41.683 15.17-57.737s24.746-28.132 44.188-36.38c19.295-8.396 42.566-12.52 69.815-12.52 12.962 0 25.776 1.473 38.443 4.271 12.667 2.799 25.039 7.07 37.264 12.667s24.303 12.667 36.233 21.062l-29.016 40.505c-13.845-10.163-27.69-17.822-41.388-22.83s-27.543-7.659-41.389-7.659c-24.892 0-44.187 5.008-57.884 14.876-13.698 9.869-20.621 24.009-20.621 42.125v.295c0 12.52 3.535 22.388 10.605 29.458 7.07 7.217 15.907 12.52 26.512 15.907 10.605 3.388 25.334 6.923 44.187 10.605.736.147 1.325.294 1.915.294.589.148 1.178.148 1.914.295.884.147 1.768.295 2.799.442 1.03.147 1.915.294 2.798.442 22.094 4.566 40.358 9.868 55.234 16.054 14.729 6.187 27.101 16.202 36.97 29.9s14.876 32.551 14.876 56.412v.442c0 22.24-5.302 41.094-15.76 56.854-10.458 15.76-25.776 27.838-45.66 36.086-19.884 8.248-44.04 12.372-72.172 12.372-18.116.442-26.954.442-26.954.442z"/><path d="M458.976 854.89c-15.76 0-27.985-12.667-27.985-28.427V712.61c0-15.76 12.225-28.427 27.985-28.427s27.985 12.667 27.985 28.427v113.854c0 15.613-12.225 28.427-27.985 28.427zm0-455.567c-15.76 0-27.985-12.667-27.985-28.427V257.042c0-15.76 12.225-28.427 27.985-28.427s27.985 12.667 27.985 28.427v113.854c0 15.613-12.225 28.427-27.985 28.427z"/><path d="M456.177 989.219C204.901 989.219.61 784.78.61 533.652S205.048 78.085 456.177 78.085c251.276 0 455.567 204.438 455.567 455.567s-204.29 455.567-455.567 455.567zm0-854.133c-219.756 0-398.566 178.81-398.566 398.566s178.81 398.565 398.566 398.565S854.89 753.555 854.89 533.652 675.933 135.086 456.177 135.086zm522.731 735.27c-4.86 0-9.72-1.179-14.14-3.83l-136.537-78.8c-13.698-7.806-18.264-25.334-10.458-38.884 7.807-13.698 25.334-18.264 38.885-10.458l136.537 78.8c13.698 7.807 18.264 25.334 10.458 38.885a28.608 28.608 0 01-24.745 14.287z"/></svg>