<svg class="icon" style="width:1em;height:1em;vertical-align:middle" viewBox="0 0 1024 1024" xmlns="http://www.w3.org/2000/svg" overflow="hidden"><path d="M515.283 430.783c-109.98 0-199.397-89.45-199.397-199.397S405.336 32.01 515.283 32.01s199.396 89.45 199.396 199.397-89.449 199.376-199.396 199.376zm0-362.123c-89.733.01-162.738 73.005-162.738 162.726s73.005 162.737 162.738 162.737S678.02 321.098 678.02 231.386 605.015 68.67 515.283 68.67z"/><path d="M513 581.716a18.246 18.246 0 01-8.464-2.095L108.853 373.28a18.33 18.33 0 01-9.856-16.214 18.33 18.33 0 019.794-16.256l202.57-106.648a18.33 18.33 0 0124.761 7.678 18.33 18.33 0 01-7.678 24.792l-171.619 90.35L521.494 547.13a18.33 18.33 0 01-8.495 34.565zm393.493-204.058a18.246 18.246 0 01-8.61-2.158L686.776 262.903a18.33 18.33 0 01-7.552-24.803 18.33 18.33 0 0124.835-7.541l211.075 112.534a18.33 18.33 0 01-8.641 34.565z"/><path d="M515.356 991.937a18.33 18.33 0 01-18.33-18.225L494.69 563.48a18.33 18.33 0 019.888-16.37l393.494-204.08a18.33 18.33 0 0126.772 16.277v398.26a18.33 18.33 0 01-9.427 16.046l-391.2 216.04a18.309 18.309 0 01-8.861 2.284zm16.046-417.448l2.095 368.156 354.666-195.867V389.452z"/><path d="M515.346 991.947a18.246 18.246 0 01-8.6-2.157L108.728 777.77a18.33 18.33 0 01-9.71-16.182V357.066a18.33 18.33 0 0118.33-18.33 18.33 18.33 0 0118.33 18.33v393.567l388.298 206.802a18.33 18.33 0 01-8.63 34.565zm42.252-823.887c-10.4-10.36-19.031-16.225-34.994-16.225-17.754 0-29.411 11.668-29.411 28.395 0 43.112 79.603 30.428 79.603 92.047 0 26.877-16.989 45.134-43.614 48.684v28.155h-15.45v-27.893c-18.266-1.78-36.261-10.903-47.93-21.807l9.92-14.203c11.637 10.39 26.09 19.021 43.834 19.021 21.807 0 32.962-11.92 32.962-30.427 0-48.181-79.603-36.765-79.603-92.56 0-24.856 16.758-42.85 40.849-46.401V106.69h15.47v27.893c18.005 1.77 29.674 10.4 39.561 21.043z"/></svg>