<svg class="icon" style="width:1em;height:1em;vertical-align:middle" viewBox="0 0 1024 1024" xmlns="http://www.w3.org/2000/svg" overflow="hidden"><path d="M373.971 898.635H187.116a61.862 61.862 0 01-61.751-61.75V479.853a61.862 61.862 0 0161.75-61.751H836.94c34.024 0 61.696 27.727 61.696 61.751v107.264a27.617 27.617 0 1055.234 0V479.854a117.095 117.095 0 00-116.93-116.985H187.116A117.095 117.095 0 0070.13 479.854v357.03A117.095 117.095 0 00187.116 953.87H373.97a27.617 27.617 0 000-55.234M195.291 320.34h633.53a27.617 27.617 0 000-55.233H195.345a27.617 27.617 0 000 55.233m97.376-97.487h440.654a27.617 27.617 0 000-55.234H292.722a27.617 27.617 0 000 55.234m97.488-97.487h243.58a27.617 27.617 0 000-55.234H390.21a27.617 27.617 0 000 55.234"/><path d="M507.14 754.089a27.617 27.617 0 000-55.234h-91.633V670.3h91.688a27.617 27.617 0 100-55.234h-91.688v-4.86l81.414-76.886a27.617 27.617 0 00-37.945-40.155l-73.02 68.987-73.128-69.042a27.506 27.506 0 10-37.836 40.21l85.281 80.476v1.27h-96.77a27.617 27.617 0 000 55.234h96.77v28.555h-96.77a27.617 27.617 0 000 55.234h96.77v66.28a27.562 27.562 0 1055.234 0v-66.28h91.688zm445.459-39.547a26.844 26.844 0 00-7.346-10.66c-2.044-1.823-4.53-2.873-7.015-3.867a26.733 26.733 0 00-13.367-3.866h-84.12a27.562 27.562 0 100 55.234h27.948l-91.522 107.374L646.604 754.64a27.617 27.617 0 00-37.559 2.872L468.697 910.124a27.617 27.617 0 0040.762 37.448l122.95-133.665L763.7 918.685a27.617 27.617 0 0038.222-3.645l99.034-116.433v13.035a27.617 27.617 0 0055.234 0v-84.286a26.678 26.678 0 00-3.59-12.814"/></svg>