<svg class="icon" style="width:1em;height:1em;vertical-align:middle" viewBox="0 0 1024 1024" xmlns="http://www.w3.org/2000/svg" overflow="hidden"><path d="M514.04 574.82L162.86 278.9C6.62 465.68 37.58 731.36 224 888.2c186.72 157.08 465.48 133.14 622.62-53.52 88.74-105.42 119.52-221.88 96.06-347.52l-428.64 87.66z"/><path d="M790.16 141.38c-2.1-1.86-4.14-3.72-6.3-5.58C597.14-21.34 318.44 2.66 161.3 189.44c-.3.3-.54.6-.78.9l344.52 289.92 285.12-338.88zm55.92 57.9l-302.7 312.54 417.36-126.66c-18.12-84.24-61.56-143.28-114.66-185.88z"/></svg>