<svg class="icon" style="width:1em;height:1em;vertical-align:middle" viewBox="0 0 1024 1024" xmlns="http://www.w3.org/2000/svg" overflow="hidden"><path d="M926.48 354.378v437.678c0 20.418.672 40.176-7.814 59.51-24.941 56.822-80.497 55.128-131.87 55.128H215.22c-60.1 0-101.808-40.502-101.808-100.997V244.43c0-11.194-.124-22.392.188-33.581 1.35-48.399 46.378-86.122 93.038-86.122h572.453c51.773 0 91.546 41.99 92.962 92.75.863 30.889 48.863 30.976 48 0-2.376-85.233-69.82-140.75-152.03-140.75h-550.58c-82.205 0-149.65 55.517-152.025 140.75-.975 34.983 0 70.133 0 105.126v430.53c0 48.366-4.1 95.943 23.65 138.845 25.329 39.15 71.236 62.717 117.527 62.717h610.748c18.604 0 36.532-.643 54.825-5.308 51.183-13.075 89.798-58.69 99.825-109.489 8.573-43.459 2.492-92.84 2.492-136.685v-348.84c-.005-30.95-48.005-30.95-48.005.005z"/><path d="M293.6 258.434h540.067c51.71 0 91.397 42.112 92.808 92.747.864 30.888 48.864 30.97 48 0-2.395-85.786-70.31-140.747-152.76-140.747h-528.12c-30.95 0-30.95 48 .005 48zm69.514 136.149A601739.712 601739.712 0 00509.59 541.01c9.243 9.25 24.695 9.25 33.935 0 48.96-48.922 97.92-97.877 146.88-146.827 21.908-21.902-12.033-55.848-33.935-33.94l-146.88 146.86h33.935L397.054 360.641c-21.906-21.908-55.847 12.038-33.94 33.94zm-40.796 228.283h403.21c30.95 0 30.95-48 0-48h-403.21c-30.95 0-30.95 48 0 48zm0 123.297h403.21c30.95 0 30.95-48 0-48h-403.21c-30.95 0-30.95 48 0 48z"/><path d="M503.739 522.882v288.935c0 30.95 48 30.95 48 0V522.882c0-30.956-48-30.956-48 0z"/></svg>