<svg class="icon" style="width:1.1455078125em;height:1em;vertical-align:middle" viewBox="0 0 1173 1024" xmlns="http://www.w3.org/2000/svg" overflow="hidden"><path d="M326.708 1039.094H146.813c-28.784 0-53.97-25.185-53.97-53.969V337.5c0-28.784 25.186-53.97 53.97-53.97h179.895c28.784 0 53.97 25.186 53.97 53.97v647.625c0 32.381-25.186 53.97-53.97 53.97zM146.812 319.511c-10.794 0-17.99 7.196-17.99 17.99v647.625c0 10.794 7.196 17.99 17.99 17.99h179.895c10.794 0 17.99-7.196 17.99-17.99V337.501c0-10.794-7.196-17.99-17.99-17.99H146.812zM686.5 1039.094H506.605c-28.784 0-53.97-25.185-53.97-53.969V697.292c0-28.784 25.186-53.97 53.97-53.97H686.5c28.784 0 53.97 25.186 53.97 53.97v287.833c0 32.381-25.186 53.97-53.97 53.97zM506.604 679.302c-10.794 0-17.99 7.196-17.99 17.99v287.833c0 10.794 7.196 17.99 17.99 17.99h179.895c10.794 0 17.99-7.196 17.99-17.99V697.292c0-10.794-7.196-17.99-17.99-17.99H506.604zm539.686 359.792H866.393c-28.784 0-53.97-25.185-53.97-53.969V161.202c0-28.784 25.186-53.969 53.97-53.969h179.895c28.784 0 53.97 25.185 53.97 53.97v823.922c0 32.381-25.186 53.97-53.97 53.97zM866.393 143.213c-10.794 0-17.99 7.196-17.99 17.99v823.922c0 10.794 7.196 17.99 17.99 17.99h179.895c10.794 0 17.99-7.196 17.99-17.99V161.202c0-10.793-7.196-17.99-17.99-17.99H866.394z"/></svg>