<svg class="icon" style="width:1em;height:1em;vertical-align:middle" viewBox="0 0 1024 1024" xmlns="http://www.w3.org/2000/svg" overflow="hidden"><path d="M944.57 161.404H79.43c-18.473 0-33.464 15.02-33.464 33.49v634.21c0 18.473 14.993 33.49 33.464 33.49h865.14c18.471 0 33.463-15.018 33.463-33.49v-634.21c0-18.47-14.992-33.49-33.463-33.49zm-21.364 54.828v164.412h-30.84V363.51c0-22.712-18.42-41.12-41.121-41.12s-41.12 18.408-41.12 41.12v17.134H457.171V363.51c0-22.712-18.419-41.12-41.12-41.12s-41.12 18.408-41.12 41.12v17.134H287.55V363.51c0-22.712-18.419-41.12-41.12-41.12s-41.121 18.408-41.121 41.12v17.134H100.794V216.232h822.412zm-198.75 334.603c-22.701 0-41.12 18.411-41.12 41.12v17.134H664.49v-17.134c0-22.709-18.42-41.12-41.12-41.12s-41.121 18.411-41.121 41.12v17.134h-11.994v-17.134c0-22.709-18.419-41.12-41.12-41.12s-41.12 18.411-41.12 41.12v17.134h-387.22V401.204H205.31v17.134c0 22.708 18.419 41.12 41.12 41.12s41.121-18.412 41.121-41.12v-17.134h87.381v17.134c0 22.708 18.42 41.12 41.12 41.12s41.121-18.412 41.121-41.12v-17.134h352.952v17.134c0 22.708 18.419 41.12 41.12 41.12s41.121-18.412 41.121-41.12v-17.134h30.841v207.885h-157.63v-17.134c0-22.709-18.419-41.12-41.12-41.12zM100.795 807.768V629.65h387.22v17.134c0 22.712 18.418 41.12 41.12 41.12s41.12-18.408 41.12-41.12V629.65h11.994v17.134c0 22.712 18.418 41.12 41.12 41.12s41.12-18.408 41.12-41.12V629.65h18.848v17.134c0 22.712 18.419 41.12 41.12 41.12s41.121-18.408 41.121-41.12V629.65h157.63v178.12H100.793z"/></svg>