<svg class="icon" style="width:1em;height:1em;vertical-align:middle" viewBox="0 0 1024 1024" xmlns="http://www.w3.org/2000/svg" overflow="hidden"><path d="M547.271 414.265a34.133 34.133 0 01-24.132-58.277L733.298 145.84a34.133 34.133 0 0148.264 48.276l-210.159 210.16a34.065 34.065 0 01-24.132 9.989zm96.597 96.597a34.11 34.11 0 01-24.132-58.265l210.148-210.148a34.11 34.11 0 0148.264 0 34.11 34.11 0 010 48.265L668.001 500.86a34.03 34.03 0 01-24.133 10.001zm285.583 169.984c0-.341-.114-.682-.114-1.024-.228-1.251-.455-2.39-.797-3.527-.455-1.479-.91-2.958-1.592-4.437a8.613 8.613 0 00-1.024-2.048 33.048 33.048 0 00-11.15-12.63 9.83 9.83 0 00-1.821-1.137c-2.503-1.593-5.461-2.845-8.533-3.641l-362.041-96.939-1.024-.341h-.228c-1.138-.342-2.275-.57-3.413-.797a34.406 34.406 0 00-16.157 1.48c-1.251.34-2.389.796-3.527 1.365a42.303 42.303 0 00-7.395 4.665c-.797.796-1.593 1.479-2.276 2.161a1.365 1.365 0 00-.569.57l-265.33 265.33c-.34.34-.568.568-.796.91-1.024 1.023-1.934 2.161-2.73 3.299-1.138 1.479-2.049 3.072-2.845 4.665a38.488 38.488 0 00-2.048 5.006c-.569 1.593-.91 3.3-1.138 5.006-.341 1.82-.455 3.527-.455 5.234 0 1.365.114 2.617.228 3.982.113 1.252.34 2.617.682 3.869.342 1.251.683 2.503 1.138 3.754a35.157 35.157 0 001.593 3.641c.569 1.252 1.251 2.39 1.934 3.527a34.278 34.278 0 002.503 3.186c.91 1.024 1.82 2.048 2.845 2.958 1.024 1.024 2.161 1.935 3.3 2.731.796.569 1.706 1.138 2.502 1.707 44.943 32.199 94.891 55.296 148.367 69.177A456.285 456.285 0 00512 967.111c15.132 0 30.265-.796 44.942-2.162 15.133-1.593 29.696-3.754 43.463-6.485 34.361-6.713 67.698-17.408 99.1-31.744A454.542 454.542 0 00926.38 700.188c.227-.455.455-1.024.682-1.592.57-1.138 1.024-2.39 1.252-3.641a9.04 9.04 0 00.683-2.503c.34-1.138.455-2.39.568-3.528.228-1.137.228-2.275.228-3.527 0-1.593-.114-3.072-.341-4.55zM671.175 864.597a374.864 374.864 0 01-121.06 32.313c-44.259 4.438-91.477 1.024-135.509-10.354-32.995-8.647-64.512-21.504-93.98-38.343l221.98-221.98 303.218 81.123a386.526 386.526 0 01-174.649 157.241z"/><path d="M243.37 878.933a17.488 17.488 0 01-2.844-2.958c.91 1.024 1.82 2.048 2.845 2.958zm263.055-617.472a34.11 34.11 0 01-24.132-58.265l120.49-120.49a34.11 34.11 0 0148.265 0 34.11 34.11 0 010 48.264l-120.49 120.49a34.03 34.03 0 01-24.133 10.001zM805.66 554.098a34.133 34.133 0 01-24.132-58.277l113.903-113.892a34.133 34.133 0 0148.265 48.276L829.793 544.097a34.03 34.03 0 01-24.133 10zm-335.985-67.812c-.228-1.138-.455-2.275-.797-3.413v-.228l-.341-1.024-96.939-362.04-.341-1.252c-.797-2.617-1.934-5.12-3.3-7.282a9.83 9.83 0 00-1.137-1.82c0-.114-.114-.228-.114-.228-.683-1.024-1.366-1.934-2.276-2.844a33.45 33.45 0 00-10.695-8.42c-.569-.227-1.024-.455-1.593-.683-1.479-.682-2.844-1.251-4.437-1.592-1.138-.342-2.276-.57-3.527-.797-.342-.114-.683-.114-1.024-.114a29.528 29.528 0 00-4.551-.341c-1.138 0-2.39 0-3.527.228-1.138.113-2.39.227-3.528.568l-1.706.342-1.252.341a34.313 34.313 0 00-5.12 2.048 454.997 454.997 0 00-226.19 226.76 445.156 445.156 0 00-34.36 113.777c-1.821 10.923-3.073 20.139-3.756 28.786A450.19 450.19 0 0056.89 512c0 41.984 5.803 83.74 17.18 124.245 14.336 50.404 36.978 97.394 67.357 139.833.682 1.024 1.365 2.048 2.275 2.958a18.568 18.568 0 001.935 2.276l.227.228c1.593 1.706 3.413 3.185 5.348 4.437 1.137.683 2.275 1.365 3.413 1.934 1.252.683 2.503 1.138 3.755 1.593 1.137.455 2.503.796 3.754 1.138 1.252.341 2.617.569 3.869.682 1.365.114 2.617.228 3.982.228 1.48 0 3.072-.114 4.551-.341.455 0 .797-.114 1.138-.114 1.479-.228 3.072-.683 4.551-1.138 1.707-.569 3.413-1.138 5.006-2.048 1.593-.796 3.186-1.707 4.665-2.844.91-.683 1.82-1.366 2.617-2.048.569-.455 1.138-1.024 1.593-1.48l265.33-265.33a1.365 1.365 0 00.569-.568c.682-.683 1.365-1.48 2.161-2.276a39.333 39.333 0 004.665-7.395 18.873 18.873 0 001.366-3.527c.34-.91.568-1.707.796-2.617.228-.91.455-1.82.569-2.73.569-3.528.683-7.169.114-10.81zM175.787 703.374a386.276 386.276 0 01-36.068-85.674A390.985 390.985 0 01125.156 512c0-12.857.682-25.714 1.934-38.57.569-7.169 1.593-14.678 3.186-24.122 5.347-33.336 15.132-65.877 29.127-96.597 33.223-73.387 88.291-134.258 157.24-174.535l81.124 303.218-221.98 221.98zm753.209-10.922c0 .568-.228 1.137-.342 1.706-.114.228-.114.57-.341.797a9.04 9.04 0 00.683-2.503zM435.553 92.797a34.133 34.133 0 1068.266 0 34.133 34.133 0 10-68.266 0zm463.291 464.714a34.133 34.133 0 1068.267 0 34.133 34.133 0 10-68.267 0z"/></svg>