<svg class="icon" style="width:1em;height:1em;vertical-align:middle" viewBox="0 0 1024 1024" xmlns="http://www.w3.org/2000/svg" overflow="hidden"><path d="M902.109 106.97c6.17 0 11.19 5.4 11.19 12.039v745.203c0 6.638-5.02 12.04-11.19 12.04H118.197c-6.17 0-11.19-5.402-11.19-12.04V119.009c0-6.639 5.02-12.04 11.19-12.04H902.11m0-44.969H118.197c-31.016 0-56.16 25.524-56.16 57.009v745.203c0 31.485 25.144 57.009 56.16 57.009H902.11c31.016 0 56.16-25.524 56.16-57.009V119.009C958.27 87.524 933.125 62 902.11 62z"/><path d="M907.543 317.976H714.815v-98.154h-57.282v98.154H411.701v-98.154H354.42v98.154h-91.89v-98.154h-57.28v98.154h-96.066v57.282h96.065v98.154h57.282v-98.154h91.889v98.154h57.28v-98.154h245.833v98.154h57.282v-98.154h192.728zm0 301.92H670.66v-98.154h-57.282v98.154H354.42v-98.154h-57.28v98.154H109.183v57.282h187.954v98.154h57.282v-98.154h258.96v98.154h57.28v-98.154h236.883z"/></svg>