<svg class="icon" style="width:1em;height:1em;vertical-align:middle" viewBox="0 0 1024 1024" xmlns="http://www.w3.org/2000/svg" overflow="hidden"><path d="M947.2 409.6H622.933c-4.693 0-8.533 3.84-8.533 8.533V537.6c0 4.693 3.84 8.533 8.533 8.533h51.2c4.694 0 8.534-3.84 8.534-8.533v-59.733h64V819.2H697.6c-4.693 0-8.533 3.84-8.533 8.533v51.2c0 4.694 3.84 8.534 8.533 8.534h174.933c4.694 0 8.534-3.84 8.534-8.534v-51.2c0-4.693-3.84-8.533-8.534-8.533h-49.066V477.867h64V537.6c0 4.693 3.84 8.533 8.533 8.533h51.2c4.693 0 8.533-3.84 8.533-8.533V418.133c0-4.693-3.84-8.533-8.533-8.533z"/><path d="M665.6 281.6V145.067c0-4.694-3.84-8.534-8.533-8.534H76.8c-4.693 0-8.533 3.84-8.533 8.534V281.6c0 4.693 3.84 8.533 8.533 8.533h59.733c4.694 0 8.534-3.84 8.534-8.533v-68.267h179.2v597.334h-98.134c-4.693 0-8.533 3.84-8.533 8.533v59.733c0 4.694 3.84 8.534 8.533 8.534h281.6c4.694 0 8.534-3.84 8.534-8.534V819.2c0-4.693-3.84-8.533-8.534-8.533H409.6V213.333h179.2V281.6c0 4.693 3.84 8.533 8.533 8.533h59.734c4.693 0 8.533-3.84 8.533-8.533z"/></svg>