<svg class="icon" style="width:1em;height:1em;vertical-align:middle" viewBox="0 0 1024 1024" xmlns="http://www.w3.org/2000/svg" overflow="hidden"><path d="M511.545 16.27C230.172 16.156 2.275 243.94 2.275 525.084c0 222.322 142.564 411.307 341.106 480.712 26.738 6.712 22.642-12.288 22.642-25.26V892.36c-154.396 18.09-160.654-84.082-171.008-101.148-20.935-35.727-70.428-44.829-55.637-61.895 35.157-18.091 70.997 4.55 112.526 65.877 30.037 44.487 88.633 36.978 118.329 29.582 6.485-26.738 20.366-50.631 39.48-69.177-159.97-28.672-226.645-126.293-226.645-242.346 0-56.32 18.546-108.09 54.955-149.846-23.21-68.835 2.162-127.772 5.575-136.533 66.105-5.917 134.827 47.331 140.174 51.541 37.547-10.126 80.441-15.474 128.456-15.474 48.241 0 91.25 5.576 129.137 15.816 12.857-9.785 76.573-55.524 138.013-49.949 3.3 8.761 28.103 66.333 6.258 134.258 36.864 41.87 55.637 94.094 55.637 150.528 0 116.28-67.129 214.016-227.556 242.233 26.738 26.396 43.35 63.033 43.35 103.538v128c.91 10.24 0 20.366 17.066 20.366 201.5-67.926 346.567-258.276 346.567-482.532 0-281.258-228.01-508.928-509.155-508.928z"/></svg>