<svg class="icon" style="width:1em;height:1em;vertical-align:middle" viewBox="0 0 1024 1024" xmlns="http://www.w3.org/2000/svg" overflow="hidden"><path d="M401.067 437.333h512c4.693 0 8.533-3.84 8.533-8.533v-59.733c0-4.694-3.84-8.534-8.533-8.534h-512c-4.694 0-8.534 3.84-8.534 8.534V428.8c0 4.693 3.84 8.533 8.534 8.533zm-8.534 217.6c0 4.694 3.84 8.534 8.534 8.534h512c4.693 0 8.533-3.84 8.533-8.534V595.2c0-4.693-3.84-8.533-8.533-8.533h-512c-4.694 0-8.534 3.84-8.534 8.533v59.733zm537.6-518.4H93.867c-4.694 0-8.534 3.84-8.534 8.534V204.8c0 4.693 3.84 8.533 8.534 8.533h836.266c4.694 0 8.534-3.84 8.534-8.533v-59.733c0-4.694-3.84-8.534-8.534-8.534zm0 674.134H93.867c-4.694 0-8.534 3.84-8.534 8.533v59.733c0 4.694 3.84 8.534 8.534 8.534h836.266c4.694 0 8.534-3.84 8.534-8.534V819.2c0-4.693-3.84-8.533-8.534-8.533zM88.96 519.36l166.72 131.307c6.187 4.906 15.36.533 15.36-7.36V380.693c0-7.893-9.067-12.266-15.36-7.36L88.96 504.64c-4.8 3.733-4.8 10.987 0 14.72z"/></svg>