<svg class="icon" style="width:1em;height:1em;vertical-align:middle" viewBox="0 0 1024 1024" xmlns="http://www.w3.org/2000/svg" overflow="hidden"><path d="M550.184 646.622L438.818 536.576l1.32-1.365a768.182 768.182 0 00162.657-286.265h128.478v-87.791H424.346V73.5h-87.7v87.7H29.673v87.746h489.79a691.45 691.45 0 01-138.99 234.61 686.126 686.126 0 01-101.308-146.91h-87.654a770.185 770.185 0 00130.617 199.93L98.987 756.713l62.259 62.26 219.227-219.228L516.87 736.097l33.314-89.43m246.852-222.321h-87.7l-197.29 526.2h87.7l49.106-131.528H857.11l49.561 131.527h87.7l-197.336-526.2m-114.87 306.928L753.163 541.4l71.043 189.873z"/></svg>