<svg class="icon" style="width:1em;height:1em;vertical-align:middle" viewBox="0 0 1024 1024" xmlns="http://www.w3.org/2000/svg" overflow="hidden"><path d="M716.8 76.8a230.4 230.4 0 01230.4 230.4v409.6a230.4 230.4 0 01-230.4 230.4H307.2A230.4 230.4 0 0176.8 716.8V307.2A230.4 230.4 0 01307.2 76.8h409.6m0-76.8H307.2A307.2 307.2 0 000 307.2v409.6A307.2 307.2 0 00307.2 1024h409.6A307.2 307.2 0 001024 716.8V307.2A307.2 307.2 0 00716.8 0z"/><path d="M335.616 322.048a489.728 489.728 0 01-48.384 68.352l-54.272-35.072a366.848 366.848 0 0078.08-128l61.44 13.568-9.728 25.6H512v55.808h-76.8a300.288 300.288 0 0129.44 48.64l-56.32 21.504a535.296 535.296 0 00-39.424-70.144zm-61.952 143.36h63.744v332.8h-63.744zm79.104-97.792a628.48 628.48 0 0173.728 76.8l-47.104 32.512a768 768 0 00-72.192-80.384zm45.056 122.368h235.264v241.92H397.824zm60.672 94.464H573.44V541.44H458.496zm114.944 94.72V634.88H458.496v44.288zM636.672 793.6l-15.36-57.856 54.016 2.048c12.8 0 19.2-8.96 19.2-25.6v-261.12H470.784v-58.368H757.76V729.6c0 43.264-23.296 65.024-70.144 65.024zm-39.168-471.552a491.008 491.008 0 01-37.632 59.648l-54.016-35.072a338.432 338.432 0 0063.232-119.808l60.928 13.568c-4.096 11.52-6.912 20.224-8.704 25.6H791.04v55.808h-88.064a332.8 332.8 0 0127.136 43.776l-56.576 21.504a533.504 533.504 0 00-37.376-65.28z"/></svg>