<svg class="icon" style="width:1em;height:1em;vertical-align:middle" viewBox="0 0 1024 1024" xmlns="http://www.w3.org/2000/svg" overflow="hidden"><path d="M988.16 447.518a21.34 21.34 0 00-7.43-15.968L525.17 40.012c-8.003-6.876-19.82-6.876-27.823 0L297.192 212.039V104.985c0-11.786-9.555-21.342-21.342-21.342h-93.903c-11.786 0-21.341 9.556-21.341 21.342v224.444L41.955 431.55c-4.719 4.055-7.263 9.966-7.263 16.185V559.8c0 8.674 4.95 16.806 12.949 20.164a20.839 20.839 0 008.135 1.648c5.012 0 9.928-1.765 13.875-5.159l56.809-48.88V894.62c0 53.04 42.997 96.037 96.037 96.037h166.892a21.398 21.398 0 01-.43-4.268V691.876c0-23.573 19.11-42.683 42.684-42.683H574.63c23.572 0 42.683 19.11 42.683 42.683v294.512c0 1.462-.149 2.89-.43 4.268h186.1c53.04 0 96.037-42.997 96.037-96.037V528.027l54.552 46.884c5.476 4.707 12.933 6.73 19.904 4.841a21.35 21.35 0 0015.82-20.836l-1.137-111.398z"/></svg>