<svg class="icon" style="width:1em;height:1em;vertical-align:middle" viewBox="0 0 1024 1024" xmlns="http://www.w3.org/2000/svg" overflow="hidden"><path d="M962 132.68V62H62v900h900V132.68zm-338.285 0v214.596H400.284V132.68h223.431zm0 267.604v223.431H400.284V400.284h223.431zM132.68 132.68h214.595v214.596H132.68V132.68zm0 267.604h214.595v223.431H132.68V400.284zm0 491.036V676.725h214.595V891.32H132.68zm267.604 0V676.725h223.432V891.32H400.284zm491.036 0H676.724V676.725H891.32V891.32zm0-267.605H676.724V400.284h214.595l.001 223.431zm0-276.439H676.723V132.68h214.595v214.596z"/></svg>