<svg class="icon" style="width:1em;height:1em;vertical-align:middle" viewBox="0 0 1024 1024" xmlns="http://www.w3.org/2000/svg" overflow="hidden"><path d="M960.512 539.712L815.744 684.544l-48.256-48.256L827.712 576H512v-64h325.76l-70.272-70.272 48.256-48.256L960.512 538.24l-.704.768.704.704zM704 192a64 64 0 00-64-64H192a64 64 0 00-64 64v640a64 64 0 0064 64h448a64 64 0 0064-64v-64h64v64a128 128 0 01-128 128H192A128 128 0 0164 832V192A128 128 0 01192 64h448a128 128 0 01128 128v128h-64V192z"/></svg>