<svg class="icon" style="width:1em;height:1em;vertical-align:middle" viewBox="0 0 1024 1024" xmlns="http://www.w3.org/2000/svg" overflow="hidden"><path d="M937.52 65.44A31.89 31.89 0 00928 64h-91.5a127.88 127.88 0 00-85 32.33L512 309.19 272.54 96.33l-.13-.11-.52-.47-1-.88A127.86 127.86 0 00187.5 64H96a32 32 0 00-32 32v832a32 32 0 0032 32h256a32 32 0 0032-32V601l106.74 94.88a32 32 0 0042.52 0L640 601v327a32 32 0 0032 32h256a32 32 0 0032-32V96a32 32 0 00-22.48-30.56zM192 896h-64V128h59.5c1.55 0 3.09.06 4.63.17-.09 1.14-.13 2.3-.13 3.46zm128 0h-64V167.26l234.74 208.66a32 32 0 007.63 5q-15.19 24.68-29.08 50.26l-96-85.36A32 32 0 00320 369.78zm64-455l73.42 65.26a32 32 0 0050-9.53l2.58-5.23a987.52 987.52 0 01228.25-297.8L794 144.17A63.92 63.92 0 01836.5 128h43.33l-84.9 75.47a1051.24 1051.24 0 00-242.93 317l-49.94 99.87L384 515.41zm320 455V544.15l64-56.89V896zm192 0h-64V416a32 32 0 00-53-24.1l-.22.18-163.67 145.45A987.37 987.37 0 01837.45 251.3l58.55-52z"/></svg>