<svg class="icon" style="width:1em;height:1em;vertical-align:middle" viewBox="0 0 1024 1024" xmlns="http://www.w3.org/2000/svg" overflow="hidden"><path d="M864 64H608a32 32 0 00-32 32v242.74L338.75 101.49A127.15 127.15 0 00248.24 64H160a32 32 0 00-32 32v832a32 32 0 0032 32h256a32 32 0 0032-32V685.25l237.25 237.26A127.15 127.15 0 00775.76 960H864a32 32 0 0032-32V96a32 32 0 00-32-32zm-160 64v530.75l-64-64V128zm-512 0h56.24a64.54 64.54 0 017.76.48V896h-64zm192 768h-64V173.25l256 256v101.5L438.63 393.37A32 32 0 00384 416v480zm448 0h-56.24a63.58 63.58 0 01-45.25-18.75L448 594.74V493.25l137.37 137.37 128 128A32 32 0 00768 736V128h64z"/></svg>