<svg class="icon" style="width:1em;height:1em;vertical-align:middle" viewBox="0 0 1024 1024" xmlns="http://www.w3.org/2000/svg" overflow="hidden"><path d="M371.627 504.32a42.667 42.667 0 00-60.587 0l-82.773 83.2a42.667 42.667 0 000 60.16l85.333 83.2a42.667 42.667 0 0060.16 0 42.667 42.667 0 000-60.16l-57.6-50.773 55.467-55.467a42.667 42.667 0 000-60.16zm343.466 0a42.667 42.667 0 10-60.16 60.16l52.907 52.907-55.467 55.466a42.667 42.667 0 000 60.16 42.667 42.667 0 0060.587 0l82.773-83.2a42.667 42.667 0 000-60.16z"/><path d="M725.333 85.333H298.667A213.333 213.333 0 0085.333 298.667v426.666a213.333 213.333 0 00213.334 213.334h426.666a213.333 213.333 0 00213.334-213.334V298.667A213.333 213.333 0 00725.333 85.333zm-426.666 85.334h426.666a128 128 0 01128 128H170.667a128 128 0 01128-128zm426.666 682.666H298.667a128 128 0 01-128-128V384h682.666v341.333a128 128 0 01-128 128z"/><path d="M405.333 618.667a42.667 42.667 0 1085.334 0 42.667 42.667 0 10-85.334 0zm128 0a42.667 42.667 0 1085.334 0 42.667 42.667 0 10-85.334 0z"/></svg>