<svg class="icon" style="width:1em;height:1em;vertical-align:middle" viewBox="0 0 1024 1024" xmlns="http://www.w3.org/2000/svg" overflow="hidden"><path d="M345.863 692.867c-72.7-44.746-114.397-110.764-114.397-181.126 0-70.364 41.697-136.384 114.397-181.13 12.849-7.909 16.854-24.736 8.945-37.585-7.908-12.85-24.738-16.856-37.586-8.947-42.284 26.027-77.375 59.781-101.48 97.617-25.458 39.958-38.914 84.928-38.914 130.045 0 45.117 13.456 90.085 38.914 130.043 24.105 37.834 59.196 71.588 101.48 97.614a27.188 27.188 0 0014.294 4.058c9.172 0 18.13-4.618 23.292-13.003 7.909-12.85 3.903-29.678-8.945-37.586zm-98.456 77.886C148.63 705.567 91.979 611.154 91.979 511.723c0-99.409 56.634-193.795 155.379-258.96 12.593-8.31 16.065-25.255 7.754-37.848-8.31-12.593-25.256-16.066-37.849-7.754C102.92 282.618 37.34 393.626 37.34 511.723c0 118.12 65.597 229.153 179.97 304.633a27.186 27.186 0 0015.022 4.52c8.872 0 17.574-4.315 22.827-12.273 8.312-12.594 4.84-29.54-7.752-37.85zM807.105 207.16c-12.592-8.311-29.54-4.84-37.85 7.754-8.309 12.593-4.838 29.539 7.755 37.849 98.747 65.165 155.382 159.551 155.382 258.959 0 99.43-56.652 193.843-155.43 259.03-12.593 8.31-16.064 25.257-7.754 37.85 5.253 7.96 13.954 12.274 22.827 12.274 5.164 0 10.39-1.463 15.023-4.521C921.433 740.876 987.03 629.84 987.03 511.723c0-118.096-65.58-229.104-179.926-304.562zm1.524 434.623c25.457-39.957 38.913-84.926 38.913-130.043 0-45.118-13.456-90.087-38.913-130.045-24.105-37.836-59.196-71.59-101.482-97.617-12.85-7.908-29.676-3.903-37.586 8.947-7.909 12.848-3.903 29.676 8.945 37.585 72.7 44.746 114.398 110.765 114.398 181.13 0 70.362-41.696 136.38-114.398 181.125-12.848 7.91-16.854 24.736-8.945 37.587 5.161 8.385 14.12 13.003 23.291 13.003 4.885 0 9.83-1.31 14.294-4.058 42.285-26.026 77.377-59.779 101.483-97.614zm-237.825-123.09c25.732-18.295 42.547-48.327 42.547-82.21 0-55.604-45.283-100.84-100.943-100.84s-100.943 45.235-100.943 100.84c0 33.809 16.743 63.784 42.38 82.09-53.2 22.536-90.578 74.916-90.578 135.787 0 2.525.065 5.08.194 7.594l1.333 25.916h294.798l1.321-25.93c.128-2.515.193-5.066.193-7.58 0-60.764-37.25-113.064-90.302-135.668zm-58.397-128.412c25.533 0 46.305 20.726 46.305 46.202 0 25.475-20.772 46.2-46.305 46.2-25.532 0-46.304-20.725-46.304-46.2s20.772-46.202 46.304-46.202zM420.36 633.234c9.728-41.113 47.206-71.827 91.825-71.827s82.098 30.714 91.825 71.827H420.36z"/></svg>