<svg class="icon" style="width:1em;height:1em;vertical-align:middle" viewBox="0 0 1024 1024" xmlns="http://www.w3.org/2000/svg" overflow="hidden"><path d="M645.721 299.917l2.236 4.03 80.75 183.045h52.18a25.023 25.023 0 0124.64 20.51l.404 4.493a25.003 25.003 0 01-20.55 24.6l-4.493.402h-68.5a25.023 25.023 0 01-20.873-11.232l-2.014-3.676-62.678-142.037-91.468 242.228c-7.293 19.3-32.86 21.527-43.86 5.55l-2.266-4.029-39.58-86.844h-36.99a24.972 24.972 0 01-19.995-9.993l-2.458-4.03-26.755-54.477-29.365 55.284a25.023 25.023 0 01-17.528 12.843l-4.543.413h-75.088a25.003 25.003 0 01-4.493-49.602l4.493-.403h60.028l45.331-85.212c8.845-16.62 31.651-17.538 42.158-3.163l2.367 3.909 41.352 84.466h37.514a24.982 24.982 0 0120.711 11.01l2.015 3.617 21.346 46.832 91.95-243.185c7.395-19.462 33.143-21.537 44.022-5.35zM762 147H262a115.01 115.01 0 00-114.738 107.121l-.261 7.878v349.995a115.01 115.01 0 00107.132 114.738l7.867.261h500a115.01 115.01 0 00114.738-107.122l.261-7.877V262a115.01 115.01 0 00-107.121-114.738zM762 62c110.456 0 200 89.544 200 200v349.995c0 110.456-89.544 199.97-200 199.97H262c-110.456 0-200-89.514-200-199.97V262c0-110.456 89.544-200 200-200zm57.5 815a42.5 42.5 0 010 85h-615a42.5 42.5 0 110-85z"/></svg>