<svg class="icon" style="width:1em;height:1em;vertical-align:middle" viewBox="0 0 1024 1024" xmlns="http://www.w3.org/2000/svg" overflow="hidden"><path d="M283.144 130.56A152.584 152.584 0 00435.73 283.144h152.54A152.584 152.584 0 00740.856 130.56h76.271a152.584 152.584 0 01152.585 152.584v533.983a152.584 152.584 0 01-152.585 152.585H206.873A152.584 152.584 0 0154.288 817.127V283.144A152.584 152.584 0 01206.873 130.56h76.271zm0 0h457.712-457.712zm267.013 305.169a38.157 38.157 0 100 76.271h228.855a38.157 38.157 0 000-76.271H550.157zm0 228.855a38.157 38.157 0 100 76.272h228.855a38.157 38.157 0 000-76.272H550.157zM298.956 451.54l-26.963-27.005a38.157 38.157 0 00-53.969 53.969l53.969 53.927a38.032 38.032 0 0053.926 0l107.896-107.896a38.157 38.157 0 10-53.969-53.926l-80.89 80.89zm0 228.856l-26.963-27.005a38.157 38.157 0 00-53.969 53.969l53.969 53.926a38.032 38.032 0 0053.926 0l107.896-107.895a38.157 38.157 0 10-53.969-53.926l-80.89 80.89zM435.729 54.288H588.27a76.271 76.271 0 110 152.585H435.73a76.271 76.271 0 010-152.585z"/></svg>