<svg class="icon" style="width:1em;height:1em;vertical-align:middle" viewBox="0 0 1024 1024" xmlns="http://www.w3.org/2000/svg" overflow="hidden"><path d="M665.6 112.299a476.501 476.501 0 00-631.467 453.29A727.04 727.04 0 0053.931 737.28a20.48 20.48 0 0019.114 19.115h873.131a31.744 31.744 0 0023.893-19.115 1109.333 1109.333 0 0019.798-171.69A472.747 472.747 0 00665.6 112.298zM512 183.808a45.227 45.227 0 0147.787 47.787A45.056 45.056 0 01512 279.21a45.056 45.056 0 01-47.787-47.616A45.227 45.227 0 01512 183.808zM178.005 613.205a47.787 47.787 0 110-95.402 47.787 47.787 0 110 95.402zm133.632-247.978a46.421 46.421 0 01-66.901 0 58.197 58.197 0 01-4.779-71.68 46.25 46.25 0 0166.902 0 57.856 57.856 0 014.778 71.68zM512 660.992c-52.565 0-100.181-47.787-85.333-95.403S512 375.467 512 375.467s71.51 143.018 85.333 190.805-32.768 94.72-85.333 94.72zm272.043-295.765a47.275 47.275 0 110-66.902 57.344 57.344 0 010 66.902zm61.952 247.978a47.787 47.787 0 1147.786-47.616 44.885 44.885 0 01-47.786 47.616zM834.73 898.22H189.269a34.133 34.133 0 110-68.267h645.462a34.133 34.133 0 010 68.267z"/></svg>