<svg class="icon" style="width:1em;height:1em;vertical-align:middle" viewBox="0 0 1024 1024" xmlns="http://www.w3.org/2000/svg" overflow="hidden"><path d="M905.076 105.565H121.81c-40.727 0-73.82 33.094-73.82 73.821v498.642c0 40.727 33.093 73.867 73.82 73.867h93.278a34.21 34.21 0 0014.15-3.118c1.023-.466 1.815-1.304 2.792-1.862a36.026 36.026 0 008.89-6.935c.326-.42.838-.512 1.117-.931l170.822-209.362 78.615 67.77a34.91 34.91 0 0048.315-2.653l150.667-161.466c17.594 10.473 37.842 16.85 59.718 16.85a117.713 117.713 0 00117.62-117.574 117.76 117.76 0 00-117.62-117.62A117.76 117.76 0 00632.6 332.613c0 17.454 4.05 33.885 10.892 48.733L511.628 522.612l-80.384-69.26a34.91 34.91 0 00-49.85 4.376L198.47 682.031h-76.66a4.003 4.003 0 01-4.003-4.05V179.386c0-2.187 1.815-4.003 4.002-4.003h783.267c2.188 0 4.003 1.862 4.003 4.003v498.642a4.003 4.003 0 01-4.003 4.05h-405.41a34.91 34.91 0 00-34.91 34.908c0 .745.373 1.35.42 2.095l-.047.326v147.549H292.073a34.91 34.91 0 000 69.818h442.74a34.91 34.91 0 000-69.818H534.947v-115.06h370.13c40.68 0 73.82-33.141 73.82-73.868V179.386c0-40.727-33.14-73.82-73.82-73.82zM750.173 284.812a47.849 47.849 0 11-47.756 47.802c0-26.345 21.411-47.802 47.756-47.802z"/></svg>