<svg class="icon" style="width:1em;height:1em;vertical-align:middle" viewBox="0 0 1024 1024" xmlns="http://www.w3.org/2000/svg" overflow="hidden"><path d="M324.569 833.76h375.333v80.439H324.57zM887.648 109.8H136.824c-44.462 0-80.44 35.978-80.44 80.44v509.504c0 44.462 35.978 80.44 80.44 80.44h750.824c44.461 0 80.44-35.978 80.44-80.44V190.241c0-44.462-36.136-80.44-80.44-80.44zm0 589.944H136.824V190.241h750.824v509.504z"/><path d="M591.654 479.321l95.994 111.862c10.683 12.412 12.254 30.48 3.613 44.619-7.07 11.626-19.952 18.382-33.464 18.382H531.482V545.778c0-3.456-2.828-6.284-6.285-6.284h-25.609c-3.456 0-6.284 2.828-6.284 6.284v108.406H366.988c-13.511 0-26.551-6.756-33.464-18.382-8.64-14.297-7.07-32.207 3.614-44.62l95.993-111.86a153.405 153.405 0 0079.34 22.152c29.065 0 56.088-8.013 79.183-22.153zm-79.183-258.13c71.328 0 128.987 58.759 127.416 130.4-1.571 67.558-56.717 122.703-124.273 124.274-71.8 1.728-130.401-55.93-130.401-127.415-.157-70.228 56.873-127.259 127.258-127.259zm0 0"/></svg>