<svg class="icon" style="width:1.052734375em;height:1em;vertical-align:middle" viewBox="0 0 1078 1024" xmlns="http://www.w3.org/2000/svg" overflow="hidden"><path d="M105.295 105.295h732.532V290.64h73.295V88.867A56.867 56.867 0 00854.677 32H88.867A56.867 56.867 0 0032 88.867v844.581a56.867 56.867 0 0056.867 56.867h291.496v-71.61H105.295z"/><path d="M213.553 234.194h483.58v77.508h-483.58zm0 181.132h427.135v77.508H213.553zm0 167.231H491.57v77.508H213.553zm812.567-70.346L894.273 393.42a51.391 51.391 0 00-38.754-12.636 52.655 52.655 0 00-34.541 17.692L501.68 756.95a60.658 60.658 0 00-15.586 56.867L489.885 992l163.861-18.956a51.812 51.812 0 0039.597-13.48 152.067 152.067 0 0016.85-16.428l164.282-180.29a38.754 38.754 0 00-57.289-52.233L652.483 891.324l-3.791 4.213-84.248 9.688v-99.833l214.41-240.527 108.68 112.05a38.754 38.754 0 0027.8 11.794h3.792a38.333 38.333 0 0031.593-12.637l80.035-90.987a51.812 51.812 0 00-4.634-72.874zM916.6 596.458l-86.775-89.302 32.856-37.07 92.672 84.248z"/></svg>