<svg class="icon" style="width:1em;height:1em;vertical-align:middle" viewBox="0 0 1024 1024" xmlns="http://www.w3.org/2000/svg" overflow="hidden"><path d="M895.531 89.563H128.47c-42.656 0-77.25 34.593-77.25 77.25v690.28c0 42.657 34.593 77.25 77.25 77.25H895.53c42.657 0 77.25-34.593 77.25-77.25v-690.28c0-42.657-34.593-77.25-77.25-77.25zm.375 729.187c0 21.469-17.437 38.813-38.812 38.813H166.812c-21.468 0-38.812-17.438-38.812-38.813v-613.5c0-21.469 17.438-38.813 38.813-38.813h690.28c21.47 0 38.813 17.438 38.813 38.813v613.5z"/><path d="M325.813 498.031c-10.407-5.062-23.344-9.375-39.47-13.219l-2.062-.375c-.844-.28-1.594-.375-3.187-.75-12-2.718-21.469-5.343-28.125-7.78-5.531-2.063-9.938-5.157-13.5-9.282-2.813-3.281-4.125-7.969-4.125-14.625 0-10.219 3-17.438 9.469-22.875 7.312-6.094 18.187-9.188 32.437-9.188 7.969 0 16.031 1.782 23.906 5.157 8.156 3.562 16.594 8.906 24.938 16.031l8.344 7.125 31.218-50.625-8.25-6.938c-8.344-6.937-16.969-12.843-25.687-17.437C323 368.656 314 365.094 305 362.75c-9-2.344-18.375-3.563-27.656-3.563-19.313 0-36.281 3.563-50.344 10.594-14.625 7.406-26.063 18.375-33.844 32.625-7.687 14.156-11.625 31.219-11.625 51 0 22.406 4.313 40.219 12.938 53.063 8.344 12.562 18.656 21.281 30.656 26.062 10.688 4.313 24.094 7.969 40.688 11.25l1.125.094c1.406.563 2.812 1.406 3.75.844 10.5 2.156 18.937 4.593 25.312 7.125 5.25 2.062 9.375 5.156 12.563 9.375 2.625 3.468 3.937 8.531 3.937 15.562 0 9.75-3.188 16.782-9.938 22.032-7.875 6.093-19.593 9.28-34.968 9.28-11.719 0-22.594-2.062-32.531-6.187-9.844-4.125-18.938-10.406-27.094-18.656L200 575.281l-34.031 48.563 7.687 7.5c8.531 8.343 17.719 15.375 27.375 20.906 9.656 5.531 20.25 9.75 31.5 12.563l15.563 3.843 19.5.282c19.969 0 37.406-3.563 51.75-10.407 15-7.218 26.812-18.093 34.875-32.156 8.062-14.063 12.187-31.031 12.187-50.813 0-20.812-3.937-37.78-11.812-50.437-7.594-12.375-17.25-21.469-28.781-27.094zm-43.688-2.062zm454.688-136.781H682.53v309.656h175.313v-62.25H736.812zM613.155 613.063c.563-1.125 1.313-2.063 1.875-3.188 8.907-18 13.407-38.813 13.407-61.781v-72.188c0-22.969-4.5-43.781-13.407-61.781-9.281-18.75-22.593-33.469-39.656-43.781-33.375-20.25-80.906-20.156-114.188 0-17.062 10.312-30.375 25.031-39.656 43.781-8.906 18-13.406 38.813-13.406 61.781v72.188c0 22.968 4.5 43.781 13.406 61.781 9.281 18.75 22.594 33.469 39.656 43.781 16.688 10.125 35.907 15.188 57.094 15.188s40.407-5.157 57.094-15.188c.281-.187.469-.375.75-.562l7.219 7.593c10.312 10.875 27.187 10.875 37.5 0s10.312-28.687 0-39.562l-7.688-8.063zM486.5 606.968c-8.625-5.25-15.094-12.469-19.875-22.032-5.156-10.406-7.594-22.406-7.594-36.843v-72.188c0-14.437 2.531-26.437 7.594-36.844 4.781-9.656 11.25-16.78 19.875-22.03 9-5.438 19.406-8.063 31.781-8.063s22.782 2.625 31.782 8.062c8.625 5.156 15.093 12.375 19.875 22.031 5.156 10.407 7.593 22.407 7.593 36.844v72.188c0 8.906-1.312 16.593-3.281 23.906l-8.438-8.906c-10.312-10.875-27.187-10.875-37.5 0s-10.312 28.687 0 39.562l9 9.469c-16.687 4.969-36.656 3.375-50.812-5.156z"/></svg>