<svg class="icon" style="width:1em;height:1em;vertical-align:middle" viewBox="0 0 1024 1024" xmlns="http://www.w3.org/2000/svg" overflow="hidden"><path d="M485.376 857.202H166.798V702.236h13.426a39.822 39.822 0 100-79.644h-13.426V349.525h13.426a39.822 39.822 0 100-79.644h-13.426V113.778h637.156V472.86a39.822 39.822 0 0079.644 0V73.956a39.822 39.822 0 00-39.822-39.823h-716.8a39.822 39.822 0 00-39.822 39.823v194.787H73.956a39.822 39.822 0 000 79.645h13.198v274.204H73.956a39.822 39.822 0 000 79.644h13.198v194.788a40.05 40.05 0 0039.822 39.822h358.4a39.822 39.822 0 000-79.644z"/><path d="M697.913 312.889a39.822 39.822 0 00-39.822-39.822H312.889a39.822 39.822 0 000 79.644H658.09a39.822 39.822 0 0039.822-39.822zm-385.024 134.03a39.822 39.822 0 000 79.645h291.954a39.822 39.822 0 000-79.645zm185.913 171.35H312.889a39.822 39.822 0 000 79.644h185.913a39.822 39.822 0 000-79.645zm278.755-53.249a212.537 212.537 0 10212.31 212.537 212.764 212.764 0 00-212.31-212.537zm0 345.202a132.892 132.892 0 11132.665-132.665 132.892 132.892 0 01-132.665 132.665z"/><path d="M800.768 750.933v-64.625a26.624 26.624 0 10-53.02 0v91.022a26.396 26.396 0 0026.624 26.396h91.022a26.624 26.624 0 000-53.02z"/></svg>