<svg class="icon" style="width:1em;height:1em;vertical-align:middle" viewBox="0 0 1024 1024" xmlns="http://www.w3.org/2000/svg" overflow="hidden"><path d="M344.274 925.547H137.11v62.15h745.787v-62.15H344.274zm580.05-890.764H95.676c-34.33 0-62.146 27.795-62.146 62.148v580.028c0 34.316 27.815 62.152 62.146 62.152h828.648c34.316 0 62.157-27.836 62.157-62.152V96.931c0-34.353-27.84-62.148-62.157-62.148zm8.196 626.74h-.011c0 11.68-9.46 21.124-21.124 21.124H108.619c-11.677 0-21.128-9.444-21.128-21.123V112.283c0-11.673 9.451-21.124 21.128-21.124h802.766c11.664 0 21.134 9.45 21.134 21.124v549.24zm-241.318 212.07v-58.788H340.179v58.788h351.023z"/><path d="M642.23 169.18h-58.788V590.6h58.787V169.18zm186.65 69.309h-58.787v354.295h58.788V238.489zm-380.942 65.488H389.15V589.51h58.788V303.977zM263.47 373.83h-58.788V590.6h58.788V373.83z"/></svg>