<svg class="icon" style="width:1em;height:1em;vertical-align:middle" viewBox="0 0 1024 1024" xmlns="http://www.w3.org/2000/svg" overflow="hidden"><path d="M1017.173 710.542l-.113-.114-.114-.113C966.77 604.16 889.06 549.547 785.636 549.547S604.5 604.274 554.212 710.315v.113c-6.144 13.085-6.144 28.331 0 41.416 50.29 106.04 128 160.654 231.424 160.654S966.77 857.77 1017.06 751.73c6.144-13.085 6.144-28.217.113-41.188zM785.636 839.68c-70.656 0-122.198-34.133-160.54-108.658 38.228-74.524 89.884-108.658 160.54-108.658 70.656 0 122.197 34.134 160.54 108.658-38.23 74.525-89.884 108.658-160.54 108.658z"/><path d="M722.489 731.591a63.716 63.716 0 10127.431 0 63.716 63.716 0 10-127.431 0zM84.196 193.422H885.19V481.28h81.92V147.911c0-20.139-16.27-36.409-36.409-36.409H38.684c-20.138 0-36.408 16.27-36.408 36.41v591.644c0 20.138 16.27 36.408 36.408 36.408h400.498v-81.92H84.196V193.422z"/><path d="M754.233 314.14l-41.87-41.87c-3.527-3.527-9.33-3.527-12.857 0L490.382 481.621l-97.962-98.076c-3.528-3.527-9.33-3.527-12.857 0L215.38 547.726c-3.527 3.527-3.527 9.33 0 12.857l41.87 41.87c3.528 3.527 9.33 3.527 12.857 0l115.826-115.825 97.963 98.076c3.527 3.527 9.33 3.527 12.857 0l257.479-257.707a8.932 8.932 0 000-12.857z"/></svg>