<svg class="icon" style="width:1em;height:1em;vertical-align:middle" viewBox="0 0 1024 1024" xmlns="http://www.w3.org/2000/svg" overflow="hidden"><path d="M919.4 177.02H119.96c-34.8 0-63 28.2-63 63v527.16c0 34.8 28.2 63 63 63h799.32c34.8 0 63-28.2 63-63V240.02c0-34.8-28.2-63-63-63zm0 34.98c15.42 0 27.96 12.54 27.96 28.02v527.16a28.02 28.02 0 01-28.02 28.02H120.02A28.02 28.02 0 0192 767.18V240.02c0-15.48 12.54-28.02 28.02-28.02h799.32z"/><path d="M714.08 274.76a15 15 0 0114.58 11.58l.42 3.42v77.76a15 15 0 01-29.58 3.42l-.42-3.42v-62.76h-62.76a15 15 0 01-14.58-11.58l-.42-3.42a15 15 0 0111.58-14.58l3.42-.42h77.76zM277.52 864.2h523.2q30 0 30 30t-30 30h-523.2q-30 0-30-30t30-30zM261.5 561.92h49.8q13.98 0 13.98 13.98v205.32q0 13.98-13.98 13.98h-49.8q-13.98 0-13.98-13.98V575.9q0-13.98 13.98-13.98z"/><path d="M703.46 279.2a15 15 0 0123.64 18l-2.4 3.18L568.94 455.9a15 15 0 01-17.22 2.82l-3.18-2.1L401 329.18l-144.72 104.1a15 15 0 01-18.18-.48l-2.76-2.94a15 15 0 01.48-18.12l2.94-2.76 154.32-111a15 15 0 0115.18-1.44l3.36 2.22L557.6 424.82l145.86-145.68zm-148.2 282.72h49.8q13.98 0 13.98 13.98v205.32q0 13.98-13.98 13.98h-49.8q-13.98 0-13.98-13.98V575.9q0-13.98 13.98-13.98z"/><path d="M408.38 445.28h49.8q13.98 0 13.98 13.98v321.96q0 13.98-13.98 13.98h-49.8q-13.98 0-13.98-13.98V459.26q0-13.98 13.98-13.98zm293.76 0h49.8q13.98 0 13.98 13.98v321.96q0 13.98-13.98 13.98h-49.8q-13.98 0-13.98-13.98V459.26q0-13.98 13.98-13.98z"/></svg>