<svg class="icon" style="width:1em;height:1em;vertical-align:middle" viewBox="0 0 1024 1024" xmlns="http://www.w3.org/2000/svg" overflow="hidden"><path d="M948.529 754.935L742.104 562.846c-10.478-9.664-26.658-9.935-37.354-.434l-216.685 192.09c-8.686 7.601-11.618 19.816-7.547 30.621s14.442 17.918 26.007 17.918h67.324v126.286a27.713 27.713 0 0027.798 27.798h235.308c15.311 0 27.799-12.379 27.799-27.798V803.04h64.826c11.456 0 21.718-6.95 25.899-17.591 4.18-10.643 1.464-22.75-6.95-30.515zm-111.574-7.492c-15.419 0-27.798 12.488-27.798 27.798v126.287H629.445V775.24c0-15.31-12.487-27.798-27.798-27.798h-21.88L722.72 620.776l136.167 126.667h-21.933zM646.928 573.977c-28.34-14.822-57.986-27.419-89.802-35.129 89.312-36.701 152.455-124.385 152.455-226.728 0-135.246-110.106-245.244-245.297-245.244-135.3 0-245.298 109.998-245.298 245.244 0 102.344 63.089 190.027 152.348 226.728C196.837 580.872 66.586 737.888 66.586 925.2c0 15.31 12.433 27.798 27.798 27.798s27.798-12.488 27.798-27.798c0-188.67 153.488-342.157 342.103-342.157 49.244 0 95.991 10.696 138.394 29.536l44.249-38.602zM274.583 312.119c0-104.57 85.079-189.647 189.702-189.647 104.57 0 189.701 85.078 189.701 189.647S568.854 501.82 464.285 501.82c-104.623 0-189.702-85.132-189.702-189.701z"/></svg>