<svg class="icon" style="width:1em;height:1em;vertical-align:middle" viewBox="0 0 1024 1024" xmlns="http://www.w3.org/2000/svg" overflow="hidden"><path d="M472.97 46.55a80.426 80.426 0 0177.825 0l359.957 198.9a80.453 80.453 0 0141.557 70.4v394.891a80.402 80.402 0 01-41.557 70.368L550.795 980.075a80.42 80.42 0 01-77.792 0L113.035 781.163a80.4 80.4 0 01-41.547-70.422V315.872c.021-29.259 15.936-56.203 41.547-70.336L472.97 46.517v.032zM226.614 355.626a40.217 40.217 0 00-3.488 30.592 40.242 40.242 0 0019.19 24.085l229.365 126.71V789.76c0 22.208 18.005 40.213 40.213 40.213 22.208 0 40.214-18.005 40.214-40.213V537.035L781.472 410.24c18.539-11.147 24.928-34.965 14.464-53.91-10.464-18.933-34.027-26.197-53.333-16.437L511.893 467.36 281.248 339.893c-19.435-10.73-43.893-3.669-54.635 15.766v-.032zm0 0"/></svg>