<svg class="icon" style="width:1em;height:1em;vertical-align:middle" viewBox="0 0 1024 1024" xmlns="http://www.w3.org/2000/svg" overflow="hidden"><path d="M525.676 631.83c-58.34 1.02-120.516 27.521-186.47 79.505-107.505 84.781-97.732 226.643-97.732 226.643.54 59.838-93.775 68.592-89.338-9.054 0 0-7.435-163.507 123.814-280.665a530.811 530.811 0 0195.334-68.892 299.792 299.792 0 11154.452 52.463zm18.168-96.952a199.841 199.841 0 100-399.742 199.841 199.841 0 000 399.742z"/><path d="M739.008 990.8V826.876a29.98 29.98 0 00-29.98-29.98h-97.432a29.98 29.98 0 00-29.979 29.98V990.86h-44.849a29.98 29.98 0 01-29.979-29.98V825.497h-54.981l186.17-184.552a29.98 29.98 0 0141.971-.3l191.567 184.852h-56.061v135.386a29.98 29.98 0 01-29.98 29.979h-46.467zM631.683 841.985h59.958v148.937h-59.958V841.984z"/></svg>