<svg class="icon" style="width:1.125em;height:1em;vertical-align:middle" viewBox="0 0 1152 1024" xmlns="http://www.w3.org/2000/svg" overflow="hidden"><path d="M118.25 62h900a56.25 56.25 0 0156.25 56.25v112.5H62v-112.5A56.25 56.25 0 01118.25 62zM62 343.25h1012.5v562.5a56.25 56.25 0 01-56.25 56.25h-900A56.25 56.25 0 0162 905.75v-562.5zm478.125 337.5V737h-112.5v56.25h112.5v56.25h56.25v-56.25h112.5V737h-112.5v-56.25h112.5V624.5H608.019l92.643-92.588-39.825-39.825-92.587 92.644-92.587-92.644-39.825 39.825L528.48 624.5H427.625v56.25h112.5z"/></svg>