<svg class="icon" style="width:1em;height:1em;vertical-align:middle" viewBox="0 0 1024 1024" xmlns="http://www.w3.org/2000/svg" overflow="hidden"><path d="M362.172 556.459h-164.01c-11.333 0-20.464 10.53-20.464 23.432 0 12.937 9.148 23.364 20.463 23.364h164.01c11.384 0 20.532-10.461 20.532-23.364 0-12.92-9.216-23.432-20.531-23.432zm545.655-372.532H116.14c-45.04 0-82.006 40.346-82.006 85.42v489.147c0 45.124 36.523 81.561 81.442 81.561h788.532c44.936 0 85.743-36.966 85.743-82.005v-492.1c.017-45.04-37-82.023-82.023-82.023zm16.777 561.135c0 22.528-22.29 41.233-44.732 41.233H136.67c-22.46 0-40.755-18.193-40.755-40.806V281.327c0-22.545 18.79-44.442 41.318-44.442h746.325c22.46 0 41.012 18.484 41.012 41.046l.034 467.131zM801.075 343.535H198.144c-11.332 0-20.463 13.141-20.463 29.355 0 16.196 9.148 29.303 20.463 29.303h602.931c11.332 0 20.463-13.073 20.463-29.27.034-16.178-9.096-29.388-20.463-29.388z"/><path d="M800.46 551.868c-13.994-17.698-37.836-17.306-37.836-17.306h-53.811s-23.825-.392-37.786 17.306c-13.994 17.664-13.636 23.774-13.636 31.607v61.696s2.133 18.859 12.766 28.297c10.7 9.403 21.401 19.03 36.198 18.637 12.135-.342 46.507-.342 58.727 0 14.865.392 25.514-9.234 36.147-18.637 10.769-9.438 12.749-28.297 12.749-28.297v-61.696c.05-7.833.426-13.943-13.517-31.607zm-30.36 95.76h-68.626v-68.624H770.1v68.625z"/></svg>