<svg class="icon" style="width:1.0009765625em;height:1em;vertical-align:middle" viewBox="0 0 1025 1024" xmlns="http://www.w3.org/2000/svg" overflow="hidden"><path d="M804.763 785.773H418.797c-.127-11.978-.27-25.575-.36-34.613h375.038c88.522 0 160.59-72.067 160.59-160.597V570.56H992v27.983c0 103.507-83.73 187.23-187.237 187.23zm161.46-267.158H906.68v-.128H639.508c-47.64 0-86.31-38.662-86.31-86.302 0-47.64 38.67-86.31 86.31-86.31h267.164v-.128h59.543v.128H992v172.613h-25.785v.127zM645.402 383.69c-26.888 0-48.615 21.727-48.615 48.502 0 26.76 21.727 48.488 48.615 48.488 26.767 0 48.502-21.727 48.502-48.487 0-26.775-21.735-48.503-48.502-48.503zm308.654-109.882c0-88.523-72.067-160.47-160.59-160.47h-448.74c-88.522 0-160.59 71.947-160.59 160.47v316.755c0 19.837 3.788 38.752 10.396 56.31a694.166 694.166 0 00-41.318 1.95c-4.447-16.02-7.012-32.828-7.012-50.273V265.82c0-103.373 83.73-187.222 187.11-187.222h471.45C908.27 78.59 992 162.447 992 265.82v27.997h-37.943v-20.01zm-575.062 455.28c0 27.817-77.677 50.362-173.498 50.362C109.678 779.45 32 756.905 32 729.087c0-27.825 77.677-50.37 173.498-50.37 95.82 0 173.497 22.546 173.497 50.37zM33.545 759.02c.878 1.748 4.073 6.067 4.073 6.067l6.945 6.105 12.33 7.155 17.505 6.983 24.375 6.72 25.365 4.845 38.107 4.522 39.383 1.29 36.48-.967 34.544-2.917 33.713-5.498 25.312-6.42 17.843-6.472 10.178-4.995 12.345-8.948 6.345-10.095s.6 56.963.6 57.293c0 27.825-77.678 50.37-173.498 50.37C109.677 864.035 32 841.498 32 813.673c0-.735.27-58.515.27-58.515s1.005 3.322 1.275 3.862zm0 81.368c.877 1.732 4.072 6.06 4.072 6.06l6.946 6.097 12.33 7.155 17.504 6.99 24.375 6.72 25.365 4.838 38.108 4.522 39.383 1.298 36.48-.968 34.544-2.91 33.713-5.505 25.312-6.412 17.843-6.473 10.178-5.002 12.345-8.94 6.345-10.095s.6 56.947.6 57.284c0 27.818-77.678 50.378-173.498 50.378C109.677 945.41 32 922.85 32 895.033c0-.728.27-58.515.27-58.515s1.005 3.33 1.275 3.87zM639.508 570.56h293.677v20.003c0 77.1-62.617 139.725-139.717 139.725H404.285c9.42-6.938 14.768-14.475 14.768-22.38 0-32.933-89.738-59.715-202.148-61.095-7.605-17.22-11.895-36.218-11.895-56.243V273.807c0-77.1 62.602-139.725 139.71-139.725h448.748c77.1 0 139.717 62.626 139.717 139.726v20.01H639.508c-76.238 0-138.368 62.122-138.368 138.367 0 76.238 62.13 138.375 138.368 138.375zm-228.9 182.79l-6.735 4.875c-.105-2.422-.39-4.793-.93-7.065h9.045l-1.38 2.19z"/></svg>