<svg class="icon" style="width:1em;height:1em;vertical-align:middle" viewBox="0 0 1024 1024" xmlns="http://www.w3.org/2000/svg" overflow="hidden"><path d="M942.763 432.128L528.612 47.332c-8.761-8.079-22.3-8.079-31.062 0L83.4 432.128c-15.133 14.108-5.235 39.48 15.473 39.48h48.355v453.86c0 12.63 10.354 22.984 22.984 22.984h682.097c12.63 0 22.983-10.354 22.983-22.984v-453.86h51.997c20.707 0 30.72-25.372 15.474-39.48zm-288.882 21.39l-120.718 129.82v16.27h99.214c5.006 0 9.671 1.935 13.88 5.917 4.21 3.755 6.372 8.875 6.372 15.474 0 6.372-2.161 11.264-6.371 14.677-4.21 3.414-8.875 5.12-13.881 5.12h-99.214v39.595h99.1c5.006 0 9.671 1.934 13.881 5.917 4.21 3.754 6.372 8.874 6.372 15.473 0 6.372-2.162 11.264-6.372 14.678-4.21 3.413-8.875 5.12-13.88 5.12h-99.215v62.35c0 5.006-2.162 9.216-6.372 12.743-4.778 4.551-9.67 6.6-14.677 6.372-5.006 0-9.671-1.935-13.88-5.917-4.21-3.982-6.372-8.306-6.372-13.084v-62.35h-102.06c-5.802 0-10.467-2.162-13.88-6.372-3.982-4.551-5.916-9.216-5.916-14.336 0-5.575 1.706-10.468 5.12-14.677 3.413-3.983 8.305-5.917 14.677-5.917h102.059v-39.48h-102.06c-5.802 0-10.467-2.163-13.88-6.372-3.982-4.551-5.916-9.216-5.916-14.336 0-5.575 1.706-10.468 5.12-14.678 3.413-3.982 8.305-5.916 14.677-5.916h102.4v-17.067L366.023 448.74c-2.617-3.755-3.527-8.761-2.73-15.133.796-5.803 3.185-10.354 7.167-13.54 3.755-3.185 8.761-4.323 15.133-3.527 6.371 1.024 11.264 4.096 14.677 9.103l113.095 119.921L620.544 430.08c4.779-6.03 10.012-9.899 15.929-11.492 5.803-1.365 10.809-.227 15.132 3.186 4.551 3.755 7.168 8.42 7.965 14.336.341 5.803-1.48 11.606-5.69 17.408z"/></svg>