<svg class="icon" style="width:1em;height:1em;vertical-align:middle" viewBox="0 0 1024 1024" xmlns="http://www.w3.org/2000/svg" overflow="hidden"><path d="M545.188 860.937H91.53c-7.543 0-6.836-4.144-23.885-9.827v-8.08c0-1.1 3.101-111.29 90.42-156.934 29.294-15.317 39.072-16.648 49.719-18.52 11.73-2.045 26.332-4.598 65.326-21.58 75.006-32.63 94.318-44.556 96.273-45.815l8.068-5.177.833-86.073-.599-10.825-8.583-5.228c-.209-.124-21.012-13.45-28.238-72.05l-2.232-20.688-17.414 5.282c-1.723-3.165-4.263-10.79-4.987-22.718-.159-2.866-.542-6.697-.99-11.086-.733-7.204-2.449-24.08-1.556-33.506l17.006 3.707-3.162-25.023c-3.315-26.197-7.534-62.921-6.004-79.412 4.604-49.611 50.467-104.54 124.807-108.615 104.858 4.757 122.824 77.541 125.688 108.667 1.432 15.04-2.172 46.99-6.287 79.272l-4.003 25.041 17.815-3.828c.906 9.424-.89 26.493-1.657 33.767-.449 4.301-.833 8.062-1.014 10.981-.642 11.299-3.14 19.236-4.938 22.595l-17.124-5.192-2.565 20.69c-7.199 58.06-27.704 71.549-27.596 71.549 0 0 0 .01.009.01l-9.981 4.883.865 97.66 8.291 5.228c.583.355 11.645 7.202 49.638 24.735l7.359-36.053c-15.23-7.088-25.303-12.08-31.382-15.226l-.49-56.064c10.68-10.023 26.913-32.125 34.948-77.68 15.474-5.875 25.332-25.515 26.997-54.894.148-2.413.492-5.613.881-9.286 2.921-27.856 4.396-52.024-7.276-65.718a26.038 26.038 0 00-3.147-3.13c4.03-33.26 6.068-57.375 4.596-72.835-2.906-31.511-22.869-134.81-159.77-140.95-95.003 5.108-152.618 76.421-158.596 140.915-1.309 13.99-.009 36.182 4.329 72.888a28.404 28.404 0 00-3.147 3.132c-11.656 13.62-10.263 37.72-7.442 65.49.383 3.742.724 7.012.866 9.515 1.773 29.412 11.62 49.035 26.998 54.944 7.998 45.591 24.234 67.748 34.904 77.786l-.549 56.398c-11.23 5.926-35.754 18.08-83.505 38.857-35.388 15.423-47.326 17.505-57.858 19.342-12.536 2.186-23.367 4.072-57.225 21.77-83.696 43.755-102.077 132.87-106.108 171.1h-.104c-.988 6.247-3.853 26.922-.326 36.966 9.225 19.977 30.393 34.661 53.102 34.661h402.42v.055h51.31v-34.206h-.072v-1.667z"/><path d="M990.733 725.544a10.792 10.792 0 00-1.91-1.904l-20.898-20.836-202.118-202.118-3.817 3.817-1.04-1.037-199.777 199.337-21.364 21.209a10.87 10.87 0 00-3.432 7.931c0 6.028 4.887 10.915 10.915 10.915h15.071v.018h51.31v188.136H921.53V742.876h51.31v-.018h9.424c5.928 0 10.732-4.806 10.732-10.733a10.664 10.664 0 00-2.263-6.58zM887.325 708.67V896.806H647.88V708.67h-44.64l161.265-160.91 160.91 160.91h-38.09z"/></svg>