<svg class="icon" style="width:1em;height:1em;vertical-align:middle" viewBox="0 0 1024 1024" xmlns="http://www.w3.org/2000/svg" overflow="hidden"><path d="M349.867 463.679a26.68 26.68 0 000 53.339h84.798v54.18a26.68 26.68 0 0053.34 0v-54.18h85.97a26.68 26.68 0 000-53.34h-85.982v-34.451h85.97a26.68 26.68 0 000-53.34h-40.425l39.037-80.315a26.624 26.624 0 00-12.379-35.624 26.624 26.624 0 00-35.612 12.368l-50.358 103.583h-30.072l-50.346-103.583a26.715 26.715 0 00-35.636-12.368 26.715 26.715 0 00-12.367 35.624l39.037 80.327h-34.975a26.68 26.68 0 000 53.328h84.798v34.452h-84.798zm589.972 36.91a26.658 26.658 0 00-26.67-26.557h-63.681a380.757 380.757 0 00-29.548-172.805 385.013 385.013 0 00-82.444-122.346 383.83 383.83 0 00-122.345-82.454 382.657 382.657 0 00-149.766-30.288c-51.95 0-102.286 10.126-149.754 30.288a385.013 385.013 0 00-122.345 82.454 383.83 383.83 0 00-82.455 122.346 382.657 382.657 0 00-30.3 149.765c0 111.673 47.788 215.996 130.14 288.53-48.105 11.946-83.854 55.466-83.854 107.2 0 63.682 51.848 115.417 115.427 115.417H518.61c4.802 0 9.5-1.286 13.654-3.743l190.828-113.38h191.681a26.783 26.783 0 0026.67-26.874l-1.593-317.554zM133.87 451.094c0-182.83 148.685-331.526 331.514-331.526 182.83 0 331.526 148.708 331.526 331.526 0 7.68-.319 15.36-.853 23.04H667.523c-6.827 0-13.335 2.56-18.239 7.247L509.11 613.33a21.356 21.356 0 00-1.707 1.502l-111.24 104.96-.535.524-17.067 16.11h-86.084a28.501 28.501 0 00-7.247-7.042c-94.834-61.554-151.36-165.547-151.36-278.3zM715.617 791.79c-4.79 0-9.49 1.274-13.654 3.732L511.25 908.903H242.244a62.134 62.134 0 01-62.088-62.078 57.128 57.128 0 0157.07-57.07h140.266a72.135 72.135 0 007.782 17.066 69.222 69.222 0 0058.14 32.108c15.577 0 30.835-5.222 43.088-15.132l148.06-118.409a26.624 26.624 0 10-33.28-41.597l-148.06 118.397a15.542 15.542 0 01-20.582-23.256l245.646-231.356h208.441l1.274 264.42H715.628v-.205z"/></svg>