<svg class="icon" style="width:1em;height:1em;vertical-align:middle" viewBox="0 0 1024 1024" xmlns="http://www.w3.org/2000/svg" overflow="hidden"><path d="M515.152 550.703zm30.036 310.234h-1.736c-9.883-9.663-59.103-59.974-66.465-105.622-8.186-50.753 96.483-130.49 96.483-130.49l7.36-36.054c-15.23-7.087-25.303-12.08-31.382-15.225l-.491-56.064c10.68-10.023 26.914-32.125 34.948-77.681 15.475-5.875 25.333-25.514 26.998-54.893.148-2.413.491-5.614.881-9.287 2.921-27.855 4.396-52.023-7.276-65.717a26.038 26.038 0 00-3.147-3.13c4.03-33.26 6.068-57.376 4.595-72.835-2.905-31.511-22.868-134.811-159.77-140.95-95.002 5.107-152.617 76.421-158.595 140.915-1.309 13.99-.009 36.182 4.329 72.888a28.404 28.404 0 00-3.147 3.131c-11.656 13.622-10.264 37.72-7.442 65.491.383 3.742.724 7.012.866 9.515 1.773 29.412 11.62 49.034 26.997 54.944 8 45.59 24.234 67.748 34.905 77.785l-.549 56.399c-11.23 5.925-35.754 18.08-83.505 38.857-35.388 15.423-47.326 17.505-57.858 19.342-12.537 2.186-23.367 4.072-57.225 21.77-83.696 43.755-102.077 132.87-106.108 171.1h-.104c-.988 6.247-3.853 26.922-.326 36.966 9.225 19.977 30.393 34.661 53.101 34.661h402.421v.055h51.31v-34.206h-.073v-1.665zm-30.036-310.234z"/><path d="M990.733 725.544a10.792 10.792 0 00-1.91-1.904l-20.898-20.836-202.118-202.118-3.817 3.817-1.04-1.037-199.777 199.337-21.364 21.209a10.87 10.87 0 00-3.432 7.931c0 6.028 4.887 10.915 10.915 10.915h15.071v.018h51.31v188.136H921.53V742.876h51.31v-.018h9.424c5.928 0 10.732-4.806 10.732-10.733a10.664 10.664 0 00-2.263-6.58z"/></svg>