<svg class="icon" style="width:1em;height:1em;vertical-align:middle" viewBox="0 0 1024 1024" xmlns="http://www.w3.org/2000/svg" overflow="hidden"><path d="M767.76 448.43l.43-96.47v-.14c0-68.43-26.65-132.76-75.03-181.14-48.39-48.39-112.72-75.03-181.14-75.03-68.43 0-132.76 26.65-181.14 75.03-48.36 48.36-75.01 112.66-75.03 181.06l-.43 96.69H150.08c-11.01 0-19.94 8.93-19.94 19.94v439.59c0 11.01 8.93 19.94 19.94 19.94h723.87c11.01 0 19.94-8.93 19.94-19.94V468.37c0-11.01-8.93-19.94-19.94-19.94H767.76zm-447.92-96.47v-.14c0-105.97 86.21-192.18 192.18-192.18 105.95 0 192.15 86.18 192.18 192.13l-.43 96.65H319.41l.43-96.46zM829.89 863.9H194.13V512.43h635.75V863.9z"/><path d="M556.05 630.08c0-25.21-20.92-45.54-46.34-44.57-22.59.86-41.22 18.89-42.76 41.45-.98 14.33 4.82 27.33 14.5 36.14l-30.4 92.29c-2.06 6.25 2.59 12.68 9.17 12.68h102.47c6.58 0 11.23-6.43 9.17-12.68l-30.4-92.29c8.96-8.17 14.59-19.93 14.59-33.02z"/></svg>