<svg class="icon" style="width:1em;height:1em;vertical-align:middle" viewBox="0 0 1024 1024" xmlns="http://www.w3.org/2000/svg" overflow="hidden"><path d="M458.07 612.01v355.67H102.4a355.67 355.67 0 01355.67-355.67zm0-44.44a266.65 266.65 0 01-266.788-266.72A266.65 266.65 0 01458.07 34.133a266.65 266.65 0 01266.718 266.718A266.65 266.65 0 01458.07 567.57zm115.37 258.388a156.058 156.058 0 010-72.157l-44.169-25.464 44.442-77.005 44.1 25.464c17.75-16.794 39.117-29.15 62.464-36.113v-50.859h88.884v50.859c23.688 7.031 45.056 19.592 62.464 36.113l44.1-25.464 44.441 77.005-44.1 25.464a154.99 154.99 0 010 72.09l44.1 25.463-44.373 77.004-44.168-25.463a155.253 155.253 0 01-62.464 36.045v50.927h-88.884V938.94a155.375 155.375 0 01-62.464-36.045l-44.1 25.463-44.373-77.004 44.032-25.396zm151.279-80.554a44.442 44.442 0 100 88.883 44.442 44.442 0 000-88.883z"/></svg>