<svg class="icon" style="width:1em;height:1em;vertical-align:middle" viewBox="0 0 1024 1024" xmlns="http://www.w3.org/2000/svg" overflow="hidden"><path d="M285.461 510.336c61.66 0 225.66 2.351 225.66 2.351s-2.35-164.001-2.35-225.66a223.31 223.31 0 10-223.31 223.309zM175.194 176.759a155.944 155.944 0 01266.211 110.268c0 35.875.766 104.852 1.427 157.37-52.519-.66-121.522-1.426-157.37-1.426a155.944 155.944 0 01-110.268-266.212zm784.884 110.268a223.31 223.31 0 10-446.605 0c0 61.659-2.351 225.66-2.351 225.66s163.988-2.351 225.66-2.351a223.31 223.31 0 00223.296-223.31zm-379.24 0A155.944 155.944 0 11736.782 442.97c-35.888 0-104.865.766-157.384 1.426.66-52.518 1.44-121.495 1.44-157.37zM62.152 738.69a223.31 223.31 0 00446.619 0c0-61.672 2.35-225.66 2.35-225.66s-164 2.35-225.66 2.35A223.31 223.31 0 0062.152 738.69zm379.253 0a155.944 155.944 0 11-155.944-155.97c35.876 0 104.852-.78 157.37-1.44-.66 52.518-1.426 121.495-1.426 157.41zm295.377-223.336c-61.672 0-225.66-2.351-225.66-2.351s2.35 163.988 2.35 225.66a223.31 223.31 0 10223.31-223.309zM847.05 848.932a155.944 155.944 0 01-266.212-110.241c0-35.889-.78-104.865-1.44-157.384 52.519.66 121.522 1.44 157.384 1.44A155.957 155.957 0 01847.05 848.958z"/></svg>