<svg class="icon" style="width:1em;height:1em;vertical-align:middle" viewBox="0 0 1024 1024" xmlns="http://www.w3.org/2000/svg" overflow="hidden"><path d="M793.031 310.613c0-155.875-126.293-282.169-282.169-282.169s-282.169 126.294-282.169 282.17c0 94.207 46.194 177.72 117.191 228.92-.455.228-.796.342-1.024.455-50.858 21.504-96.483 52.338-135.736 91.705-39.254 39.254-69.974 84.992-91.478 135.965-21.049 49.834-32.313 102.741-33.45 157.127-.114 5.12 3.982 9.33 9.102 9.33h68.153c4.892 0 8.988-3.983 9.102-8.875 2.275-87.837 37.433-170.098 99.67-232.448 64.284-64.512 149.617-100.01 240.64-100.01 155.875 0 282.168-126.294 282.168-282.17zM510.862 506.311c-108.089 0-195.698-87.609-195.698-195.698s87.61-195.697 195.698-195.697S706.56 202.524 706.56 310.613s-87.609 195.698-195.698 195.698zM630.33 757.76h300.373c5.006 0 9.102-4.096 9.102-9.102v-63.716c0-5.006-4.096-9.102-9.102-9.102H729.884l53.704-68.38a9.21 9.21 0 001.934-5.576c0-5.006-4.096-9.102-9.102-9.102h-82.603c-5.575 0-10.809 2.617-14.336 6.94l-77.938 99.101c-5.006 6.372-7.737 14.336-7.737 22.528.114 20.139 16.384 36.409 36.523 36.409zm273.067 72.818H603.022c-5.006 0-9.102 4.096-9.102 9.102v63.716c0 5.006 4.096 9.102 9.102 9.102H803.84l-53.703 68.38a9.21 9.21 0 00-1.934 5.575c0 5.007 4.096 9.103 9.102 9.103h82.603c5.575 0 10.808-2.617 14.336-6.94l77.937-99.101c5.007-6.372 7.737-14.336 7.737-22.528-.114-20.139-16.384-36.41-36.522-36.41z"/></svg>