<svg class="icon" style="width:1em;height:1em;vertical-align:middle" viewBox="0 0 1024 1024" xmlns="http://www.w3.org/2000/svg" overflow="hidden"><path d="M845.013 712.427c-27.093-27.094-58.346-48.747-92.16-64.427C801.173 608.853 832 549.12 832 482.133c0-118.186-98.56-215.146-216.747-213.333-116.373 1.813-210.133 96.64-210.133 213.333 0 66.987 30.933 126.72 79.147 165.867-33.814 15.68-64.96 37.227-92.16 64.427-58.24 58.346-91.307 135.36-93.44 217.493-.107 4.8 3.733 8.747 8.533 8.747h59.733c4.587 0 8.427-3.627 8.534-8.214 2.026-61.866 27.093-119.786 71.146-163.733 45.974-45.973 107.094-71.253 172.054-71.253 64.96 0 126.08 25.28 172.053 71.253 43.947 43.947 69.013 101.867 71.147 163.733.106 4.587 3.946 8.214 8.533 8.214h59.733c4.8 0 8.64-3.947 8.534-8.747-2.134-82.133-35.2-159.147-93.654-217.493zm-226.346-93.76c-36.48 0-70.827-14.187-96.534-40-26.133-26.134-40.426-60.907-40-97.92.32-34.987 14.294-68.8 38.72-93.867 25.6-26.24 59.84-40.853 96.427-41.28 36.16-.32 71.253 13.76 97.067 39.04 26.453 25.92 40.96 60.587 40.96 97.493 0 36.48-14.187 70.72-40 96.534-25.814 25.813-60.16 40-96.64 40z"/><path d="M351.467 510.293c-.96-9.28-1.494-18.666-1.494-28.16 0-16.96 1.6-33.493 4.587-49.6.747-3.84-1.28-7.786-4.8-9.386-14.507-6.507-27.84-15.467-39.36-26.774-27.52-26.88-42.347-63.253-41.28-101.76.96-34.24 14.72-66.773 38.72-91.306 26.347-26.987 61.76-41.707 99.413-41.28 34.027.32 66.88 13.44 91.734 36.693a139.595 139.595 0 0121.76 26.027c2.133 3.306 6.293 4.693 9.92 3.413 18.773-6.507 38.613-11.093 58.986-13.227 5.974-.64 9.387-7.04 6.72-12.373C561.707 133.973 490.88 86.613 408.96 85.333 290.667 83.52 192.107 180.48 192.107 298.56c0 66.987 30.826 126.72 79.146 165.867-33.92 15.68-65.173 37.333-92.266 64.426-58.454 58.347-91.52 135.36-93.654 217.6-.106 4.8 3.734 8.747 8.534 8.747h59.84c4.586 0 8.426-3.627 8.533-8.213 2.027-61.867 27.093-119.787 71.147-163.734 31.36-31.36 69.76-53.12 111.68-63.68 4.16-1.066 6.933-5.013 6.4-9.28z"/></svg>