<svg class="icon" style="width:1em;height:1em;vertical-align:middle" viewBox="0 0 1024 1024" xmlns="http://www.w3.org/2000/svg" overflow="hidden"><path d="M972.464 839.392l-48.8-33.456c0-6.272 2.128-12.544 2.128-20.912s0-14.625-2.128-20.912l44.56-35.536c4.24-4.192 4.24-8.352 2.112-12.544l-42.432-73.152c-2.112-2.096-6.352-4.192-12.72-2.096l-53.04 20.912c-10.608-8.353-23.344-14.64-36.08-20.912l-8.48-54.352c2.112-6.256-4.24-10.432-8.496-10.432h-84.88c-4.24 0-10.608 4.176-10.608 8.352l-8.48 56.432c-12.736 4.176-23.343 12.544-36.064 20.912l-50.944-20.912c-6.352-2.096-10.592 0-14.848 4.176l-42.431 73.168c-2.129 2.096 0 8.352 4.256 12.544l44.543 33.44c0 6.288-2.112 12.544-2.112 20.912s0 14.64 2.112 20.912l-44.544 35.552c-4.256 4.176-4.256 8.352-2.128 12.528l42.432 73.168c2.128 2.096 6.352 4.176 12.72 2.096l53.04-20.912c10.608 8.352 23.344 14.624 36.08 20.912l8.48 54.336c0 4.192 4.256 8.352 10.608 8.352h84.88c4.24 0 10.608-4.176 10.608-8.352l8.48-54.336c12.736-6.288 25.456-12.543 36.064-20.912l53.04 20.912c4.256 2.08 10.608 0 12.736-4.192l42.432-73.152c2.16-4.192 2.16-10.448-2.096-12.544zm-205.808 18.815c-40.32 0-74.272-33.455-74.272-73.167s33.952-73.153 74.272-73.153 74.272 33.44 74.272 73.153-33.952 73.168-74.272 73.168zM496 784c0-141.392 114.608-256 256-256 10.864 0 21.504.896 32 2.208V112c0-26.513-21.488-48-48-48H96c-26.512 0-48 21.487-48 48v800c0 26.513 21.488 48 48 48h470.416c-43.536-45.888-70.415-107.744-70.415-176zM128 160h576v48H128v-48zm0 208h544v48H128v-48zm0 192h416v48H128v-48zm352 240H128v-48h352v48z"/></svg>