<svg class="icon" style="width:1em;height:1em;vertical-align:middle" viewBox="0 0 1024 1024" xmlns="http://www.w3.org/2000/svg" overflow="hidden"><path d="M510.555 1021.11H218.809v-43.762a43.762 43.762 0 0143.762-43.762h247.984v87.524zm510.555-291.746a21.152 21.152 0 00-23.34-17.505 64.184 64.184 0 01-61.996-32.092 63.455 63.455 0 014.376-72.936 19.693 19.693 0 00-6.564-23.34 232.667 232.667 0 00-80.96-47.408 21.152 21.152 0 00-26.257 10.94 67.101 67.101 0 01-59.807 38.656 63.455 63.455 0 01-57.62-38.656 20.422 20.422 0 00-27.716-10.94 232.667 232.667 0 00-80.96 47.408 19.693 19.693 0 00-4.376 27.716 62.725 62.725 0 014.377 72.936 64.913 64.913 0 01-61.996 32.092 21.152 21.152 0 00-23.34 17.505 371.246 371.246 0 00-4.376 46.68 347.177 347.177 0 004.376 47.408 21.152 21.152 0 0023.34 16.775 66.372 66.372 0 0161.996 32.092 64.184 64.184 0 01-4.377 72.937 19.693 19.693 0 004.377 27.716 242.149 242.149 0 0080.959 43.762 19.693 19.693 0 0025.528-10.94 68.56 68.56 0 0159.808-37.928 62.725 62.725 0 0158.349 37.927 19.693 19.693 0 0018.963 13.129 8.023 8.023 0 006.564 0 242.149 242.149 0 0080.96-46.68 19.693 19.693 0 004.376-27.716 64.184 64.184 0 01-4.376-72.936 66.372 66.372 0 0161.996-32.092 21.152 21.152 0 0023.34-16.775 382.187 382.187 0 004.376-47.409 333.32 333.32 0 000-50.326zM768.75 861.379a85.336 85.336 0 1186.065-85.336 85.336 85.336 0 01-88.253 86.795z"/><path d="M1021.11 72.936A72.936 72.936 0 00948.173 0H72.936A72.936 72.936 0 000 72.936v656.428A72.936 72.936 0 0072.936 802.3H320.92a43.762 43.762 0 000-87.523H87.524V87.524h846.062v249.442a43.762 43.762 0 0087.524 0z"/><path d="M838.769 255.277v45.95a72.936 72.936 0 01-85.336 72.937 334.049 334.049 0 00-60.537-9.482 327.484 327.484 0 00-305.604 210.057 72.936 72.936 0 01-67.101 45.22h-64.914a72.936 72.936 0 01-72.936-72.936V255.277a72.936 72.936 0 0172.936-72.936h510.555a72.936 72.936 0 0172.937 72.936z"/></svg>