<svg class="icon" style="width:1em;height:1em;vertical-align:middle" viewBox="0 0 1024 1024" xmlns="http://www.w3.org/2000/svg" overflow="hidden"><path d="M713 623.75c-23.25-14.25-48-27-73.5-36.75 81.75-52.5 134.25-144.75 134.25-249.75 0-163.5-126.75-295.5-289.5-295.5s-289.5 132-289.5 295.5c0 105.75 53.25 198 135 249.75C189.5 640.25 86 764.75 66.5 917.75c-.75 3-1.5 6-1.5 9 0 .75 0 2.25-.75 3H65c0 21 17.25 38.25 38.25 38.25s38.25-17.25 38.25-38.25V926c0-3.75-.75-6.75-1.5-9.75 27-162.75 168-282 340.5-284.25h7.5c57.75.75 111.75 14.25 159 39 19.5-19.5 41.25-35.25 66-47.25zM484.25 560c-123 0-223.5-99.75-223.5-223.5 0-123 99.75-223.5 223.5-223.5 123 .75 222.75 101.25 222.75 224.25S607.25 560 484.25 560zM927.5 830c.75-5.25 1.5-11.25 1.5-17.25s-.75-11.25-1.5-17.25L965 767c3.75-2.25 4.5-7.5 2.25-11.25l-35.25-60c-2.25-3.75-6.75-5.25-10.5-3.75l-44.25 17.25c-9-6.75-19.5-12.75-30-17.25l-6.75-45.75c-.75-4.5-4.5-7.5-9-7.5h-71.25c-4.5 0-8.25 3-9 7.5L744.5 692c-10.5 4.5-21 10.5-30 17.25L670.25 692c-3.75-1.5-9 0-10.5 3.75l-35.25 60c-2.25 3.75-1.5 8.25 2.25 11.25l37.5 28.5c-.75 5.25-1.5 11.25-1.5 17.25s.75 11.25 1.5 17.25l-37.5 28.5c-3.75 2.25-4.5 7.5-2.25 11.25l35.25 60c2.25 3.75 6.75 5.25 10.5 3.75l44.25-17.25c9 6.75 19.5 12.75 30 17.25l6.75 45.75c.75 4.5 4.5 7.5 9 7.5h71.25c4.5 0 8.25-3 9-7.5l6.75-45.75c10.5-4.5 21-10.5 30-17.25l44.25 17.25c3.75 1.5 9 0 10.5-3.75l35.25-60c2.25-3.75 1.5-8.25-2.25-11.25L927.5 830zm-132 43.5c-34.5 0-62.25-27-62.25-60.75S761 752 795.5 752s62.25 27 62.25 60.75S830 873.5 795.5 873.5z"/></svg>