<svg class="icon" style="width:1em;height:1em;vertical-align:middle" viewBox="0 0 1024 1024" xmlns="http://www.w3.org/2000/svg" overflow="hidden"><path d="M178.087 747.528c-47.702 0-83.478-35.776-83.478-83.478V175.106c0-47.702 35.776-83.479 83.478-83.479h488.944c47.702 0 83.478 35.777 83.478 83.479v220.62s41.74 5.963 59.628 11.926V151.255C810.137 85.665 756.472 32 690.882 32H154.236C88.646 32 34.981 85.665 34.981 151.255V687.9c0 65.59 53.665 119.254 119.255 119.254h238.51c-5.963-17.888-5.963-59.627-11.926-59.627H178.087z"/><path d="M434.484 413.615c17.889 0 35.777 5.963 53.665 5.963-17.888-5.963-35.776-5.963-53.665-5.963z"/><path d="M488.15 419.578h-5.964c59.628-23.851 101.367-89.441 83.479-166.957-11.926-41.739-53.665-77.515-95.404-89.44-89.441-23.852-172.92 41.738-172.92 131.18 0 59.627 35.777 107.328 89.442 125.217h-5.963C279.453 443.428 207.9 538.832 213.863 646.16c0 5.963 5.963 17.889 17.889 17.889h220.62s23.852-41.74 29.814-47.702H255.602c11.926-89.441 89.441-155.031 178.882-155.031 47.702 0 89.441 17.888 119.255 47.702 11.926-11.926 17.888-17.889 29.814-23.851l11.925-5.963c-29.813-29.814-65.59-47.702-107.329-59.627zM345.042 294.36c0-47.702 41.74-89.44 89.441-89.44s89.441 41.738 89.441 89.44-41.739 89.441-89.44 89.441-89.442-41.739-89.442-89.44zM750.51 693.863c-29.814-11.925-65.59 0-77.516 29.814-11.926 29.814 0 65.59 29.813 77.516 5.963 0 11.926 5.962 17.889 5.962 23.85 5.963 47.702-5.962 59.627-29.813 11.925-23.851 5.963-47.702-11.925-65.59l-17.889-17.889z"/><path d="M911.503 771.379c17.888-5.963 35.777-11.926 47.702-11.926v-41.739-5.962c-11.925-5.963-29.814-5.963-47.702-5.963 0-11.926-5.963-23.851-11.925-29.814l35.776-35.776c-5.963-11.926-11.925-23.851-23.85-35.777-11.926 5.963-29.815 11.926-47.703 17.889l-23.85-23.851c5.962-17.889 11.925-35.777 11.925-47.702l-35.777-17.888-5.962 5.962c-5.963 11.926-17.889 17.888-29.814 29.814h-11.925c-5.963 0-11.926-5.963-23.851-5.963-5.963-17.888-11.926-35.776-11.926-47.702h-41.739-5.963c0 11.926-5.962 29.814-5.962 47.702-11.926 0-17.889 5.963-29.814 11.926l-35.777-35.777c-5.962 5.963-11.925 11.926-23.85 17.888 0 0-5.963 5.963-11.926 5.963 5.963 11.926 11.926 29.814 17.888 47.702l-23.85 23.851h-5.963c-11.926-5.963-29.814-5.963-41.74-11.925 0 5.962-5.962 5.962-5.962 11.925-5.963 5.963-11.926 17.888-11.926 29.814 5.963 5.962 11.926 11.925 17.888 11.925s11.926 11.926 23.851 17.888c-5.962 11.926-5.962 23.851-5.962 35.777-17.889 5.962-35.777 11.925-47.702 11.925v47.702c11.925 5.963 29.813 5.963 47.702 5.963 0 5.963 5.962 11.925 5.962 17.888 0 5.963 0 11.925 5.963 17.888l-23.85 23.851c-5.964 5.963-5.964 11.926-11.926 11.926 5.962 11.925 11.925 23.85 23.85 35.776 11.926-5.963 29.814-11.925 47.703-17.888l23.85 23.85c-5.962 17.889-11.925 35.777-11.925 47.703l35.776 17.888c11.926-11.926 17.889-23.851 29.814-35.777 11.926 5.963 23.851 5.963 35.776 5.963 5.963 17.888 11.926 35.777 11.926 47.702h47.702c5.963-11.925 5.963-29.814 5.963-47.702 11.925 0 23.85-5.963 29.813-11.925l35.777 35.776c11.925-5.963 23.85-11.925 35.776-23.85-5.963-11.926-11.925-29.815-17.888-47.703l23.85-23.85c17.889 5.962 35.777 11.925 47.703 11.925l17.888-35.777c-11.926-11.925-23.851-17.888-35.777-29.813 5.963-23.851 5.963-35.777 5.963-47.702zM744.547 884.67c-41.74 5.963-83.479-11.926-113.292-35.777-11.926-11.925-17.889-23.85-29.814-35.776-5.963-11.925-11.925-23.85-11.925-41.74-5.963-29.813 5.962-65.59 17.888-89.44 11.925-23.851 29.813-35.777 53.664-47.702 11.926-5.963 23.851-11.925 41.74-11.925 23.85 0 41.739 0 59.627 5.962l35.776 17.888c29.814 23.851 47.702 53.665 53.665 89.441 17.888 71.553-35.777 137.143-107.33 149.069z"/></svg>