<svg class="icon" style="width:1em;height:1em;vertical-align:middle" viewBox="0 0 1024 1024" xmlns="http://www.w3.org/2000/svg" overflow="hidden"><path d="M614.857 113.429H923.43Q962 113.429 962 152t-38.571 38.571H614.857q-38.571 0-38.571-38.571t38.571-38.571zM614.857 319.143H923.43q38.571 0 38.571 38.571 0 38.572-38.571 38.572H614.857q-38.571 0-38.571-38.572 0-38.571 38.571-38.571zM370.571 139.143V370.57H139.143V139.143H370.57M383.43 62H126.286A64.286 64.286 0 0062 126.286v257.143a64.286 64.286 0 0064.286 64.285h257.143a64.286 64.286 0 0064.285-64.285V126.286A64.286 64.286 0 00383.43 62zM370.57 653.429v231.428H139.143V653.43H370.57m12.858-77.143H126.286A64.286 64.286 0 0062 640.57v257.143A64.286 64.286 0 00126.286 962h257.143a64.286 64.286 0 0064.285-64.286V640.571a64.286 64.286 0 00-64.285-64.285zm501.428 77.143v231.428H653.43V653.43h231.428m12.857-77.143H640.571a64.286 64.286 0 00-64.285 64.285v257.143A64.286 64.286 0 00640.57 962h257.143A64.286 64.286 0 00962 897.714V640.571a64.286 64.286 0 00-64.286-64.285z"/></svg>