<svg class="icon" style="width:1em;height:1em;vertical-align:middle" viewBox="0 0 1024 1024" xmlns="http://www.w3.org/2000/svg" overflow="hidden"><path d="M991.76 793.52l.24-97.38s-64.26-12.78-65.4-17.1c-1.2-4.74-2.46-9.48-3.84-13.98 7.5-13.92 43.74-44.64 43.74-44.64l-72.54-96.48s-46.98 38.7-58.68 44.22c-5.46-2.16-11.16-4.02-17.16-5.82-6.3-1.56-23.76-63.54-23.76-63.54l-97.62-.84s-10.56 60-26.28 64.08c-5.34 1.5-10.62 3.54-15.9 6-11.7-5.7-58.68-45-58.68-45l-72.54 98.16s36.36 36.6 38.76 48.84c-1.5 3.84-3 7.8-4.32 11.76-15.6 5.46-60 14.28-60 14.28l.24 97.38s51.54 10.74 61.38 19.32a182.192 182.192 0 006.9 16.44c-11.88 14.88-43.74 39.66-43.74 39.66l74.76 97.38s58.74-38.04 68.4-40.2c4.8 2.04 9.66 4.02 14.64 5.76 8.82 3.12 15.12 59.82 15.12 59.82l97.56.36s3.36-55.68 10.5-57.9c7.02-2.22 13.98-4.8 20.7-7.74 8.22 3.24 46.68 41.58 46.68 41.58l96.36-98.16s-35.82-24.72-45.66-38.04a237.177 237.177 0 007.32-16.98c3.3-8.82 62.82-21.24 62.82-21.24zm-247.98 73.8c-67.92 0-123-55.08-123-123s55.08-122.94 123-122.94 122.94 55.02 122.94 122.94-55.08 123-122.94 123zM430.94 493.34c111.84 0 225.66-109.98 225.66-226.44S548.24 32 436.4 32c-111.84 0-223.08 121.32-223.08 237.72 0 116.46 105.78 223.62 217.62 223.62zm49.2 48.48H256.46c-55.98 0-139.86 29.16-167.76 116.4-27.9 87.3-27.9 87.3-55.98 174.66-14.04 43.86 190.86 66.18 394.62 65.46 67.62-.18 21.54-55.74 21.54-126.18 0-160.5 136.92-230.34 31.26-230.34zm0 0"/></svg>