<svg class="icon" style="width:1.0009765625em;height:1em;vertical-align:middle" viewBox="0 0 1025 1024" xmlns="http://www.w3.org/2000/svg" overflow="hidden"><path d="M268.64 280.16c0-96.96 80.16-177.12 177.12-177.12s177.12 80.16 177.12 177.12-80.16 177.12-177.12 177.12-177.12-80.16-177.12-177.12zm-113.28 631.2c-28.8.48-52.8-22.56-53.28-51.84v-1.44c0-177.12 137.28-324 311.04-340.8h36.48c40.32-3.36 96.96-13.44 126.72-40.32l13.44-10.08C646.4 419.84 680 353.12 680 279.68c0-130.56-107.04-237.12-240.48-237.12-123.84 0-230.4 107.04-230.4 237.12 0 73.44 33.12 140.16 90.24 187.2l16.8 10.08-16.8 6.72c-154.08 60-257.28 206.88-257.28 373.92-.48 62.4 49.44 113.28 111.36 113.76H459.2c10.08 0 26.4-10.08 26.4-30.24 0-23.52-16.8-30.24-26.4-30.24H155.36zm771.36-133.44c-49.92 6.72-86.88 47.04-86.88 99.84 0 10.08 3.36 23.52 6.72 30.24l-43.2 23.52-16.8-16.8c-19.68-13.44-36.48-19.68-56.64-19.68-16.8 0-36.48 6.72-56.64 19.68-6.72 6.72-13.44 10.08-16.8 16.8L616.16 908c2.88-6.72 6.72-19.68 6.72-30.24 0-50.4-36.96-93.12-86.88-99.84 0-6.72-3.36-19.68-3.36-33.6 0-10.08 3.36-23.52 3.36-33.6 49.92-6.72 86.88-47.04 86.88-100.32 0-10.08-2.88-23.52-6.72-30.24l43.2-23.52c2.88 3.36 9.6 10.08 16.8 13.44 19.68 13.44 36.48 19.68 53.28 19.68s33.12-6.72 53.28-19.68c6.72-6.72 13.44-10.08 16.8-13.44l43.2 23.52c-2.88 6.72-6.72 19.68-6.72 30.24 0 50.4 36.96 93.12 87.36 100.32 0 6.72 2.88 19.68 2.88 33.6 4.32 10.08.48 23.52.48 33.6zm47.04-83.52c-3.36-16.8-16.8-30.24-30.24-30.24h-3.36c-30.24 0-53.28-23.52-53.28-53.28 0-6.72 2.88-16.8 2.88-19.68 6.72-16.8 0-36.48-13.44-47.04l-60-33.6H800c-9.6 0-23.52 2.88-30.24 13.44-6.72 6.72-26.4 23.52-40.32 23.52-13.44 0-33.6-16.8-43.2-23.52-6.72-6.72-16.8-13.44-30.24-13.44-6.72 0-10.08 0-13.44 2.88l-63.36 33.6c-13.44 10.08-19.68 30.24-13.44 47.04 0 0 2.88 10.08 2.88 19.68.48 28.8-22.56 52.8-51.36 53.28H512c-13.44 0-26.4 13.44-30.24 30.24 0 3.36-6.72 26.4-6.72 49.92 0 19.68 2.88 47.04 6.72 49.92 3.36 16.8 16.8 30.24 30.24 30.24h3.36c30.24 0 53.28 23.52 53.28 53.28 0 6.72-2.88 16.8-2.88 19.68-6.72 16.8 0 36.48 13.44 47.04l60 33.6c6.72-3.36 10.08-3.36 16.8-3.36 10.08 0 23.52-2.88 30.24-13.44 6.72-6.72 26.4-26.4 43.2-26.4 13.44 0 36.48 16.8 43.2 26.4 6.72 6.72 16.8 13.44 30.24 13.44 6.72 0 10.08 0 16.8-2.88l60-33.6c13.44-10.08 19.68-30.24 13.44-47.04 0 0-2.88-9.6-2.88-19.68 0-30.24 23.52-53.28 53.28-53.28h2.88c13.44 0 26.4-13.44 30.24-30.24 0 0 6.72-26.4 6.72-49.92-6.72-16.32-9.6-43.2-9.6-46.56zm-243.84 93.12c-23.52 0-43.2-19.68-43.2-43.2s19.68-43.2 43.2-43.2 43.2 19.68 43.2 43.2c.48 23.52-20.16 43.2-43.2 43.2zm16.32-133.44C682.4 640.64 625.76 697.28 639.2 764c6.72 36.48 36.48 66.72 73.44 73.44 63.84 13.44 120.48-43.2 107.04-107.04-6.24-39.36-36.48-69.6-73.44-76.32z"/></svg>