<svg class="icon" style="width:1em;height:1em;vertical-align:middle" viewBox="0 0 1024 1024" xmlns="http://www.w3.org/2000/svg" overflow="hidden"><path d="M619.122 398.222c11.207 0 21.902 4.75 29.383 13.085 9.955 10.524 39.822 38.2 64.483 38.2 24.178 0 54.528-27.164 64-37.717a40.79 40.79 0 0140.904-10.866l3.669 1.337.939.484 78.222 46.25.938.513a40.676 40.676 0 0112.345 47.217s-7.11 17.095-7.11 32.711c0 45.512 33.478 83.144 76.259 85.789l4.778.142h2.845c12.8-.512 23.723 11.549 27.05 30.635 0 1.507 6.173 37.205 6.173 65.337 0 27.648-6.172 63.345-6.628 64.853-3.072 17.18-12.202 29.184-24.007 30.55l-3.015.113h-2.844c-44.573 0-81.067 38.201-81.067 85.96 0 16.099 7.111 33.165 7.111 33.165 6.6 15.872 2.56 33.906-9.415 44.857l-2.93 2.39-.938.512-79.645 46.734-.938.512c-4.75 1.991-9.472 3.015-14.706 3.015-11.378-.512-22.272-5.006-29.383-13.568-9.956-11.548-40.79-40.704-65.906-40.704-25.117 0-56.405 29.156-65.422 39.708a39.68 39.68 0 01-40.903 11.378l-3.67-1.337-.938-.483-76.8-45.227-.94-.512c-14.221-11.065-18.972-30.663-12.344-47.246 0-.512 7.111-17.607 7.111-33.195 0-45.54-33.507-83.171-76.26-85.788l-4.807-.17h-3.328c-12.8 0-23.21-12.061-26.538-30.664-.455-1.508-6.628-36.693-6.628-64.853 0-27.591 6.173-63.318 6.628-64.825 3.043-17.152 12.174-29.184 24.007-30.55l3.015-.113h2.844c44.573 0 81.067-38.201 81.067-85.96 0-16.07-7.111-33.166-7.111-33.166a40.05 40.05 0 019.415-44.857l2.901-2.389 1.423-.483 81.066-47.247.939-.512c4.267-1.99 9.5-3.015 14.706-3.015zm16.839 85.334h-.853l-62.436 36.721c1.308 3.698 8.192 21.618 8.192 39.965 0 55.125-40.903 101.034-92.558 103.794-.854 4.58-4.75 28.928-4.75 47.303 0 18.375 3.868 43.178 4.75 47.303 52.082 2.759 92.558 48.213 92.558 103.794 0 16.839-5.774 33.28-7.737 38.74l-.455 1.196 58.994 35.384c.853 0 1.706-.483 2.133-.483a202.844 202.844 0 0122.841-21.106c18.916-15.16 36.58-22.5 53.39-22.5 16.782 0 34.873 7.794 53.817 22.955 12.914 10.098 21.533 20.196 22.813 21.59.284 0 .768.199 1.308.34l.853.115 61.156-36.267c-1.337-3.698-8.22-21.618-8.22-39.964 0-55.126 40.903-101.035 92.586-103.794.853-4.125 4.324-28.928 4.324-47.303 0-18.375-3.869-43.179-4.75-47.303-52.082-2.76-92.559-48.697-92.559-103.794 0-16.84 5.774-33.28 7.737-38.742l.427-1.223-60.274-35.811h-1.195a3.271 3.271 0 00-1.393.455c-6.884 6.883-14.223 13.767-22.386 19.74-18.518 14.223-36.153 21.135-52.11 21.135-15.93 0-33.992-7.34-52.509-21.59a160.313 160.313 0 01-22.386-20.195l-.569-.313-.74-.114zM881.778 28.444a56.889 56.889 0 0156.889 56.89v256h-85.334V113.777h-768v739.555h284.445v85.334H56.888A56.889 56.889 0 010 881.777V85.334a56.889 56.889 0 0156.889-56.889h824.889zm-142.222 568.89a113.778 113.778 0 110 227.555 113.778 113.778 0 010-227.556zm0 56.888a56.889 56.889 0 100 113.778 56.889 56.889 0 000-113.778zM256 369.778v312.889h-85.333v-312.89H256zM426.667 199.11V512h-85.334V199.111h85.334zm-170.667 0v85.333h-85.333v-85.333H256z"/></svg>