<svg class="icon" style="width:1em;height:1em;vertical-align:middle" viewBox="0 0 1024 1024" xmlns="http://www.w3.org/2000/svg" overflow="hidden"><path d="M533.013 477.653c61.974-1.066 120.107-25.706 164.054-69.653 44.906-44.907 69.653-104.747 69.653-168.213s-24.747-123.414-69.653-168.32C652.16 26.56 592.32 1.813 528.853 1.813c-63.68 0-123.413 24.747-168.32 69.654-44.906 44.906-69.653 104.746-69.653 168.213s24.747 123.307 69.653 168.213c12.8 12.8 26.88 24 41.814 33.387-22.4 5.973-44.267 13.547-65.814 22.613-60.16 25.387-114.133 61.867-160.426 108.16-46.4 46.4-82.774 100.374-108.16 160.427C41.6 794.88 28.16 861.013 28.16 929.173h53.333c0-248.96 202.56-451.52 451.52-451.52zM344.107 239.68c0-101.76 82.773-184.64 184.64-184.64s184.64 82.773 184.64 184.64-82.774 184.64-184.64 184.64-184.64-82.773-184.64-184.64zm326.826 340.8c0 14.72 11.947 26.667 26.667 26.667h205.76c14.72 0 26.667-11.947 26.667-26.667s-11.947-26.667-26.667-26.667H697.6c-14.72 0-26.667 11.947-26.667 26.667zM903.36 722.027H553.92c-14.72 0-26.667 11.946-26.667 26.666S539.2 775.36 553.92 775.36h349.333c14.72 0 26.667-11.947 26.667-26.667s-11.84-26.666-26.56-26.666zm0 183.893H553.92c-14.72 0-26.667 11.947-26.667 26.667s11.947 26.666 26.667 26.666h349.333c14.72 0 26.667-11.946 26.667-26.666s-11.84-26.667-26.56-26.667z"/></svg>