<svg class="icon" style="width:1em;height:1em;vertical-align:middle" viewBox="0 0 1024 1024" xmlns="http://www.w3.org/2000/svg" overflow="hidden"><path d="M314.626 664.993l-94.09-38.943 20.823-90.083a214.46 214.46 0 01-23.946-23.954l-90.127 20.87-38.99-94.051 78.484-49.014a212.571 212.571 0 01-.011-33.863l-78.48-48.953 38.938-94.079 90.13 20.82a215.29 215.29 0 0123.937-23.938l-20.893-90.145 94.058-38.98 49 78.466a213.701 213.701 0 0133.867.004l48.947-78.485 94.088 38.945-20.82 90.084a214.036 214.036 0 0123.946 23.953l90.126-20.868 38.99 94.05-78.485 49.01a211.89 211.89 0 01.013 33.865l78.48 48.954-38.943 94.089-90.115-20.877a212.864 212.864 0 01-23.94 23.934l20.903 90.15-94.054 38.981-49.02-78.433a212.783 212.783 0 01-33.87.011l-48.946 78.48zm-65.13-53.855l55.18 22.84 46.069-73.86 7.824.93a188.402 188.402 0 0043.877-.007l7.817-.912 46.125 73.794 55.161-22.875-19.659-84.788 6.165-4.884c11.594-9.189 22.037-19.639 31.036-31.048l4.882-6.199 84.785 19.647 22.838-55.18-73.84-46.062.91-7.82a187.15 187.15 0 00-.012-43.873l-.933-7.82 73.856-46.122-22.861-55.167-84.79 19.635-4.881-6.159c-9.203-11.623-19.649-22.066-31.036-31.047l-6.191-4.876 19.586-84.764-55.18-22.838-46.058 73.848-7.82-.927a188.31 188.31 0 00-43.893.012l-7.818.915-46.11-73.841-55.158 22.875 19.658 84.8-6.172 4.893c-11.56 9.148-22.01 19.604-31.03 31.036l-4.88 6.176-84.8-19.6-22.843 55.19 73.855 46.058-.917 7.816a187.313 187.313 0 00.01 43.88l.93 7.822-73.856 46.12 22.864 55.17 84.785-19.635 4.883 6.16c9.21 11.625 19.652 22.066 31.04 31.04l6.187 4.883-19.584 84.764z"/><path d="M317.904 675.21l-106.905-44.248 21.278-92.056a223.826 223.826 0 01-17.8-17.81l-92.098 21.326L78.078 435.56l80.197-50.083a221.711 221.711 0 01-.006-25.176l-80.196-50.023 44.242-106.893 92.103 21.277a224.519 224.519 0 0117.793-17.79l-21.35-92.12 106.871-44.29 50.072 80.183a222.688 222.688 0 0125.178.004l50.016-80.2 106.904 44.25-21.277 92.055a223.17 223.17 0 0117.802 17.81l92.097-21.324 44.3 106.86-80.198 50.08a220.77 220.77 0 01.009 25.179l80.195 50.023-44.249 106.906-92.085-21.333a221.95 221.95 0 01-17.794 17.788l21.36 92.117-106.866 44.29-50.09-80.145c-8.36.48-16.771.482-25.183.007l-50.02 80.197zm-87.83-54.073l81.277 33.64 47.91-76.818 4.96.393c10.832.858 21.832.855 32.566-.011l4.961-.4 47.985 76.777 81.245-33.671-20.461-88.243 3.789-3.23a205.206 205.206 0 0023.018-23.012l3.229-3.79 88.206 20.434 33.638-81.272-76.82-47.92.395-4.961a204.124 204.124 0 00-.012-32.556l-.402-4.965 76.828-47.975-33.678-81.24-88.218 20.426-3.228-3.783a206.407 206.407 0 00-23.03-23.037l-3.787-3.227 20.38-88.175L449.55 90.88l-47.91 76.822-4.961-.393a206.358 206.358 0 00-32.569-.005l-4.959.395-47.962-76.805-81.246 33.671 20.448 88.232-3.779 3.23a207.488 207.488 0 00-23.026 23.026l-3.227 3.783-88.218-20.38-33.636 81.266 76.818 47.918-.393 4.959a204.87 204.87 0 00.01 32.557l.401 4.964-76.828 47.98 33.68 81.241 88.217-20.426 3.229 3.782a206.86 206.86 0 0023.03 23.04l3.786 3.226-20.38 88.175zm77.877 23.058L239.96 616.05l19.978-86.465-2.117-1.67c-11.878-9.359-22.775-20.255-32.383-32.382l-1.664-2.099-86.496 20.032-28.173-67.982 75.33-47.04-.317-2.664a195.516 195.516 0 01-.011-45.801l.312-2.66-75.336-46.982 28.148-68.005 86.503 19.994 1.666-2.108c9.424-11.943 20.317-22.84 32.372-32.38l2.107-1.67-20.053-86.51 67.969-28.188 47.037 75.326 2.669-.312a197.44 197.44 0 0145.797-.01l2.67.315 46.979-75.323 67.992 28.143-19.977 86.46 2.111 1.662c11.907 9.39 22.803 20.289 32.389 32.397l1.662 2.096 86.5-20.032 28.168 67.979-75.327 47.04.317 2.66c1.8 15.182 1.805 30.59.014 45.8l-.31 2.661 75.326 46.988-28.144 67.998-86.48-20.04-1.666 2.116c-9.405 11.924-20.3 22.823-32.383 32.399l-2.105 1.667 20.056 86.495-67.972 28.186-47.053-75.28-2.673.312a197.556 197.556 0 01-45.778.005l-2.676-.318-46.987 75.334zm-48.917-37.97l42.365 17.537 45.15-72.385 12.985 1.542a181.035 181.035 0 0041.956-.007l12.97-1.513 45.196 72.308 42.353-17.563-19.263-83.081 10.227-8.102c11.088-8.786 21.077-18.778 29.692-29.7l8.094-10.277 83.09 19.253 17.532-42.362-72.355-45.136 1.51-12.969a179.026 179.026 0 00-.01-41.962l-1.55-12.974 72.384-45.202-17.552-42.357-83.079 19.24-8.1-10.217c-8.8-11.114-18.786-21.106-29.69-29.705l-10.267-8.087 19.193-83.07L459.5 121.9l-45.138 72.373-12.979-1.537a181.072 181.072 0 00-41.973.012l-12.972 1.517-45.183-72.355-42.348 17.563 19.262 83.092-10.23 8.11c-11.063 8.756-21.05 18.745-29.69 29.694l-8.099 10.248-83.094-19.206-17.54 42.376 72.375 45.134-1.523 12.97a179.063 179.063 0 00.01 41.961l1.541 12.979-72.38 45.198 17.556 42.36 83.075-19.24 8.1 10.217c8.818 11.13 18.808 21.121 29.691 29.696l10.265 8.104-19.192 83.059z"/><path d="M316.424 670.604L215.3 628.75l21.07-91.153a219.257 219.257 0 01-20.583-20.592l-91.194 21.117-41.907-101.085 79.41-49.593a218.083 218.083 0 01-.009-29.109l-79.41-49.532 41.853-101.115 91.198 21.066a220.452 220.452 0 0120.575-20.573l-21.141-91.214 101.093-41.894 49.582 79.393c9.65-.643 19.418-.642 29.11.002l49.526-79.412 101.125 41.857-21.066 91.15a219.493 219.493 0 0120.58 20.594l91.195-21.114 41.907 101.083-79.413 49.59a217.4 217.4 0 01.01 29.113l79.407 49.532-41.855 101.126-91.178-21.122a218.961 218.961 0 01-20.577 20.57l21.147 91.216-101.086 41.895-49.6-79.362a217.71 217.71 0 01-29.118.009l-49.526 79.412zm-90.65-47.25l87.051 36.03 48.38-77.569 2.724.215c11.038.874 22.192.87 33.154-.008l2.725-.218 48.45 77.522 87.02-36.066-20.66-89.104 2.08-1.773a208.757 208.757 0 0023.437-23.426l1.772-2.082 89.061 20.634 36.03-87.05-77.567-48.384.217-2.725c.877-11.01.874-22.164-.011-33.147l-.22-2.727 77.576-48.444-36.075-87.014-89.08 20.624-1.77-2.076a210.49 210.49 0 00-23.442-23.45l-2.082-1.773 20.58-89.035-87.055-36.03-48.376 77.57-2.723-.216a210.07 210.07 0 00-33.153-.003l-2.723.217-48.43-77.555-87.022 36.065 20.649 89.093-2.076 1.775a210.916 210.916 0 00-23.437 23.436l-1.77 2.078-89.081-20.577-36.028 87.041 77.567 48.385-.214 2.723a208.78 208.78 0 00.009 33.148l.22 2.725-77.574 48.447 36.075 87.015 89.078-20.625 1.771 2.078a210.055 210.055 0 0023.444 23.449l2.08 1.773-20.581 89.033zm80.702 16.236l-62.216-25.754 19.802-85.7-3.95-3.117c-11.662-9.188-22.357-19.88-31.778-31.777l-3.118-3.932-85.725 19.854-25.779-62.206 74.666-46.625-.593-4.989a191.758 191.758 0 01-.01-44.936l.583-4.983-74.666-46.566 25.754-62.227 85.737 19.817 3.115-3.943c9.25-11.723 19.938-22.415 31.765-31.775l3.94-3.123-19.874-85.74 62.194-25.792 46.62 74.655 4.99-.582a192.844 192.844 0 0144.94-.012l4.99.59 46.563-74.657 62.218 25.752-19.803 85.696 3.947 3.11c11.683 9.215 22.375 19.91 31.783 31.79l3.113 3.927 85.727-19.85 25.777 62.202-74.668 46.625.596 4.986a191.66 191.66 0 01.014 44.932l-.58 4.987 74.657 46.57-25.749 62.219-85.719-19.862-3.115 3.956c-9.22 11.69-19.911 22.385-31.779 31.789l-3.933 3.117 19.873 85.726-62.192 25.789-46.634-74.608-4.994.583a193.22 193.22 0 01-44.918.007l-4.999-.596-46.572 74.673zm-51.742-31.15l48.144 19.93 45.563-73.048 10.657 1.262a183.91 183.91 0 0042.822-.006l10.65-1.242 45.614 72.975 48.126-19.956-19.442-83.851 8.394-6.65c11.323-8.971 21.513-19.168 30.298-30.309l6.647-8.44 83.855 19.432 19.927-48.14-73.03-45.556 1.24-10.645a182.648 182.648 0 00-.01-42.824l-1.27-10.65 73.049-45.617-19.946-48.132-83.85 19.416-6.65-8.386c-8.975-11.337-19.166-21.533-30.298-30.313l-8.428-6.638 19.37-83.832-48.14-19.927-45.554 73.037-10.653-1.26a183.763 183.763 0 00-42.838.01l-10.648 1.246L302.73 117.3l-48.124 19.956 19.44 83.863-8.4 6.66c-11.281 8.93-21.473 19.123-30.293 30.299l-6.649 8.413-83.862-19.384-19.932 48.155 73.043 45.548-1.25 10.647a182.83 182.83 0 00.008 42.826l1.269 10.655-73.047 45.615 19.948 48.136 83.847-19.421 6.65 8.39c8.991 11.346 19.184 21.541 30.3 30.3l8.425 6.65-19.37 83.831z"/><path d="M319.7 680.821l-113.938-47.16 21.54-93.192a227.856 227.856 0 01-14.387-14.396l-93.23 21.588-47.218-113.897 81.182-50.7a227.197 227.197 0 01-.004-20.349l-81.184-50.64 47.156-113.927 93.237 21.537a229.33 229.33 0 0114.38-14.376l-21.613-93.253 113.906-47.203 50.69 81.169c6.762-.3 13.561-.301 20.346.002l50.632-81.186 113.94 47.16-21.538 93.191c4.985 4.561 9.8 9.38 14.388 14.397l93.23-21.585 47.218 113.892-81.184 50.697a226.5 226.5 0 01.006 20.354l81.18 50.637-47.161 113.943-93.217-21.595a227.893 227.893 0 01-14.38 14.374l21.62 93.251L441.4 680.76l-50.707-81.132c-6.77.309-13.572.31-20.36.005l-50.632 81.189zm-55.43-77.293l35.331 14.625 44.644-71.572 15.816 1.874a176.619 176.619 0 0040.903-.007l15.801-1.843 44.685 71.49 35.318-14.646-19.046-82.145 12.455-9.868c10.815-8.567 20.556-18.31 28.953-28.96l9.86-12.519 82.16 19.038 14.622-35.323-71.548-44.63 1.842-15.796a174.459 174.459 0 00-.008-40.911l-1.885-15.806 71.575-44.696-14.638-35.322-82.138 19.02-9.868-12.442c-8.585-10.843-18.324-20.589-28.954-28.973l-12.503-9.85 18.978-82.136-35.327-14.623-44.633 71.56-15.812-1.87a176.42 176.42 0 00-40.919.013l-15.803 1.849-44.673-71.54-35.314 14.644 19.044 82.154-12.459 9.878c-10.788 8.538-20.528 18.278-28.952 28.955l-9.867 12.487-82.158-18.99-14.627 35.34 71.563 44.624-1.855 15.801a174.58 174.58 0 00.007 40.907l1.883 15.811-71.573 44.695 14.639 35.325 82.137-19.025 9.867 12.45c8.598 10.851 18.338 20.593 28.952 28.956l12.504 9.867-18.979 82.13z"/><path d="M347.18 453.206c-44.318-18.344-65.448-69.331-47.107-113.643 18.343-44.315 69.325-65.453 113.644-47.11 44.315 18.342 65.444 69.329 47.103 113.643-18.342 44.311-69.324 65.452-113.64 47.11zm61.784-149.269c-37.99-15.723-81.682 2.388-97.407 40.378-15.724 37.99 2.387 81.686 40.376 97.41 37.985 15.722 81.682-2.394 97.406-40.381 15.723-37.993-2.39-81.685-40.375-97.407z"/><path d="M380.327 468.003c-12.475 0-24.68-2.433-36.278-7.234-48.489-20.07-71.61-75.848-51.54-124.338 14.78-35.706 49.343-58.776 88.056-58.776 12.476 0 24.684 2.434 36.283 7.235 48.487 20.069 71.606 75.846 51.537 124.337-14.78 35.706-49.345 58.776-88.058 58.776zm.217-161.548c-27.007 0-51.117 16.09-61.423 40.991-6.769 16.353-6.753 34.39.044 50.789 6.797 16.398 19.546 29.158 35.898 35.926 8.087 3.347 16.594 5.045 25.284 5.045 27.008.002 51.12-16.088 61.428-40.993 13.995-33.817-2.128-72.716-35.943-86.711-8.09-3.349-16.599-5.047-25.288-5.047z"/><path d="M342.95 463.43c-49.959-20.677-73.778-78.143-53.102-128.1 20.679-49.959 78.145-73.778 128.101-53.1 49.955 20.675 73.774 78.14 53.096 128.098-20.677 49.957-78.141 73.779-128.096 53.103zm61.782-149.268c-32.348-13.389-69.56 2.037-82.95 34.385-13.39 32.351 2.034 69.564 34.383 82.953 32.347 13.389 69.559-2.037 82.95-34.389 13.388-32.35-2.035-69.56-34.383-82.949z"/><path d="M380.317 479.071c-13.925 0-27.551-2.717-40.499-8.076-54.127-22.404-79.937-84.667-57.535-138.796 16.498-39.858 55.08-65.611 98.292-65.611 13.927 0 27.555 2.718 40.505 8.078 26.18 10.834 46.589 31.254 57.467 57.497s10.899 55.113.062 81.296c-16.498 39.857-55.08 65.612-98.292 65.612zm.26-196.11c-36.566 0-69.209 21.785-83.166 55.499-18.95 45.786 2.883 98.455 48.669 117.406 10.952 4.533 22.47 6.831 34.237 6.831 36.565 0 69.209-21.785 83.163-55.501 9.165-22.141 9.145-46.562-.058-68.765-9.202-22.202-26.464-39.475-48.604-48.638-10.953-4.533-22.475-6.832-34.242-6.832zm-.208 161.552h-.007c-9.399 0-18.593-1.834-27.327-5.45-36.52-15.114-53.933-57.124-38.818-93.647 11.131-26.891 37.162-44.268 66.316-44.268 9.398 0 18.594 1.834 27.33 5.449 36.52 15.115 53.932 57.123 38.817 93.645-11.133 26.892-37.163 44.271-66.311 44.271zm.164-126.992c-22.506 0-42.598 13.407-51.188 34.157-11.662 28.18 1.773 60.595 29.952 72.257a54.836 54.836 0 0021.066 4.205h.005c22.502 0 42.593-13.408 51.182-34.159 11.663-28.18-1.772-60.593-29.949-72.255-6.74-2.79-13.829-4.205-21.068-4.205zm295.076 617.19l-59.054-32.72 20.481-57.773a141.964 141.964 0 01-13.973-17.578l-60.936 6.976-18.619-64.88 55.377-26.392a141.198 141.198 0 012.536-22.307l-48.019-38.14 32.716-59.044 57.803 20.483a142.607 142.607 0 0117.567-13.971l-6.993-60.95 64.883-18.61 26.387 55.363a142.521 142.521 0 0122.307 2.544l38.134-48.019 59.055 32.717-20.483 57.78a141.518 141.518 0 0113.976 17.576l60.935-6.98 18.619 64.881-55.378 26.39a140.756 140.756 0 01-2.535 22.31l48.02 38.138-32.72 59.053-57.788-20.517a141.164 141.164 0 01-17.569 13.966l6.998 60.953-64.88 18.612-26.4-55.346a140.882 140.882 0 01-22.312-2.537L675.61 934.71zm-38.858-40.366l34.633 19.191 35.891-45.194 5.082 1.201a125.232 125.232 0 0028.907 3.29l5.216-.014 24.84 52.072 38.054-10.924-6.583-57.328 4.427-2.754c8.33-5.181 15.993-11.28 22.778-18.12l3.683-3.719 54.373 19.311 19.187-34.633-45.183-35.89 1.188-5.08a123.89 123.89 0 003.287-28.902l-.027-5.22 52.114-24.835-10.915-38.055-57.326 6.568-2.753-4.426c-5.19-8.349-11.287-16.01-18.114-22.78l-3.71-3.678 19.267-54.366-34.634-19.187-35.885 45.185-5.08-1.197a124.905 124.905 0 00-28.914-3.293l-5.218.019-24.828-52.103-38.053 10.926 6.58 57.335-4.435 2.759a125.548 125.548 0 00-22.769 18.112l-3.678 3.703-54.385-19.279-19.191 34.64 45.191 35.883-1.192 5.081a124.219 124.219 0 00-3.29 28.904l.024 5.225-52.112 24.834 10.917 38.052 57.324-6.564 2.753 4.426c5.193 8.348 11.288 16.009 18.116 22.777l3.709 3.682-19.266 54.365z"/><path d="M758.05 954.353l-27.282-57.197a150.049 150.049 0 01-13.649-1.554l-39.412 49.63-71.186-39.441 21.17-59.712a150.72 150.72 0 01-8.545-10.752l-62.977 7.21-22.444-78.21 57.23-27.273c.307-4.549.827-9.109 1.553-13.642l-49.627-39.419 39.435-71.175 59.743 21.17a151.493 151.493 0 0110.74-8.54l-7.228-62.993 78.214-22.434 27.271 57.218c4.553.311 9.114.832 13.639 1.557l39.412-49.628 71.187 39.438-21.17 59.716a149.752 149.752 0 018.546 10.75l62.974-7.213 22.446 78.21-57.23 27.272a150.27 150.27 0 01-1.552 13.646l49.628 39.415-39.442 71.187-59.725-21.206a150.153 150.153 0 01-10.74 8.537l7.232 62.993-78.21 22.44zM710.43 877.7l4.884.955a133.185 133.185 0 0021.014 2.39l4.974.166 25.559 53.581 51.552-14.789-6.775-59.01 4.132-2.78a133.42 133.42 0 0016.55-13.155l3.638-3.397 55.94 19.86 25.995-46.92-46.486-36.919.954-4.884a133.14 133.14 0 002.386-21.013l.166-4.976 53.614-25.548-14.794-51.552-58.99 6.757-2.779-4.125a133.552 133.552 0 00-13.167-16.558l-3.398-3.636 19.829-55.935-46.923-25.996L771.39 616.7l-4.882-.951a134.71 134.71 0 00-21.024-2.399l-4.969-.17-25.544-53.593-51.552 14.787 6.77 58.997-4.122 2.78a134.87 134.87 0 00-16.56 13.17l-3.635 3.392-55.955-19.828-25.994 46.916 46.484 36.92-.95 4.882a133.586 133.586 0 00-2.39 21.013l-.164 4.977-53.614 25.552 14.795 51.55 58.99-6.753 2.779 4.125a134.232 134.232 0 0013.166 16.565l3.395 3.635-19.826 55.925 46.923 25.998 36.919-46.49zm56.487 56.972l-25.632-53.654h-.465a133.42 133.42 0 01-30.326-3.504l-.042-.01-36.97 46.553-46.763-25.912 19.85-56.01-.027-.027c-7.282-7.218-13.777-15.382-19.3-24.262l-.017-.028-59.066 6.763-14.742-51.38 53.683-25.614a132.388 132.388 0 013.505-30.81l.007-.029-46.557-36.969 25.912-46.769L646 652.871l.023-.022a133.67 133.67 0 0124.254-19.296l.034-.021-6.78-59.076 51.383-14.753 25.61 53.681.45-.001c10.218 0 20.433 1.18 30.36 3.511l.032.007 36.967-46.547 46.764 25.907-19.85 56.007.023.022c7.29 7.229 13.784 15.395 19.304 24.272l.016.026 59.067-6.769 14.74 51.388-53.682 25.604a132.156 132.156 0 01-3.503 30.817l-.006.022 46.552 36.977-25.91 46.767-56.012-19.892-.024.023c-7.24 7.3-15.404 13.795-24.27 19.31l-.027.018 6.783 59.07-51.38 14.749zm-15.278-70.053l24.087 50.49 24.725-7.098-6.382-55.586 8.825-5.492c7.788-4.844 14.95-10.542 21.292-16.934l7.336-7.408 52.733 18.73 12.465-22.499-43.814-34.803 2.368-10.128a115.75 115.75 0 003.072-27l-.055-10.413 50.548-24.088-7.093-24.725-55.583 6.369-5.489-8.825c-4.848-7.798-10.544-14.96-16.927-21.292l-7.398-7.331 18.687-52.725-22.503-12.467-34.804 43.823-10.136-2.386a116.699 116.699 0 00-26.615-3.076l-10.8.037-24.076-50.525-24.72 7.099 6.38 55.594-8.837 5.496a117.285 117.285 0 00-21.283 16.93l-7.333 7.383-52.74-18.695-12.47 22.508 43.825 34.798-2.378 10.135a116.098 116.098 0 00-3.072 26.995l.048 10.42-50.542 24.086 7.094 24.722 55.58-6.364 5.49 8.823c4.851 7.8 10.548 14.962 16.928 21.288l7.395 7.34-18.683 52.72 22.503 12.47L704.1 859.18l10.142 2.398c8.71 2.035 17.66 3.07 26.579 3.07l10.818-.029z"/><path d="M676.371 938.54l-63.468-35.162 20.724-58.465a145.53 145.53 0 01-12.012-15.107l-61.656 7.059-20.013-69.734 56.032-26.703a144.673 144.673 0 012.18-19.175l-48.588-38.594 35.162-63.46 58.492 20.726a146.037 146.037 0 0115.098-12.009l-7.074-61.67 69.735-20.007 26.698 56.022c6.406.3 12.839 1.036 19.176 2.19l38.586-48.591 63.47 35.165-20.724 58.46a145.281 145.281 0 0112.01 15.112l61.657-7.058 20.016 69.732-56.034 26.702a144.329 144.329 0 01-2.182 19.176l48.586 38.594-35.162 63.47-58.477-20.762a145.058 145.058 0 01-15.099 12.004l7.081 61.673-69.734 20.005-26.712-56a144.571 144.571 0 01-19.18-2.182l-38.588 48.589zm-56.165-37.93l54.636 30.271 37.694-47.464 1.778.345a138.53 138.53 0 0021.839 2.487l1.813.061 26.093 54.704 60.028-17.221-6.917-60.245 1.504-1.011a139.002 139.002 0 0017.198-13.676l1.324-1.235 57.115 20.279 30.271-54.635-47.462-37.695.348-1.78a138.287 138.287 0 002.483-21.836l.06-1.812 54.736-26.082-17.227-60.028-60.226 6.893-1.011-1.498a138.889 138.889 0 00-13.68-17.21l-1.24-1.325 20.245-57.101-54.638-30.276-37.693 47.466-1.775-.346a139.658 139.658 0 00-21.84-2.494l-1.81-.06-26.077-54.723-60.03 17.22 6.911 60.238-1.502 1.013a139.876 139.876 0 00-17.199 13.68l-1.323 1.235-57.134-20.246-30.266 54.63 47.459 37.698-.345 1.776a138.55 138.55 0 00-2.484 21.834l-.058 1.813-54.74 26.085 17.23 60.025 60.226-6.893 1.01 1.501a138.902 138.902 0 0013.682 17.207l1.237 1.324-20.243 57.107zm51.94 16.753L633.1 895.727l19.478-54.965-2.368-2.349c-6.992-6.93-13.231-14.774-18.545-23.319l-1.758-2.823-57.96 6.639-12.31-42.908 52.685-25.106-.016-3.332a127.192 127.192 0 013.368-29.601l.759-3.24-45.688-36.28 21.64-39.057 54.984 19.495 2.348-2.365a128.134 128.134 0 0123.311-18.544l2.83-1.763-6.65-57.968 42.901-12.318 25.104 52.675 3.33-.008a127.84 127.84 0 0129.604 3.366l3.245.766 36.276-45.682 39.05 21.634-19.477 54.964 2.367 2.344c7.002 6.947 13.241 14.795 18.547 23.328l1.757 2.824 57.962-6.64 12.306 42.909-52.685 25.104.018 3.328a127.352 127.352 0 01-3.364 29.603l-.759 3.237 45.685 36.284-21.638 39.05-54.972-19.52-2.349 2.373c-6.952 7.007-14.796 13.25-23.319 18.55l-2.824 1.761 6.653 57.963-42.906 12.315-25.118-52.646-3.332.009a127.883 127.883 0 01-29.588-3.37l-3.248-.765-36.286 45.684zm-31.744-24.401l30.216 16.739 35.499-44.695 6.926 1.632a121.801 121.801 0 0028.208 3.213l7.106-.018 24.566 51.496 33.2-9.532-6.509-56.695 6.031-3.748c8.129-5.058 15.609-11.012 22.233-17.69l5.013-5.06 53.777 19.098 16.741-30.213-44.688-35.496 1.62-6.92a121.056 121.056 0 003.208-28.207l-.035-7.11 51.541-24.563-9.523-33.203-56.69 6.493-3.753-6.024c-5.058-8.14-11.007-15.624-17.679-22.242l-5.055-5.004 19.055-53.769-30.214-16.74-35.493 44.689-6.921-1.63a121.866 121.866 0 00-28.219-3.212l-7.106.022-24.555-51.525-33.2 9.53 6.511 56.7-6.036 3.756a122.44 122.44 0 00-22.229 17.682l-5.013 5.046-53.785-19.068-16.746 30.223 44.696 35.49-1.624 6.916a121.302 121.302 0 00-3.211 28.212l.037 7.113-51.543 24.562 9.527 33.207 56.689-6.5 3.747 6.026c5.073 8.156 11.021 15.634 17.682 22.238l5.055 5.012-19.057 53.769z"/><path d="M756.447 957.914L728.823 900a153.63 153.63 0 01-10.446-1.188L678.47 949.06l-75.6-41.883 21.432-60.465c-2.26-2.652-4.444-5.4-6.538-8.226l-63.763 7.301-23.838-83.063 57.945-27.614c.276-3.48.672-6.97 1.188-10.44l-50.25-39.912 41.884-75.59 60.494 21.435c2.656-2.263 5.4-4.447 8.215-6.534l-7.315-63.778 83.066-23.832L753 594.4c3.484.277 6.972.676 10.44 1.193l39.903-50.252 75.602 41.887-21.433 60.463a154.402 154.402 0 016.54 8.229l63.76-7.3 23.843 83.06-57.949 27.614a153.08 153.08 0 01-1.187 10.441l50.245 39.912-41.884 75.605-60.479-21.473a154.055 154.055 0 01-8.213 6.53l7.323 63.78-83.064 23.826zm-2.93-96.28l23.811 49.914 19.873-5.706-6.31-54.956 10.434-6.485c7.582-4.718 14.56-10.271 20.741-16.502l8.669-8.75 52.135 18.516 10.018-18.08-43.318-34.407 2.8-11.969a112.877 112.877 0 002.994-26.305l-.06-12.304 49.972-23.815-5.7-19.873-54.945 6.293-6.49-10.418c-4.726-7.606-10.275-14.587-16.495-20.759l-8.742-8.652 18.474-52.131-18.084-10.02-34.41 43.326-11.977-2.819a113.64 113.64 0 00-25.898-2.995l-12.711.037-23.803-49.944-19.869 5.703 6.31 54.958-10.435 6.494a114.234 114.234 0 00-20.743 16.498l-8.673 8.727-52.135-18.484-10.026 18.092 43.331 34.405-2.81 11.97a113.134 113.134 0 00-2.995 26.305l.065 12.304-49.976 23.813 5.702 19.878 54.948-6.3 6.484 10.426c4.733 7.61 10.283 14.59 16.493 20.746l8.743 8.669-18.476 52.125 18.087 10.02 34.418-43.335 11.983 2.823a113.552 113.552 0 0025.908 2.997l12.687-.03z"/><path d="M712.957 797.648c-27.817-15.411-37.905-50.584-22.497-78.396 15.412-27.814 50.58-37.906 78.395-22.498 27.815 15.414 37.905 50.583 22.494 78.4-15.41 27.808-50.58 37.905-78.392 22.494zm51.907-93.684c-23.843-13.21-53.985-4.565-67.197 19.281-13.21 23.844-4.56 53.988 19.282 67.198 23.842 13.207 53.985 4.555 67.197-19.284 13.209-23.846 4.557-53.987-19.282-67.195z"/><path d="M740.805 813.048a65.809 65.809 0 01-31.816-8.241c-31.763-17.596-43.289-57.757-25.69-89.523 11.597-20.93 33.709-33.93 57.708-33.93a65.828 65.828 0 0131.816 8.238c31.762 17.6 43.286 57.763 25.689 89.528-11.6 20.927-33.71 33.928-57.707 33.928zm.182-107.084c-15.042 0-28.897 8.142-36.159 21.249-11.022 19.894-3.805 45.047 16.089 56.069a41.192 41.192 0 0019.903 5.158h.003c15.042 0 28.898-8.142 36.163-21.249 11.02-19.893 3.802-45.046-16.09-56.066a41.182 41.182 0 00-19.91-5.161z"/><path d="M709.4 804.065c-31.355-17.372-42.728-57.013-25.357-88.37 17.374-31.354 57.016-42.727 88.372-25.356 31.35 17.372 42.727 57.011 25.353 88.367-17.37 31.354-57.014 42.732-88.368 25.359zm51.908-93.686c-20.303-11.248-45.973-3.881-57.224 16.423-11.248 20.306-3.88 45.974 16.421 57.223 20.303 11.249 45.972 3.88 57.223-16.422 11.248-20.303 3.883-45.973-16.42-57.224z"/><path d="M740.795 820.385c-12.32 0-24.548-3.168-35.362-9.159-35.301-19.557-48.11-64.192-28.551-99.497 12.888-23.26 37.463-37.711 64.135-37.711 12.321 0 24.55 3.168 35.366 9.159 35.3 19.56 48.107 64.194 28.547 99.496-12.888 23.261-37.463 37.712-64.135 37.712zm.222-129.994c-20.721 0-39.808 11.216-49.813 29.27-15.183 27.409-5.24 62.06 22.164 77.242a56.744 56.744 0 0027.427 7.108c20.721 0 39.81-11.217 49.813-29.273 15.185-27.405 5.243-62.055-22.16-77.24-8.394-4.648-17.879-7.107-27.43-7.107zm-.183 107.087h-.003a50.266 50.266 0 01-24.293-6.29c-24.25-13.438-33.049-44.1-19.615-68.352 8.855-15.981 25.736-25.908 44.057-25.908a50.266 50.266 0 0124.295 6.291c24.25 13.438 33.049 44.1 19.614 68.353-8.857 15.979-25.738 25.906-44.055 25.906zm.146-84.178c-12.37 0-23.765 6.694-29.735 17.47-9.06 16.354-3.126 37.032 13.229 46.095a33.849 33.849 0 0016.358 4.24c12.369.001 23.763-6.692 29.735-17.469 9.06-16.354 3.128-37.032-13.228-46.096a33.857 33.857 0 00-16.36-4.24z"/></svg>