<svg class="icon" style="width:1em;height:1em;vertical-align:middle" viewBox="0 0 1024 1024" xmlns="http://www.w3.org/2000/svg" overflow="hidden"><path d="M803.297 992H212.388A178.088 178.088 0 0134.526 814.138V208.955A178.088 178.088 0 01212.388 32h590.909a178.088 178.088 0 01177.861 177.862v604.276A178.088 178.088 0 01803.297 992zM212.388 97.027A111.928 111.928 0 00100.46 208.955v605.183a111.928 111.928 0 00111.928 111.929h590.909a111.928 111.928 0 00111.928-111.929V208.955A111.928 111.928 0 00803.297 97.027z"/><path d="M508.295 544.74a171.518 171.518 0 11171.291-171.29 171.744 171.744 0 01-171.29 171.29zm0-274.836A103.545 103.545 0 10611.614 373.45a103.772 103.772 0 00-103.319-103.545z"/><path d="M273.11 779.699a34.213 34.213 0 01-33.306-33.76 269.172 269.172 0 01538.116-2.04 33.986 33.986 0 01-67.972 0 201.199 201.199 0 00-402.172 2.04 33.986 33.986 0 01-34.666 33.76z"/><path d="M273.11 779.699a33.986 33.986 0 010-67.973l469.918-2.039a33.986 33.986 0 0133.986 33.76 34.213 34.213 0 01-33.76 34.213l-469.917 2.039z"/></svg>