<svg class="icon" style="width:1em;height:1em;vertical-align:middle" viewBox="0 0 1024 1024" xmlns="http://www.w3.org/2000/svg" overflow="hidden"><path d="M853.333 34.133H170.667c-18.88 0-34.134 15.254-34.134 34.134v887.466c0 18.88 15.254 34.134 34.134 34.134h682.666c18.88 0 34.134-15.254 34.134-34.134V68.267c0-18.88-15.254-34.134-34.134-34.134zm-42.666 878.934H213.333v-214.4H317.76c12.373 34.986 34.133 66.453 63.04 90.346 36.8 30.4 83.413 47.254 131.2 47.254s94.4-16.747 131.2-47.254c28.907-23.893 50.667-55.36 63.04-90.346h104.427v-67.2H652.373l-5.546 26.346C634.027 721.6 577.28 768 512 768s-122.027-46.4-134.933-110.187l-5.547-26.346H213.333V110.933h597.334v802.134z"/><path d="M307.2 329.6h409.6c4.693 0 8.533-3.84 8.533-8.533v-51.2c0-4.694-3.84-8.534-8.533-8.534H307.2c-4.693 0-8.533 3.84-8.533 8.534v51.2c0 4.693 3.84 8.533 8.533 8.533zm0 170.667h409.6c4.693 0 8.533-3.84 8.533-8.534v-51.2c0-4.693-3.84-8.533-8.533-8.533H307.2c-4.693 0-8.533 3.84-8.533 8.533v51.2c0 4.694 3.84 8.534 8.533 8.534z"/></svg>