<svg class="icon" style="width:1.001953125em;height:1em;vertical-align:middle" viewBox="0 0 1026 1024" xmlns="http://www.w3.org/2000/svg" overflow="hidden"><path d="M523.7 799.382a25.717 25.717 0 01-12.858-3.343L67.746 543.245a25.717 25.717 0 1125.717-44.747l430.495 245.594 409.665-231.45a25.717 25.717 0 0125.716 44.747L536.302 796.04a25.717 25.717 0 01-12.601 3.343z"/><path d="M523.7 992a25.717 25.717 0 01-12.858-3.344L67.746 735.862a25.717 25.717 0 1125.717-44.747L523.958 936.71l409.665-231.45a25.717 25.717 0 0125.716 44.747l-423.037 238.65A25.717 25.717 0 01523.7 992zM513.157 594.421a25.717 25.717 0 01-12.087-3.086L45.63 348.828a25.717 25.717 0 010-45.004L500.299 35.6a25.717 25.717 0 0125.716 0l455.698 268.224a25.717 25.717 0 0112.858 22.888 25.717 25.717 0 01-13.63 22.116L525.244 591.335a24.174 24.174 0 01-12.087 3.086zm-402.721-269.51l402.72 214.734 402.98-214.733-402.98-237.364z"/></svg>