<svg class="icon" style="width:1em;height:1em;vertical-align:middle" viewBox="0 0 1024 1024" xmlns="http://www.w3.org/2000/svg" overflow="hidden"><path d="M571.777 630.76c-25.172-25.173-69.061-25.073-94.034 0l-25.321 25.32-78.345-78.345 42.648-42.599c25.817-25.817 25.866-67.919 0-93.984l-165.479-165.43A37.236 37.236 0 10198.57 328.4l159.819 159.769-117.965 117.965L80.654 446.315a37.236 37.236 0 10-52.677 52.677l165.429 165.429c12.958 13.008 29.987 19.462 47.017 19.462s34.059-6.454 47.017-19.462l33.96-34.01 78.345 78.346-44.287 44.286a66.132 66.132 0 00-.05 94.035l149.89 149.888c12.51 12.611 29.242 19.562 47.017 19.562s34.456-6.95 46.967-19.512l122.334-122.334c12.61-12.56 19.561-29.243 19.561-47.017s-6.95-34.456-19.511-46.967l-149.89-149.939zm-19.413 307.92L413.746 800.06 524.76 689.097l138.618 138.57-111.014 111.013zm446.787-394.16L833.722 379.09a66.628 66.628 0 00-93.984 0l-34.01 34.01-78.295-78.296 44.385-44.386c25.818-25.917 25.818-68.068-.05-94.034L521.782 46.446c-25.073-25.122-68.813-25.122-94.034 0L305.413 168.93a66.529 66.529 0 00.05 93.935L455.4 412.902c12.511 12.461 29.193 19.363 46.918 19.363 17.674 0 34.356-6.852 47.017-19.413l25.42-25.42 78.295 78.296-42.598 42.598a66.032 66.032 0 00-19.512 47.067c0 17.774 7 34.456 19.512 46.918l165.429 165.428a37.137 37.137 0 0052.627 0 37.236 37.236 0 000-52.677L668.74 555.293 786.655 437.33l159.77 159.769a37.236 37.236 0 0052.726-52.578zM363.75 215.896l111.014-111.063L613.432 243.45 502.319 354.565l-138.57-138.669z"/></svg>