<svg class="icon" style="width:1em;height:1em;vertical-align:middle" viewBox="0 0 1024 1024" xmlns="http://www.w3.org/2000/svg" overflow="hidden"><path d="M926.834 201.956a10.898 10.898 0 00-2.276-2.845c-5.689-5.689-14.905-5.689-20.594 0l-196.039 196.04-77.255-77.256 196.153-196.153c.91-.91 1.593-1.82 2.276-2.844a14.499 14.499 0 00-5.12-19.911c-111.73-65.991-258.048-50.859-354.19 45.17-76.232 76.23-101.49 184.32-75.663 281.486L60.757 759.012c-3.413 3.413-3.185 8.988.342 12.515l193.08 193.081c3.528 3.527 9.217 3.755 12.516.341L599.95 631.694c97.28 25.942 205.37.797 281.714-75.548 96.028-96.142 111.16-242.46 45.17-354.19zM823.75 498.119c-66.105 66.105-165.319 78.848-244.167 38.23l-10.012 10.012-.114-.114-311.751 311.865L167.595 768l261.802-261.803s0 .114.114.114l60.075-60.075c-40.619-78.848-27.876-178.062 38.23-244.167 44.6-44.6 104.788-65.194 163.84-60.87L540.443 292.294c-14.222 14.222-14.222 37.32 0 51.541L682.098 485.49c14.222 14.222 37.319 14.222 51.541 0l151.097-151.097c4.21 58.937-16.384 119.239-60.985 163.726z"/></svg>