<svg class="icon" style="width:1em;height:1em;vertical-align:middle" viewBox="0 0 1024 1024" xmlns="http://www.w3.org/2000/svg" overflow="hidden"><path d="M960.308 773.159V168.916c0-45.171-31.759-77.966-77.965-77.966H141.66c-55.599 0-77.968 24.258-77.968 77.966v604.243c0 40.613 44.216 58.473 77.968 58.473l100.289-.157c12.946 0 16.556-8.87 16.556-17.79 0-17.13-7.85-21.037-19.388-21.037h-97.457c-20.704 0-38.984-16.425-38.984-38.984v-584.75c0-21.523 8.794-38.982 38.984-38.982h740.684c26.278 0 38.982 17.459 38.982 38.982v584.75c0 22.504-15.417 38.984-38.982 38.984h-97.459c-13.129 0-19.113 5.322-19.113 22.45 0 8.92 10.538 16.532 19.113 16.532h97.46c40.502.002 77.964-16.505 77.964-58.471z"/><path d="M531.365 285.624L781.4 535.66c7.844 8.96 7.18 18.164-.943 26.286-8.126 8.125-21.728 8.39-32.255-1.336L550.857 363.593V909.36c0 10.378-5.769 23.691-28.672 23.691-22.901 0-29.803-11.096-29.803-23.691V363.593L297.464 558.51c-11.403 10.784-23.132 15.256-34.964 3.427-11.833-11.835-3.44-21.943.77-27.708l248.603-248.605c5.657-5.443 13.075-5.115 19.492 0z"/></svg>