<svg class="icon" style="width:1em;height:1em;vertical-align:middle" viewBox="0 0 1024 1024" xmlns="http://www.w3.org/2000/svg" overflow="hidden"><path d="M306.69 349.007l408.37-.378c22.464 0 40.679-18.214 40.679-40.678s-18.215-40.678-40.679-40.678l-408.37.378c-22.466 0-40.68 18.203-40.68 40.678 0 22.464 18.214 40.678 40.68 40.678zm0 162.713l408.37-.378c22.464 0 40.679-18.214 40.679-40.677 0-22.464-18.215-40.678-40.679-40.678l-408.37.378c-22.466 0-40.68 18.202-40.68 40.677 0 22.464 18.214 40.678 40.68 40.678z"/><path d="M877.157 624.19l-.338-482.537c-1.905-43.141-37.142-77.602-80.721-77.752l-573.367.328c-43.22 1.918-77.763 37.302-77.763 81v43.22h-.335l.277 645.768h.058v43.22c0 44.928 36.429 81.355 81.358 81.355h40.678v.23l120.088-.219c22.465 0 40.68-18.214 40.68-40.677 0-22.466-18.215-40.68-40.68-40.68l-104.774.19c-39.148-3.784-53.51-17.012-56.051-58.138l-.279-623.272.239 32.225c-.972-69.329 14.937-81.883 80.205-82.805l-9.415-.1 419.394-.238c60.562 1.43 78.278 12.653 79.115 70.175v3.744c0 3 0 5.999-.082 9.246l.082-4.081.257 367.961-160.131.218v.118h-43.22c-44.929 0-81.356 36.418-81.356 81.358v40.677h-.278l.258 195.507c-2.622 12.931 1.034 26.874 11.063 36.903a40.664 40.664 0 0013.687 9.006 40.583 40.583 0 0015.927 3.25c14.204 0 26.657-7.29 33.925-18.304l271.68-272.364c3.017-1.826 5.839-3.932 8.303-6.463 7.704-7.398 12.532-17.749 12.532-29.279-.002-3.03-.38-5.948-1.016-8.79zM592.29 819.24l-.079-67.762c.557-61.91 14.897-77.462 82.55-77.462l-82.072.545-.497 73.224-.1-73.8 145.275-.197L592.29 819.24z"/></svg>