<svg class="icon" style="width:1em;height:1em;vertical-align:middle" viewBox="0 0 1024 1024" xmlns="http://www.w3.org/2000/svg" overflow="hidden"><path d="M214.754 393.787c5.273 5.274 12.392 8.262 19.863 8.262s14.59-2.988 19.863-8.262l130.606-130.605c10.986-10.987 10.986-28.828 0-39.815-10.986-10.986-28.828-10.986-39.815 0L234.617 334.11l-62.314-62.314c-10.987-10.986-28.828-10.986-39.815 0-10.986 10.986-10.986 28.828 0 39.814l82.266 82.178z"/><path d="M418.924 118.25H98.562C78.349 118.25 62 134.598 62 155.076v320.625C62 495.916 78.348 512 98.563 512h320.361c20.215 0 36.826-16.084 36.826-36.299V155.164c0-20.566-16.611-36.914-36.826-36.914zM399.5 455.75H118.25V174.5H399.5v281.25zM568.25 287h365.625C949.432 287 962 274.432 962 258.875s-12.568-28.125-28.125-28.125H568.25c-15.557 0-28.125 12.568-28.125 28.125S552.693 287 568.25 287zM933.875 399.5H568.25c-15.557 0-28.125 12.568-28.125 28.125s12.568 28.125 28.125 28.125h365.625c15.557 0 28.125-12.568 28.125-28.125S949.432 399.5 933.875 399.5zM214.754 843.787c5.45 5.45 12.656 8.262 19.863 8.262s14.414-2.725 19.863-8.262l130.606-130.605c10.986-10.987 10.986-28.828 0-39.815-10.986-10.986-28.828-10.986-39.815 0L234.617 784.11l-62.314-62.314c-10.987-10.986-28.828-10.986-39.815 0-10.986 10.986-10.986 28.828 0 39.814l82.266 82.178z"/><path d="M418.924 568.25H98.562C78.349 568.25 62 584.598 62 605.076v320.537c0 20.215 16.348 36.3 36.563 36.3h320.361c20.215 0 36.826-16.085 36.826-36.3V605.076c0-20.478-16.611-36.826-36.826-36.826zM399.5 905.75H118.25V624.5H399.5v281.25zM933.875 680.75H568.25c-15.557 0-28.125 12.568-28.125 28.125S552.693 737 568.25 737h365.625C949.432 737 962 724.432 962 708.875s-12.568-28.125-28.125-28.125zM933.875 849.5H568.25c-15.557 0-28.125 12.568-28.125 28.125s12.568 28.125 28.125 28.125h365.625c15.557 0 28.125-12.568 28.125-28.125S949.432 849.5 933.875 849.5z"/></svg>