<svg class="icon" viewBox="0 0 1024 1024" xmlns="http://www.w3.org/2000/svg" width="200" height="200"><path d="M959.147 409.6L761.173 68.267H368.64L170.667 409.6l6.826 10.24L61.44 621.227 252.587 952.32H634.88l116.053-201.387h10.24L959.147 409.6zM402.773 122.88h331.094l163.84 286.72-163.84 286.72H402.773L235.52 409.6l167.253-286.72zM614.4 914.773H273.067L102.4 621.227l95.573-163.84L368.64 750.933h341.333L614.4 914.773z"/><path d="M777.387 604.604l32.495-18.774 13.653 23.62-32.495 18.774zm-33.28-51.644L716.8 498.347l30.72-17.067 30.72 54.613-34.133 17.067zM686.08 447.147l-30.72-54.614 30.72-17.066 30.72 54.613-30.72 17.067zM624.64 337.92l-10.24-13.653h-17.067V286.72h37.547l20.48 34.133zm-88.747-13.653h-61.44V286.72h61.44v37.547zm-122.88 0h-61.44V286.72h61.44v37.547zM262.827 286.72h27.306v37.547h-27.306z"/></svg>