<svg class="icon" style="width:1em;height:1em;vertical-align:middle" viewBox="0 0 1024 1024" xmlns="http://www.w3.org/2000/svg" overflow="hidden"><path d="M840.113 169.837H652.62a14.068 14.068 0 00-13.692 10.838l-.377 3.22v187.496a14.125 14.125 0 0010.839 13.691l3.23.368h187.494a14.068 14.068 0 0013.692-10.839l.368-3.22V183.877a14.068 14.068 0 00-10.839-13.692zM371.372 638.569H183.877a14.125 14.125 0 00-13.692 10.839l-.33 3.23v187.494a14.068 14.068 0 0010.83 13.692l3.23.367h187.457a14.068 14.068 0 0013.692-10.838l.367-3.22V652.637a14.068 14.068 0 00-10.839-13.692zM840.113 90.144a93.752 93.752 0 0193.743 93.733v187.514a93.752 93.752 0 01-93.743 93.752h-53.91V565.9h53.91a86.718 86.718 0 0186.455 79.938l.263 6.78v234.39a39.851 39.851 0 01-79.382 4.99l-.31-4.99V652.637a7.044 7.044 0 00-4.803-6.677l-2.223-.358H652.62a7.044 7.044 0 00-6.677 4.812l-.358 2.223v234.37A39.842 39.842 0 01566.212 892l-.311-4.99V652.637a86.718 86.718 0 0179.938-86.445l6.78-.264 53.9-.047V465.124h-53.9a93.752 93.752 0 01-93.752-93.752V183.877a93.752 93.752 0 0193.752-93.752zm-421.865 7.034a39.851 39.851 0 0139.55 34.842l.31 5v234.37a86.718 86.718 0 01-79.937 86.455l-6.78.264h-53.92v100.758h53.9a93.752 93.752 0 0193.753 93.752v187.513a93.752 93.752 0 01-93.752 93.743H183.877a93.752 93.752 0 01-93.752-93.743V652.638a93.752 93.752 0 0193.752-93.753h53.901V458.127h-53.9a86.718 86.718 0 01-86.455-79.937l-.264-6.78V137.02a39.842 39.842 0 0179.373-5l.31 5v234.37a7.044 7.044 0 004.813 6.677l2.222.358h187.495a7.044 7.044 0 006.676-4.812l.358-2.222V137.02a39.842 39.842 0 0139.842-39.842z"/></svg>