<svg class="icon" viewBox="0 0 1024 1024" xmlns="http://www.w3.org/2000/svg" width="200" height="200"><path d="M516.476 479.658c-335.673 0-394.282-55.945-410.266-95.906V221.244c0-10.656 7.992-21.313 21.312-21.313 10.656 0 18.649 7.993 18.649 18.649 13.32 18.648 133.203 50.617 354.32 50.617 226.446 0 343.665-34.633 356.985-50.617 2.664-7.992 10.656-15.985 21.312-15.985s18.649 7.993 18.649 18.649V375.76c0 71.93-117.219 103.898-380.961 103.898zm-372.97-106.562c13.32 26.64 79.922 66.601 372.97 66.601 325.016 0 341-53.281 341-63.937V263.869c-93.242 42.625-325.016 45.29-356.985 45.29-101.234 0-197.14-7.993-269.07-21.313-37.297-5.329-66.602-13.32-87.914-23.977v109.227zm0-151.852z"/><path d="M516.476 716.76c-335.673 0-394.282-55.945-410.266-95.906V458.346c0-10.657 7.992-21.313 21.312-21.313 10.656 0 18.649 7.992 18.649 18.649 13.32 15.984 133.203 47.953 356.984 47.953s343.665-31.969 356.985-47.953c2.664-7.993 10.656-15.985 21.313-15.985s18.648 7.992 18.648 18.649v157.18C897.437 684.79 780.218 716.76 516.476 716.76zm-372.97-106.563c13.32 26.641 79.922 66.602 372.97 66.602 325.016 0 341-53.281 341-63.937V498.307c-93.242 42.625-325.016 45.289-356.985 45.289-101.234 0-197.14-7.992-269.07-18.649-37.297-5.328-66.602-13.32-87.914-23.976v109.226zm0-151.851z"/><path d="M516.476 953.862c-335.673 0-394.282-55.946-410.266-95.907V695.448c0-10.657 7.992-21.313 21.312-21.313 10.656 0 18.649 7.992 18.649 18.648 13.32 15.985 133.203 47.954 356.984 47.954s343.665-31.97 356.985-47.954c2.664-7.992 10.656-15.984 21.313-15.984s18.648 7.992 18.648 18.649v154.515c-2.664 74.594-119.883 103.899-383.625 103.899zm-372.97-106.563c13.32 26.64 79.922 66.602 372.97 66.602 317.023 0 341-47.953 341-63.938V735.408c-93.242 42.626-325.016 45.29-356.985 45.29-101.234 0-197.14-7.993-269.07-18.649-37.297-5.328-66.602-13.32-87.914-23.976v109.226zm0-149.187zm356.985-455.556c-39.96 0-396.945-2.664-396.945-90.578S460.53 61.4 500.49 61.4c42.625 2.664 396.946 2.664 396.946 90.578s-354.32 90.578-396.946 90.578zm-354.32-90.578c21.312 18.649 138.531 50.617 354.32 50.617s335.672-31.968 354.32-50.617c-18.648-18.648-138.53-50.617-354.32-50.617s-333.008 31.969-354.32 50.617z"/></svg>