<svg class="icon" style="width:1em;height:1em;vertical-align:middle" viewBox="0 0 1024 1024" xmlns="http://www.w3.org/2000/svg" overflow="hidden"><path d="M826.4 64.8h-632c-56.8 0-132.8 46.4-130.4 130.4l-1.6 633.6C61.6 904 124 959.2 192.8 959.2h633.6c89.6.8 130.4-74.4 130.4-130.4V196c0-84-83.2-131.2-130.4-131.2zM601.6 589.6l-79.2 79.2 25.6 25.6c7.2 7.2 7.2 18.4 0 25.6l-60 60c-18.4 18.4-56.8 39.2-101.6 46.4-9.6 1.6-18.4 2.4-28 2.4-37.6 0-73.6-12.8-102.4-36.8l-96.8 96.8c-7.2 7.2-18.4 7.2-25.6 0-7.2-7.2-7.2-18.4 0-25.6l96.8-96.8c-29.6-36.8-42.4-84-34.4-130.4 7.2-44.8 28-83.2 46.4-101.6l60-60c7.2-7.2 18.4-7.2 25.6 0l25.6 25.6 79.2-79.2c7.2-6.4 18.4-6.4 24.8 0s7.2 17.6 0 24.8l-79.2 79.2 118.4 118.4L576 564c7.2-6.4 18.4-6.4 24.8.8 7.2 7.2 8 17.6.8 24.8zm288-430.4l-95.2 94.4c28 36 39.2 82.4 31.2 127.2-6.4 44.8-28.8 83.2-46.4 101.6L720 541.6c-7.2 7.2-18.4 7.2-25.6 0l-219.2-220c-7.2-7.2-7.2-18.4 0-25.6l60-60c18.4-18.4 56.8-40 101.6-46.4 48-8 97.6 4.8 134.4 36.8l92.8-92.8c7.2-7.2 18.4-7.2 25.6 0 6.4 7.2 6.4 18.4 0 25.6z"/></svg>