<svg class="icon" style="width:1.0166015625em;height:1em;vertical-align:middle" viewBox="0 0 1041 1024" xmlns="http://www.w3.org/2000/svg" overflow="hidden"><path d="M512.746 53.63c106.09 0 192.068 75.415 192.068 168.456 0 21.79-7.54 50.745-22.64 86.889h138.651a69.035 69.035 0 0169.035 69.056v523.283a69.035 69.035 0 01-69.035 69.035H204.708a69.035 69.035 0 01-69.035-69.035L135.63 768.9c81.4 0 147.37-57.872 147.37-129.247 0-71.355-65.99-129.205-147.37-129.205l.042-132.416a69.035 69.035 0 0169.035-69.056l140.783-.041c-16.55-36.123-24.813-65.059-24.813-86.848 0-93.041 85.998-168.435 192.068-168.435zm0 69.056c-69.802 0-123.033 46.665-123.033 99.4 0 9.03 4.68 26.284 14.913 49.958l3.625 8.14 44.76 97.764-248.303.104-.062 73.674 2.03.622c81.006 25.745 141.239 94.387 145.153 178.542l.207 8.783c0 85.004-57.228 155.49-136.454 184.3l-10.936 3.604.062 73.737h616.117V378.031H578.487l39.976-95.692c11.889-28.418 17.316-49.234 17.316-60.274 0-52.714-53.211-99.38-123.033-99.38z"/></svg>