<svg class="icon" viewBox="0 0 1024 1024" xmlns="http://www.w3.org/2000/svg" width="200" height="200"><path d="M362.667 405.333h298.666c12.8 0 21.334-8.533 21.334-21.333V106.667H341.333V384c0 12.8 8.534 21.333 21.334 21.333zm192-202.666c0-17.067 14.933-32 32-32s32 14.933 32 32v106.666c0 17.067-14.934 32-32 32s-32-14.933-32-32V202.667z"/><path d="M832 106.667h-85.333V384c0 46.933-38.4 85.333-85.334 85.333H362.667c-46.934 0-85.334-38.4-85.334-85.333V106.667H192c-46.933 0-85.333 38.4-85.333 85.333v640c0 46.933 38.4 85.333 85.333 85.333h640c46.933 0 85.333-38.4 85.333-85.333V192c0-46.933-38.4-85.333-85.333-85.333zm-32 682.666H224c-17.067 0-32-14.933-32-32s14.933-32 32-32h576c17.067 0 32 14.934 32 32s-14.933 32-32 32z"/></svg>