<svg class="icon" style="width:1em;height:1em;vertical-align:middle" viewBox="0 0 1024 1024" xmlns="http://www.w3.org/2000/svg" overflow="hidden"><path d="M104.22 283.643h559.241c12.117 40.312 49.167 69.906 93.207 69.906s81.09-29.594 93.206-69.906h93.207c15.38 0 27.962-12.582 27.962-27.962s-12.583-27.962-27.962-27.962h-93.207c-12.116-40.312-49.166-69.905-93.206-69.905s-81.09 29.593-93.207 69.905h-559.24c-15.38 0-27.963 12.583-27.963 27.962s12.583 27.962 27.962 27.962zm652.448-69.905c23.068 0 41.943 18.875 41.943 41.943s-18.875 41.943-41.943 41.943-41.943-18.874-41.943-41.943 18.874-41.943 41.943-41.943zM943.08 693.753h-93.207c-12.116-40.312-49.166-69.905-93.206-69.905s-81.09 29.593-93.207 69.905h-559.24c-15.38 0-27.963 12.583-27.963 27.962s12.583 27.962 27.962 27.962h559.241c12.117 40.312 49.167 69.905 93.207 69.905s81.09-29.593 93.206-69.905h93.207c15.38 0 27.962-12.583 27.962-27.962s-12.583-27.962-27.962-27.962zm-186.413 69.905c-23.069 0-41.943-18.874-41.943-41.943s18.874-41.943 41.943-41.943 41.943 18.875 41.943 41.943-18.875 41.943-41.943 41.943zM943.08 460.736h-559.24c-12.117-40.312-49.167-69.905-93.207-69.905s-81.09 29.593-93.207 69.905H104.22c-15.379 0-27.962 12.583-27.962 27.962s12.583 27.962 27.962 27.962h93.207c12.117 40.312 49.167 69.905 93.207 69.905s81.09-29.593 93.207-69.905h559.24c15.38 0 27.962-12.583 27.962-27.962s-12.583-27.962-27.962-27.962zm-652.447 69.905c-23.069 0-41.943-18.874-41.943-41.943s18.874-41.943 41.943-41.943 41.943 18.875 41.943 41.943-18.874 41.943-41.943 41.943z"/></svg>