<svg class="icon" style="width:1em;height:1em;vertical-align:middle" viewBox="0 0 1024 1024" xmlns="http://www.w3.org/2000/svg" overflow="hidden"><path d="M398.528 478.923H79.285c-6.037 0-10.933-4.896-10.933-10.934V148.747c0-6.038 4.896-10.934 10.933-10.934h319.243c6.037 0 10.933 4.896 10.933 10.934v319.242c.011 6.038-4.896 10.934-10.933 10.934zm-261.91-68.267h204.587V206.069H136.62v204.587zM398.529 888.8H79.285c-6.037 0-10.933-4.896-10.933-10.933V558.624c0-6.037 4.896-10.933 10.933-10.933h319.243c6.037 0 10.933 4.896 10.933 10.933v319.243c.011 6.037-4.896 10.933-10.933 10.933zm-261.91-68.267h204.587V615.947H136.62v204.586zm808.289-580.277H488.82c-6.037 0-10.933-4.896-10.933-10.933v-46.39c0-6.037 4.896-10.933 10.933-10.933h456.086c6.037 0 10.933 4.896 10.933 10.933v46.39c.01 6.037-4.885 10.933-10.933 10.933zm0 204.63h-455.36c-6.038 0-10.934-4.897-10.934-10.934v-46.39c0-6.037 4.896-10.933 10.934-10.933h455.36c6.037 0 10.933 4.896 10.933 10.934v46.389c.01 6.037-4.885 10.933-10.933 10.933zm0 205.183H488.82c-6.037 0-10.933-4.896-10.933-10.933v-46.39c0-6.037 4.896-10.933 10.933-10.933h456.086c6.037 0 10.933 4.896 10.933 10.934v46.389c.01 6.027-4.885 10.933-10.933 10.933zm0 204.619h-455.36c-6.038 0-10.934-4.896-10.934-10.933v-46.39c0-6.037 4.896-10.933 10.934-10.933h455.36c6.037 0 10.933 4.896 10.933 10.933v46.39c.01 6.037-4.885 10.933-10.933 10.933z"/></svg>