<svg class="icon" style="width:1em;height:1em;vertical-align:middle" viewBox="0 0 1024 1024" xmlns="http://www.w3.org/2000/svg" overflow="hidden"><path d="M397.939 794.89h-263a47.133 47.133 0 010-94.265h263l-60.801-60.801a47.133 47.133 0 0166.457-66.457L540.28 710.052a47.038 47.038 0 012.356 73.527L403.595 922.62a47.133 47.133 0 01-66.457-66.928l60.8-60.802zM889.062 936.29H700.53a47.133 47.133 0 010-94.266h141.398V396.62L512 190.65 182.071 397.09v115.004a47.133 47.133 0 11-94.265 0V370.696a47.133 47.133 0 0122.152-40.063L487.02 94.97a47.133 47.133 0 0149.96 0l377.062 235.663a47.133 47.133 0 0122.152 40.063v518.46a47.133 47.133 0 01-47.132 47.133z"/></svg>