<svg class="icon" style="width:1em;height:1em;vertical-align:middle" viewBox="0 0 1024 1024" xmlns="http://www.w3.org/2000/svg" overflow="hidden"><path d="M895.59 733.58c-20.96-49.57-50.97-94.08-89.19-132.29-38.21-38.21-82.72-68.22-132.29-89.19a417.232 417.232 0 00-30.48-11.51c9.3-6.8 18.14-14.35 26.44-22.65 42.2-42.2 65.44-98.3 65.44-157.98 0-59.68-23.24-115.78-65.44-157.98-42.2-42.2-98.3-65.44-157.98-65.44a223.44 223.44 0 00-157.99 65.45c-42.19 42.2-65.43 98.3-65.43 157.97 0 59.68 23.24 115.78 65.44 157.98 8.3 8.3 17.14 15.85 26.44 22.65a417.232 417.232 0 00-30.48 11.51c-49.57 20.96-94.08 50.97-132.29 89.19-38.21 38.21-68.22 82.72-89.19 132.29-21.71 51.33-32.72 105.85-32.72 162.02v21.92c0 5.57 4.51 10.08 10.08 10.08h812.27c5.57 0 10.08-4.51 10.08-10.08V895.6c.01-56.18-11-110.69-32.71-162.02zM352.68 319.96c0-87.9 71.51-159.42 159.42-159.42 87.9 0 159.42 71.51 159.42 159.42S600 479.38 512.1 479.38c-87.91 0-159.42-71.51-159.42-159.42zM161.32 863.6c16.22-179.27 167.35-320.22 350.78-320.22S846.65 684.33 862.87 863.6H161.32z"/></svg>