<svg class="icon" style="width:1.0009765625em;height:1em;vertical-align:middle" viewBox="0 0 1025 1024" xmlns="http://www.w3.org/2000/svg" overflow="hidden"><path d="M668.767 370.117c0-86.904-70.257-157.367-156.936-157.367-86.66 0-156.898 70.445-156.898 157.367 0 86.866 70.239 157.292 156.898 157.292 86.679 0 156.936-70.445 156.936-157.292m-276.175 0c0-66.059 53.368-119.595 119.24-119.595 65.908 0 119.238 53.536 119.238 119.595 0 66.02-53.33 119.557-119.239 119.557-65.87-.018-119.239-53.555-119.239-119.557M235.394 732.539v13.665h13.647l255.986.112 277.487-.112h13.684v-13.665c0-122.857-119.895-251-273.363-240.184-8.792.619-21.745 8.023-30.461 8.735-7.536.656 12.034 7.236 12.653 14.79 7.929-.693 5.548 11.51 13.628 11.51 132.36 0 231.28 90.596 231.28 197.426l13.57-13.703-251.205-.038-245.208 1.594 13.647 13.721c0-72.732 66.002-134.216 120.289-168.595 6.373-4.03 7.61-15.521 4.274-20.133-6.018-8.285-17.471-7.648-24.65-5.286-67.933 22.27-145.258 116.521-145.258 200.163"/><path d="M512.281 63.35c-248.525 0-450.019 201.174-450.019 449.306C62.262 760.92 263.756 962 512.282 962c103.21 0 201.118-34.81 280.204-97.738 9.485-7.46 11.022-21.295 3.506-30.761-7.574-9.467-21.408-11.022-30.874-3.468-71.345 56.723-159.598 88.103-252.818 88.103-224.306 0-406.08-181.548-406.08-405.499 0-223.912 181.774-405.442 406.08-405.442 224.306 0 406.136 181.548 406.136 405.442 0 76.8-21.389 150.375-61.185 214.147-6.392 10.235-3.224 23.806 7.067 30.199 10.291 6.392 23.825 3.186 30.236-7.011 44.108-70.67 67.802-152.268 67.802-237.353-.019-248.095-201.53-449.27-450.075-449.27z"/></svg>