<svg class="icon" style="width:1em;height:1em;vertical-align:middle" viewBox="0 0 1024 1024" xmlns="http://www.w3.org/2000/svg" overflow="hidden"><path d="M572 270.98c12.24-3.24 25.8-5.1 40.02-5.1h99.96c55.2 0 100.02 27.42 100.02 61.2v289.68h-60v-58.5h-60v-58.44h60v-145.2c0-28.2-17.88-30.24-40.02-30.24h-99.96c-22.14 0-40.02 2.04-40.02 30.18v320.7h-60v-504c0-58.74-35.82-80.76-79.98-80.76h-80.04c-44.16 0-79.98 22.02-79.98 80.7v504h-60V148.94C212 84.38 265.7 32 332 32h120c66.3 0 120 52.38 120 117v121.98zM332 499.82h60v58.44h-60v-58.44zm60-117h60v58.5h-60v-58.44zm-60-116.88h60v58.5h-60v-58.5zM392 149h60v58.5h-60V149zm240 233.94h60v58.44h-60v-58.44zM194.78 255.92A401.76 401.76 0 0092 524.18C92 750.26 280.04 933.5 512 933.5s420-183.24 420-409.32c0-47.4-8.28-93-23.52-135.42l56.64-19.32c17.4 48.42 26.88 100.5 26.88 154.8C992 782.48 777.08 992 512 992S32 782.6 32 524.18C32 407.6 75.8 300.86 148.28 218.9l46.5 37.02z"/></svg>