<svg class="icon" style="width:1em;height:1em;vertical-align:middle" viewBox="0 0 1024 1024" xmlns="http://www.w3.org/2000/svg" overflow="hidden"><path d="M375.467 830.578H512V554.902L329.956 396.098 147.91 554.902v275.676h136.533V648.533h91.023v182.045zM921.6 921.6H102.4a45.511 45.511 0 01-45.511-45.511v-341.94a45.511 45.511 0 0115.595-34.285l166.45-145.15V147.91a45.511 45.511 0 0145.51-45.511H921.6a45.511 45.511 0 0145.511 45.511V876.09A45.511 45.511 0 01921.6 921.6zM694.044 466.489v91.022h91.023V466.49h-91.023zm0 182.044v91.023h91.023v-91.023h-91.023zm0-364.089v91.023h91.023v-91.023h-91.023zm-182.044 0v91.023h91.022v-91.023H512z"/></svg>