<svg class="icon" style="width:1em;height:1em;vertical-align:middle" viewBox="0 0 1024 1024" xmlns="http://www.w3.org/2000/svg" overflow="hidden"><path d="M952.935 406.063c-13.645 0-24.788 10.88-24.788 24.34v433.784c0 27.039-22.169 48.91-49.563 48.91h-743.41c-27.402 0-49.564-21.87-49.564-48.91V156.47c0-27.036 22.162-48.915 49.564-48.915h478.74c13.645 0 24.788-10.993 24.788-24.446 0-13.573-11.143-24.46-24.789-24.46H130.177c-51.956 0-94.022 41.507-94.022 92.88v717.488c0 51.259 42.066 92.878 94.13 92.878h753.297c51.955 0 94.135-41.507 94.135-92.878V430.403c-.115-13.465-11.141-24.34-24.782-24.34zm-460.55 313.195L963.73 254.174c27.97-27.593 25.472-75.269-5.795-106.01l-44.566-43.974c-31.152-30.844-79.469-33.316-107.434-5.724l-471.35 465.201 157.802 155.591zm348.676-586.014c10.691-10.545 28.994-9.538 40.819 2.136l44.564 43.966c11.824 11.786 12.73 29.731 2.158 40.277l-52.296 51.606-86.858-86.94 51.613-51.045zm-1.931 174.44L488.748 653.407l-87.424-86.26L752.5 220.633l86.63 87.052zM334.358 564.45l-48.426 175.223c-2.169 7.628.11 15.7 5.682 21.424 5.687 5.494 13.87 7.741 21.715 5.613l177.468-47.793-36.27-35.89-115.393 31.071 31.49-113.747-36.266-35.901zm0 0"/></svg>