<svg class="icon" style="width:1em;height:1em;vertical-align:middle" viewBox="0 0 1024 1024" xmlns="http://www.w3.org/2000/svg" overflow="hidden"><path d="M468.527 74.55c30.013 0 54.341 24.329 54.341 54.342v831.426H50.096V128.892c0-30.013 24.329-54.342 54.342-54.342h364.089zM251.16 628.834H147.911v103.25h103.25v-103.25zm173.893 0H321.804v103.25h103.25v-103.25zM251.16 444.073H147.911v103.25h103.25v-103.25zm173.893 0H321.804v103.25h103.25v-103.25zM251.16 259.311H147.911v103.25h103.25V259.31zm173.893 0H321.804v103.25h103.25V259.31zm499.943 157.591c30.013 0 54.342 24.329 54.342 54.342v489.074H577.21V471.244c0-30.013 24.329-54.342 54.342-54.342h293.444zM740.235 726.65h-103.25V829.9h103.25v-103.25zm173.893 0h-103.25V829.9h103.25v-103.25zM740.235 541.888h-103.25v103.249h103.25v-103.25zm173.893 0h-103.25v103.249h103.25v-103.25z"/></svg>