<svg class="icon" style="width:1em;height:1em;vertical-align:middle" viewBox="0 0 1024 1024" xmlns="http://www.w3.org/2000/svg" overflow="hidden"><path d="M903.68 50.24H120.32a36 36 0 00-36 36v852a36 36 0 0036 36h783.36a36 36 0 0036-36v-852a36 36 0 00-36-36zm-321.12 72v780H441.44v-780h141.12zm-425.76 0h236.64v780H156.32v-780zm710.88 780H630.56v-780h237.12v780z"/><path d="M342.56 405.44l-60.96-65.76a24.48 24.48 0 00-17.76-7.68 24 24 0 00-17.76 8.16l-57.12 65.76A24 24 0 10224 437.6l18.24-21.6v196.8a24 24 0 1048 0v-192l17.28 17.28a24 24 0 0035.04-32.64zm338.4 157.44l57.12 65.76a24 24 0 0017.76 8.16 24 24 0 0017.76-7.68l60.96-65.76A24 24 0 10800 530.72l-17.76 18.72v-192a24 24 0 00-48 0v194.88l-17.28-19.68a24 24 0 10-36 30.24z"/></svg>