<svg class="icon" style="width:1em;height:1em;vertical-align:middle" viewBox="0 0 1024 1024" xmlns="http://www.w3.org/2000/svg" overflow="hidden"><path d="M681.586 894.52h-559.56V173.694c0-35.794 29.196-64.978 64.98-64.978h429.59c35.783 0 64.978 29.195 64.978 64.978v720.828zm-501.578-57.992h443.585V173.693a6.95 6.95 0 00-6.997-6.997h-429.58a6.95 6.95 0 00-6.997 6.997v662.835zm0 0"/><path d="M961.126 894.52H68.938c-15.997 0-28.99-13.004-28.99-28.99 0-15.997 12.993-29.002 28.99-29.002h892.177c15.997 0 28.99 13.005 28.99 29.002.012 15.986-12.89 28.99-28.979 28.99zm0 0"/><path d="M909.437 865.53h-57.992V534.505c0-2.105-.9-4.096-2.503-5.404l-218.75-181.248 36.99-44.68 218.749 181.35c14.996 12.401 23.495 30.595 23.495 49.982V865.53zm-424.3-530.272h-163.26c-15.997 0-29.002-13.005-29.002-29.002 0-15.998 13.005-28.99 29.002-28.99h163.26c15.997 0 29.002 13.004 29.002 28.99-.011 15.997-13.005 29.002-29.002 29.002zm0 168.755h-163.26c-15.997 0-29.002-12.994-29.002-28.99s13.005-28.991 29.002-28.991h163.26c15.997 0 29.002 12.993 29.002 28.99-.011 15.997-13.005 28.99-29.002 28.99zm0 168.152h-163.26c-15.997 0-29.002-12.993-29.002-28.99s13.005-28.991 29.002-28.991h163.26c15.997 0 29.002 12.993 29.002 28.99-.011 15.998-13.005 28.991-29.002 28.991zm0 0"/><path d="M764.564 699.767c-15.997 0-28.99-13.004-28.99-28.99v-55.99c0-15.997 12.993-28.99 28.99-28.99s28.99 12.993 28.99 28.99v55.99c.012 15.986-12.89 28.99-28.99 28.99zm0 0"/></svg>