<svg class="icon" style="width:1em;height:1em;vertical-align:middle" viewBox="0 0 1024 1024" xmlns="http://www.w3.org/2000/svg" overflow="hidden"><path d="M478.321 629.246c0-18.325 15.362-34.746 33.679-34.746s33.718 16.421 33.718 34.746V759.5H677c20.616 0 37.5-16.86 37.5-37.5V324.5c0-20.64-16.884-37.5-37.5-37.5H545.718v131.223C545.718 436.547 530.317 452 512 452s-32.784-15.743-32.784-34.067L478.32 287H347c-20.616 0-37.5 16.86-37.5 37.5V722c0 20.64 16.884 37.5 37.5 37.5h131.321V629.246zm-.086 235.254c0-18.323 15.448-30 33.765-30s33.825 11.677 33.825 30V887l9.553-8.476c12.948-12.968 33.953-12.976 46.91-.017 12.953 12.955 12.96 33.963.013 46.931l-49.862 49.878c-22.127 22.137-57.996 22.137-80.122 0l-49.866-49.882a33.199 33.199 0 01-8.572-32.053 33.176 33.176 0 0123.46-23.46 33.15 33.15 0 0132.033 8.596l8.863 8.483v-22.5zm67.523-729.347V182c0 18.323-15.441 30-33.758 30s-33.66-11.677-33.66-30v-46.847l-8.962 10.253c-12.95 12.968-33.953 12.975-46.912.016-12.953-12.955-12.96-33.962-.011-46.93l49.86-49.879c22.127-22.138 57.997-22.138 80.123 0l49.867 49.883a33.199 33.199 0 018.57 32.053 33.176 33.176 0 01-23.459 23.46 33.153 33.153 0 01-32.036-8.6l-9.622-10.257zM99.5 65.18C99.5 46.857 114.609 32 133.25 32S167 46.857 167 65.18v893.64c0 18.322-15.109 33.18-33.75 33.18S99.5 977.143 99.5 958.82V65.18zM677 219.5c27.493 0 53.722 11.564 73.16 31.02C769.6 269.971 782 296.99 782 324.5V722c0 27.51-12.401 55.544-31.84 74.997C730.723 816.453 704.494 827 677 827H347c-27.493 0-52.967-10.547-72.406-30.003C255.157 777.544 242 749.51 242 722V324.5c0-27.51 13.157-54.527 32.594-73.98 19.44-19.456 44.913-31.02 72.406-31.02h330zM890.75 32c18.641 0 33.75 14.857 33.75 33.18v893.64c0 18.322-15.109 33.18-33.75 33.18S857 977.143 857 958.82V65.18C857 46.858 872.109 32 890.75 32z"/></svg>