<svg class="icon" style="width:1em;height:1em;vertical-align:middle" viewBox="0 0 1024 1024" xmlns="http://www.w3.org/2000/svg" overflow="hidden"><path d="M334.06 282.56h355.76a25.8 25.8 0 0025.54-26.06 25.8 25.8 0 00-25.54-26.06H334.06a25.76 25.76 0 00-25.52 26.06c0 14.32 11.36 26.06 25.52 26.06m0 144.52h253.56c14.14 0 25.4-11.64 25.4-26.04 0-14.4-11.26-26.04-25.4-26.04H334.06c-14.16 0-25.52 11.64-25.52 26.04 0 14.4 11.36 26.04 25.52 26.04m579.68-81.64l-63.98-37.88V58.32a26.12 26.12 0 00-25.86-26.34H199.86c-14.26 0-25.84 11.74-25.84 26.34v249.24l-64.04 37.88L59 371.48v594.58c0 3.64.68 6.98 2.02 10.08.1.32.3.54.4.72.68 1.54 1.52 2.98 2.52 4.32 4.46 6.24 11.52 10.4 19.7 10.7.32 0 .58.1.88.1h854.8c14.12 0 25.52-11.66 25.52-25.94v-592.1l-51.1-28.5m-63.98 22.34l60.18 35.6L849.76 439v-71.22M241.58 83.98H782.2c12.74 0 16.56 3.9 16.56 16.88V469.3L511.9 639.14 224.98 469.2V100.86c0-12.98 3.94-16.88 16.6-16.88m-67.56 355.06l-60.2-35.64 60.2-35.6v71.24m739.72 501H109.98V461.36l389.08 230.38c.42.32.8.42 1.22.6l1.7.8c.92.44 1.86.82 2.82 1.12a9.2 9.2 0 001.92.44 11.86 11.86 0 002.82.42h4.86c.9-.1 1.92-.32 2.8-.42.62-.22 1.3-.3 1.92-.44 1.04-.28 1.92-.68 2.96-1.12.58-.32 1.08-.52 1.7-.8.4-.2.8-.3 1.2-.6l388.74-230.52v478.82"/></svg>