<svg class="icon" style="width:1em;height:1em;vertical-align:middle" viewBox="0 0 1024 1024" xmlns="http://www.w3.org/2000/svg" overflow="hidden"><path d="M89.318 322.993q0-24.92 17.731-42.172t42.652-17.253h60.383v269.328h-60.383q-24.92 0-42.652-17.252t-17.731-42.172v-150.48zM760.242 75.71q41.214-39.297 74.76-43.131t59.425 17.731 44.089 63.259 29.712 92.97 17.253 107.349 5.75 106.868-7.188 101.597-21.086 95.367-32.588 78.115-41.693 49.84-49.36 11.502-55.113-37.38q-27.795-32.588-75.239-54.154T605.45 629.222 491.872 605.26t-105.43-16.294-80.032-13.897-35.943-16.294v-300q3.834-13.418 30.192-22.044t67.092-16.294 92.013-16.773 104.472-24.92T668.23 138.49t92.013-62.78zM415.195 663.247q4.793 11.502 11.502 24.92 5.75 12.46 15.335 28.754t23.003 35.463q16.294 23.003 33.067 48.403t25.4 46.006 5.271 34.025-27.316 13.419h-54.632q-19.17 0-35.464-7.189t-31.15-22.044-30.67-37.86-34.026-54.632q-22.045-36.422-30.67-63.738t-11.502-45.527q-3.834-21.086 0-36.421 7.667.958 18.21 3.834 8.627 1.916 21.087 4.792t28.754 5.75q16.293 3.834 29.233 7.19t23.482 7.188q11.502 3.833 21.086 7.667z"/></svg>