<svg class="icon" style="width:1em;height:1em;vertical-align:middle" viewBox="0 0 1024 1024" xmlns="http://www.w3.org/2000/svg" overflow="hidden"><path d="M401.6 928.16h120.78V196.52l-368.4 88.32v643.32h123.78v-180.9h123.9v180.9zm371.64 0h108.24V582.68l-294-69.12v414.6h123.84V812h61.92v116.16zm-495.48-303.3h123.9v61.2h-123.9V624.8zm433.56 61.2h61.92v61.2h-61.92V686zM277.76 502.4h123.9v61.2h-123.9v-61.2zm433.56 61.2h61.92v61.2h-61.92v-61.2zM277.76 380h123.9v61.2h-123.9V380zM92 196.58L587.42 32v360.72L932 484.52V932a60 60 0 01-60 60H152a60 60 0 01-60-60V196.52z"/></svg>