<svg class="icon" style="width:1em;height:1em;vertical-align:middle" viewBox="0 0 1024 1024" xmlns="http://www.w3.org/2000/svg" overflow="hidden"><path d="M830.578 56.889a136.533 136.533 0 01136.306 128.523l.227 8.01v455.111A136.533 136.533 0 01838.588 784.84l-8.01.228H595.194a45.511 45.511 0 00-27.67 9.375l-4.506 3.96-155.375 155.374a45.511 45.511 0 01-68.13-60.074l3.777-4.278L498.665 734.05a136.533 136.533 0 0187.518-39.686l9.011-.319h235.384a45.511 45.511 0 0045.192-40.186l.319-5.325v-455.11a45.511 45.511 0 00-40.186-45.193l-5.325-.319H193.422a45.511 45.511 0 00-45.192 40.186l-.319 5.325v455.111a45.511 45.511 0 0040.186 45.193l5.325.318h91.022a45.511 45.511 0 015.325 90.704l-5.325.319h-91.022A136.533 136.533 0 0157.116 656.543l-.227-8.01v-455.11A136.533 136.533 0 01185.412 57.115l8.01-.227h637.156zM352.71 375.467a45.511 45.511 0 110 91.022H307.2a45.511 45.511 0 010-91.022h45.511zm182.045 0a45.511 45.511 0 010 91.022h-45.512a45.511 45.511 0 010-91.022h45.512zm182.044 0a45.511 45.511 0 010 91.022h-45.511a45.511 45.511 0 010-91.022H716.8z"/></svg>