<svg class="icon" style="width:1em;height:1em;vertical-align:middle" viewBox="0 0 1024 1024" xmlns="http://www.w3.org/2000/svg" overflow="hidden"><path d="M962.56 777.785h-50.745v-534.3c0-12.516-10.24-22.756-22.755-22.756H570.368c-12.516 0-22.756 10.24-22.756 22.755V777.9h-72.817V63.943c0-12.515-10.24-22.755-22.756-22.755H133.461c-12.515 0-22.755 10.24-22.755 22.755V777.9h-46.99c-12.516 0-22.756 10.24-22.756 22.755v52.452c0 12.515 10.24 22.755 22.756 22.755H962.56c12.516 0 22.756-10.24 22.756-22.755v-52.452c0-12.63-10.24-22.87-22.756-22.87zM622.023 352.939c0-12.516 10.24-22.756 22.756-22.756h171.577c12.515 0 22.755 10.24 22.755 22.756v27.534c0 12.515-10.24 22.755-22.755 22.755H644.779c-12.516 0-22.756-10.24-22.756-22.755v-27.534zm0 145.408c0-12.516 10.24-22.756 22.756-22.756h171.577c12.515 0 22.755 10.24 22.755 22.756v27.534c0 12.515-10.24 22.755-22.755 22.755H644.779c-12.516 0-22.756-10.24-22.756-22.755v-27.534zm-437.02-327.908c0-12.515 10.24-22.755 22.755-22.755h171.577c12.516 0 22.756 10.24 22.756 22.755v27.534c0 12.516-10.24 22.756-22.756 22.756H207.758c-12.515 0-22.755-10.24-22.755-22.756V170.44zm0 145.408c0-12.515 10.24-22.755 22.755-22.755h171.577c12.516 0 22.756 10.24 22.756 22.755v27.534c0 12.516-10.24 22.756-22.756 22.756H207.758c-12.515 0-22.755-10.24-22.755-22.756v-27.534zm0 146.318c0-12.515 10.24-22.755 22.755-22.755h171.577c12.516 0 22.756 10.24 22.756 22.755V489.7c0 12.515-10.24 22.755-22.756 22.755H207.758c-12.515 0-22.755-10.24-22.755-22.755v-27.535z"/></svg>